{"glyphs":{"0":{"ha":807,"x_min":44,"x_max":763,"o":"m 44 621 q 70 756 44 693 q 143 864 96 818 q 256 936 190 910 q 403 963 322 963 q 550 936 483 963 q 664 864 617 910 q 737 756 711 818 q 763 621 763 693 l 763 325 q 737 190 763 251 q 664 82 711 128 q 550 10 617 36 q 403 -15 483 -15 q 256 10 322 -15 q 143 82 190 36 q 70 190 96 128 q 44 325 44 251 l 44 621 m 564 619 q 519 733 564 690 q 403 776 474 776 q 287 733 332 776 q 242 619 242 690 l 242 326 q 287 213 242 256 q 403 169 332 169 q 519 213 474 169 q 564 326 564 256 l 564 619 z "},"1":{"ha":403,"x_min":36,"x_max":358,"o":"m 147 0 l 147 757 l 36 757 l 36 951 l 358 951 l 358 0 l 147 0 z "},"2":{"ha":769,"x_min":28,"x_max":733,"o":"m 58 0 l 58 176 l 399 449 q 454 494 429 472 q 496 538 479 515 q 522 588 513 561 q 531 649 531 615 q 492 743 531 708 q 388 778 453 778 q 269 743 314 778 q 193 657 225 708 l 28 757 q 91 840 56 801 q 171 906 126 878 q 270 949 215 933 q 390 965 325 965 q 533 942 469 965 q 641 876 597 918 q 708 779 685 835 q 732 660 732 724 q 718 554 732 601 q 677 465 704 507 q 609 384 650 424 q 514 301 568 344 l 350 176 l 733 176 l 733 0 l 58 0 z "},"3":{"ha":794,"x_min":39,"x_max":754,"o":"m 388 -17 q 173 40 258 -17 q 39 192 88 97 l 208 290 q 276 203 235 239 q 390 168 318 168 q 510 213 465 168 q 556 329 556 257 q 510 440 556 400 q 389 479 464 479 q 328 470 356 479 q 279 447 300 461 l 188 586 l 426 768 l 97 768 l 97 951 l 694 951 l 694 769 l 513 631 q 690 529 625 610 q 754 333 754 449 q 728 196 754 260 q 653 85 701 132 q 538 10 606 38 q 388 -17 471 -17 z "},"4":{"ha":825,"x_min":38,"x_max":786,"o":"m 786 365 l 786 186 l 693 186 l 693 0 l 489 0 l 489 186 l 38 186 l 38 365 l 460 954 l 693 954 l 693 365 l 786 365 m 489 365 l 489 679 l 261 365 l 489 365 z "},"5":{"ha":794,"x_min":42,"x_max":757,"o":"m 392 -17 q 176 40 263 -17 q 42 192 90 97 l 211 292 q 240 244 224 267 q 278 205 257 222 q 328 178 300 188 q 392 168 356 168 q 510 212 464 168 q 557 331 557 256 q 511 447 557 404 q 392 489 465 489 q 328 478 356 489 q 280 451 300 467 q 247 416 260 435 q 226 382 233 397 l 60 433 l 156 953 l 675 953 l 675 763 l 297 763 l 268 615 q 338 646 296 632 q 426 660 379 660 q 558 637 497 660 q 663 571 618 614 q 732 468 707 528 q 757 336 757 408 q 731 197 757 261 q 656 85 704 132 q 541 10 608 38 q 392 -17 474 -17 z "},"6":{"ha":781,"x_min":36,"x_max":753,"o":"m 394 -15 q 248 11 314 -15 q 135 84 182 38 q 62 195 88 131 q 36 336 36 260 q 53 456 36 399 q 100 567 69 513 l 318 953 l 533 953 l 365 661 q 424 667 389 667 q 555 642 494 667 q 659 572 615 617 q 728 465 703 526 q 753 333 753 404 q 727 199 753 263 q 654 88 701 136 q 541 13 607 40 q 394 -15 475 -15 m 394 163 q 461 175 431 163 q 514 210 492 188 q 549 263 536 233 q 561 329 561 293 q 549 394 561 364 q 514 447 536 425 q 461 482 492 469 q 394 494 431 494 q 328 482 358 494 q 275 447 297 469 q 240 394 253 425 q 228 329 228 364 q 240 263 228 293 q 275 210 253 233 q 328 175 297 188 q 394 163 358 163 z "},"7":{"ha":739,"x_min":39,"x_max":700,"o":"m 342 0 l 118 0 l 486 757 l 39 757 l 39 950 l 700 950 l 700 763 l 342 0 z "},"8":{"ha":783,"x_min":51,"x_max":733,"o":"m 393 -14 q 253 9 317 -14 q 146 73 190 32 q 76 172 101 114 q 51 299 51 229 q 87 431 51 372 q 181 529 122 490 q 106 704 106 601 q 126 808 106 760 q 183 890 146 856 q 274 945 221 925 q 393 965 328 965 q 511 944 458 965 q 601 888 564 924 q 659 806 639 853 q 679 704 679 758 q 603 529 679 601 q 699 431 665 490 q 733 299 733 371 q 708 176 733 233 q 639 77 683 119 q 532 10 594 35 q 393 -14 469 -14 m 393 600 q 469 629 440 600 q 499 703 499 658 q 469 778 499 750 q 393 807 440 807 q 315 778 344 807 q 286 703 286 750 q 315 629 286 658 q 393 600 344 600 m 393 150 q 501 191 458 150 q 543 296 543 232 q 501 398 543 358 q 393 438 458 438 q 285 398 326 438 q 243 296 243 358 q 285 191 243 232 q 393 150 326 150 z "},"9":{"ha":781,"x_min":31,"x_max":746,"o":"m 253 0 l 418 286 q 360 281 394 281 q 228 306 289 281 q 124 375 168 331 q 56 481 81 419 q 31 613 31 542 q 56 747 31 683 q 129 858 82 810 q 242 934 176 906 q 389 963 308 963 q 535 936 469 963 q 647 863 600 910 q 720 751 694 815 q 746 610 746 686 q 729 490 746 547 q 682 381 713 433 l 469 0 l 253 0 m 389 451 q 456 464 425 451 q 508 499 486 476 q 543 552 531 522 q 556 618 556 582 q 543 683 556 653 q 508 736 531 714 q 456 771 486 758 q 389 783 425 783 q 322 771 353 783 q 269 736 292 758 q 235 683 247 714 q 222 618 222 653 q 235 552 222 582 q 269 499 247 522 q 322 464 292 476 q 389 451 353 451 z "}," ":{"ha":274,"x_min":0,"x_max":0,"o":""},"!":{"ha":303,"x_min":51,"x_max":244,"o":"m 244 251 l 51 251 l 51 951 l 244 951 l 244 251 m 51 0 l 51 193 l 244 193 l 244 0 l 51 0 z "},"\"":{"ha":517,"x_min":39,"x_max":478,"o":"m 60 617 l 39 951 l 243 951 l 217 617 l 60 617 m 296 617 l 274 951 l 478 951 l 451 617 l 296 617 z "},"#":{"ha":821,"x_min":49,"x_max":772,"o":"m 478 563 l 351 563 l 339 392 l 465 392 l 478 563 m 450 199 l 325 199 l 310 0 l 128 0 l 142 199 l 49 199 l 49 392 l 157 392 l 169 563 l 49 563 l 49 756 l 183 756 l 197 951 l 381 951 l 367 756 l 492 756 l 506 951 l 689 951 l 675 756 l 772 756 l 772 563 l 661 563 l 649 392 l 772 392 l 772 199 l 633 199 l 619 0 l 436 0 l 450 199 z "},"$":{"ha":818,"x_min":46,"x_max":776,"o":"m 342 783 q 287 747 306 772 q 268 689 268 722 q 289 627 268 650 q 342 589 310 604 l 342 783 m 490 153 q 569 251 569 175 q 548 309 569 288 q 490 346 526 331 l 490 153 m 490 544 q 593 516 542 532 q 685 471 644 500 q 751 395 725 442 q 776 276 776 349 q 699 79 776 154 q 490 -14 622 4 l 490 -129 l 342 -129 l 342 -14 q 126 78 201 4 q 46 272 51 153 l 250 272 q 274 204 253 236 q 342 156 296 172 l 342 385 q 240 417 290 397 q 151 468 190 436 q 87 549 111 500 q 63 671 63 597 q 136 860 63 783 q 342 956 210 938 l 342 1092 l 490 1092 l 490 956 q 692 860 622 936 q 768 672 761 785 l 565 672 q 561 702 564 686 q 550 733 558 718 q 527 760 542 747 q 490 781 513 772 l 490 544 z "},"%":{"ha":1165,"x_min":24,"x_max":1142,"o":"m 24 761 q 81 903 24 849 q 232 958 138 958 q 384 903 328 958 q 440 761 440 849 l 440 596 q 384 454 440 508 q 232 400 328 400 q 147 414 185 400 q 81 454 108 428 q 39 516 54 481 q 24 596 24 551 l 24 761 m 304 756 q 285 813 304 792 q 232 833 265 833 q 179 813 199 833 q 160 756 160 792 l 160 601 q 179 545 160 567 q 232 524 199 524 q 285 545 265 524 q 304 601 304 567 l 304 756 m 283 0 l 708 951 l 892 951 l 467 0 l 283 0 m 725 353 q 782 495 725 440 q 933 550 839 550 q 1085 495 1029 550 q 1142 353 1142 440 l 1142 188 q 1085 46 1142 100 q 933 -8 1029 -8 q 848 6 886 -8 q 783 46 810 19 q 740 108 756 72 q 725 188 725 143 l 725 353 m 1006 347 q 986 404 1006 383 q 933 425 967 425 q 881 404 900 425 q 861 347 861 383 l 861 193 q 881 137 861 158 q 933 115 900 115 q 986 137 967 115 q 1006 193 1006 158 l 1006 347 z "},"&":{"ha":1015,"x_min":47,"x_max":992,"o":"m 351 706 q 368 643 351 674 q 410 585 385 613 q 463 609 439 596 q 506 638 488 622 q 535 673 525 653 q 546 719 546 693 q 520 784 546 760 q 454 808 494 808 q 383 782 414 808 q 351 706 351 756 m 344 393 q 276 343 303 371 q 250 271 250 315 q 294 184 250 214 q 408 154 339 154 q 546 186 485 154 l 344 393 m 675 56 q 551 3 619 22 q 403 -15 483 -15 q 258 3 324 -15 q 147 57 193 21 q 74 145 100 93 q 47 267 47 197 q 99 424 47 364 q 238 521 151 483 q 186 604 208 558 q 164 703 164 650 q 185 810 164 761 q 244 895 206 860 q 335 950 282 931 q 454 969 389 969 q 566 951 515 969 q 653 901 617 933 q 709 826 689 869 q 729 732 729 783 q 712 635 729 676 q 665 563 694 594 q 598 509 636 532 q 517 468 560 486 l 678 308 q 743 448 719 371 q 771 599 767 525 l 961 599 q 918 380 953 492 q 814 176 883 268 l 992 0 l 729 0 l 675 56 z "},"'":{"ha":282,"x_min":36,"x_max":244,"o":"m 58 617 l 36 951 l 244 951 l 218 617 l 58 617 z "},"(":{"ha":467,"x_min":35,"x_max":407,"o":"m 404 881 q 281 653 328 786 q 233 368 233 521 q 278 84 233 214 q 407 -149 322 -46 l 251 -237 q 91 38 147 -119 q 35 368 35 194 q 51 538 35 454 q 94 700 67 622 q 162 846 122 778 q 250 968 201 914 l 404 881 z "},")":{"ha":467,"x_min":60,"x_max":432,"o":"m 63 -150 q 186 77 139 -56 q 233 363 233 210 q 189 647 233 517 q 60 879 144 776 l 215 968 q 376 693 319 850 q 432 363 432 536 q 416 192 432 276 q 372 31 400 108 q 304 -115 344 -47 q 217 -237 264 -183 l 63 -150 z "},"*":{"ha":479,"x_min":24,"x_max":456,"o":"m 397 897 l 456 793 l 357 739 l 456 683 l 397 581 l 300 635 l 300 522 l 178 522 l 178 636 l 82 581 l 24 683 l 121 739 l 24 793 l 82 897 l 178 842 l 178 953 l 300 953 l 300 842 l 397 897 z "},"+":{"ha":611,"x_min":25,"x_max":586,"o":"m 586 486 l 586 304 l 399 304 l 399 107 l 214 107 l 214 304 l 25 304 l 25 486 l 214 486 l 214 685 l 399 685 l 399 486 l 586 486 z "},",":{"ha":279,"x_min":42,"x_max":240,"o":"m 178 -133 l 43 -133 l 94 0 l 42 0 l 42 201 l 240 201 l 240 39 l 178 -133 z "},"-":{"ha":496,"x_min":43,"x_max":453,"o":"m 43 303 l 43 485 l 453 485 l 453 303 l 43 303 z "},".":{"ha":279,"x_min":39,"x_max":239,"o":"m 39 0 l 39 201 l 239 201 l 239 0 l 39 0 z "},"/":{"ha":474,"x_min":13,"x_max":463,"o":"m 13 0 l 263 951 l 463 951 l 213 0 l 13 0 z "},":":{"ha":279,"x_min":39,"x_max":239,"o":"m 39 0 l 39 201 l 239 201 l 239 0 l 39 0 m 39 511 l 39 713 l 239 713 l 239 511 l 39 511 z "},";":{"ha":279,"x_min":39,"x_max":240,"o":"m 39 511 l 39 713 l 239 713 l 239 511 l 39 511 m 178 -133 l 43 -133 l 94 0 l 42 0 l 42 201 l 240 201 l 240 39 l 178 -133 z "},"<":{"ha":611,"x_min":25,"x_max":586,"o":"m 276 392 l 586 285 l 586 89 l 25 314 l 25 474 l 586 697 l 586 503 l 276 392 z "},"=":{"ha":611,"x_min":25,"x_max":586,"o":"m 25 429 l 25 621 l 586 621 l 586 429 l 25 429 m 25 168 l 25 360 l 586 360 l 586 168 l 25 168 z "},">":{"ha":611,"x_min":25,"x_max":586,"o":"m 586 314 l 25 89 l 25 285 l 335 392 l 25 503 l 25 697 l 586 474 l 586 314 z "},"?":{"ha":674,"x_min":11,"x_max":649,"o":"m 11 682 q 110 885 26 808 q 335 963 193 963 q 468 938 410 963 q 567 873 526 914 q 628 777 607 832 q 649 661 649 722 q 582 467 649 544 q 407 365 515 390 l 407 251 l 214 251 l 214 506 q 306 510 261 506 q 386 532 351 515 q 442 578 421 549 q 463 658 463 608 q 426 753 463 717 q 331 789 389 789 q 237 758 268 789 q 194 682 206 728 l 11 682 m 214 0 l 214 193 l 407 193 l 407 0 l 214 0 z "},"@":{"ha":1072,"x_min":39,"x_max":1033,"o":"m 551 -104 q 347 -67 440 -104 q 185 34 253 -31 q 78 188 117 99 q 39 383 39 278 q 75 576 39 485 q 178 735 111 667 q 340 844 244 804 q 551 885 435 885 q 749 850 660 885 q 901 755 838 815 q 999 613 964 694 q 1033 435 1033 531 q 1015 305 1033 361 q 964 211 996 249 q 888 154 932 174 q 792 135 843 135 q 713 148 747 135 q 658 188 678 161 q 592 140 631 157 q 504 124 553 124 q 408 142 453 124 q 328 195 363 161 q 274 276 294 229 q 254 376 254 322 q 274 478 254 431 q 328 559 294 525 q 408 613 363 593 q 504 632 453 632 q 590 614 556 632 q 633 588 624 596 l 633 628 l 789 628 l 789 286 q 799 258 789 267 q 822 250 808 250 q 856 260 839 250 q 885 292 872 271 q 906 349 897 314 q 914 433 914 383 q 889 568 914 506 q 817 676 864 631 q 702 749 769 722 q 550 775 635 775 q 385 743 457 775 q 265 657 314 711 q 190 532 215 603 q 164 385 164 461 q 193 229 164 299 q 275 111 222 160 q 399 36 328 63 q 557 10 471 10 q 692 26 626 10 q 819 78 757 42 l 872 -21 q 721 -84 807 -64 q 551 -104 635 -104 m 633 376 q 600 457 633 424 q 518 490 567 490 q 476 481 496 490 q 441 457 456 472 q 418 421 426 442 q 410 376 410 400 q 442 295 410 328 q 518 263 474 263 q 600 295 567 263 q 633 376 633 328 z "},"A":{"ha":951,"x_min":8,"x_max":943,"o":"m 469 726 l 346 354 l 593 354 l 469 726 m 657 164 l 283 164 l 229 0 l 8 0 l 344 951 l 608 951 l 943 0 l 711 0 l 657 164 z "},"B":{"ha":850,"x_min":58,"x_max":821,"o":"m 58 951 l 450 951 q 588 931 529 951 q 683 874 646 910 q 739 792 721 839 q 757 693 757 746 q 727 580 757 629 q 638 500 697 531 q 774 414 728 472 q 821 272 821 356 q 800 164 821 214 q 738 78 779 114 q 633 21 696 42 q 486 0 571 0 l 58 0 l 58 951 m 274 767 l 274 572 l 435 572 q 518 600 490 572 q 546 671 546 628 q 518 740 546 713 q 435 767 490 767 l 274 767 m 274 390 l 274 185 l 475 185 q 572 213 538 185 q 606 285 606 240 q 572 361 606 332 q 474 390 538 390 l 274 390 z "},"C":{"ha":999,"x_min":36,"x_max":974,"o":"m 539 771 q 426 748 478 771 q 337 685 375 725 q 277 592 299 646 q 256 478 256 539 q 277 361 256 415 q 338 267 299 307 q 430 205 376 228 q 546 182 483 182 q 699 224 633 182 q 806 336 765 265 l 974 219 q 799 44 904 107 q 549 -19 694 -19 q 345 19 439 -19 q 183 124 251 57 q 75 283 114 192 q 36 478 36 374 q 75 672 36 582 q 181 828 114 761 q 342 933 249 894 q 543 971 435 971 q 793 913 685 971 q 969 733 901 854 l 799 615 q 694 728 757 685 q 539 771 631 771 z "},"D":{"ha":968,"x_min":58,"x_max":932,"o":"m 58 951 l 447 951 q 647 915 557 951 q 799 815 736 878 q 897 665 863 751 q 932 481 932 579 q 896 292 932 381 q 794 140 860 204 q 638 38 729 75 q 436 0 547 0 l 58 0 l 58 951 m 274 754 l 274 197 l 443 197 q 551 218 501 197 q 637 276 600 239 q 694 365 674 314 q 715 478 715 417 q 694 588 715 538 q 636 676 674 639 q 547 733 599 713 q 436 754 496 754 l 274 754 z "},"E":{"ha":793,"x_min":58,"x_max":756,"o":"m 58 951 l 754 951 l 754 757 l 274 757 l 274 578 l 718 578 l 718 389 l 274 389 l 274 194 l 756 194 l 756 0 l 58 0 l 58 951 z "},"F":{"ha":767,"x_min":58,"x_max":731,"o":"m 274 338 l 274 0 l 58 0 l 58 951 l 731 951 l 731 754 l 274 754 l 274 526 l 694 526 l 694 338 l 274 338 z "},"G":{"ha":1064,"x_min":36,"x_max":1031,"o":"m 1031 478 q 995 280 1031 371 q 897 122 960 189 q 744 18 833 56 q 549 -19 656 -19 q 342 19 436 -19 q 179 126 247 58 q 74 283 111 193 q 36 476 36 374 q 73 668 36 578 q 177 826 110 758 q 339 932 244 893 q 549 971 433 971 q 784 919 683 971 q 950 775 885 868 l 792 640 q 683 735 743 701 q 549 769 624 769 q 433 748 486 769 q 340 687 379 726 q 278 592 300 647 q 256 471 256 538 q 277 355 256 408 q 337 263 299 301 q 428 203 375 225 q 543 181 481 181 q 701 225 639 181 q 790 346 763 269 l 538 346 l 538 533 l 1031 533 l 1031 478 l 1031 478 z "},"H":{"ha":950,"x_min":58,"x_max":892,"o":"m 676 372 l 274 372 l 274 0 l 58 0 l 58 951 l 274 951 l 274 569 l 676 569 l 676 951 l 892 951 l 892 0 l 676 0 l 676 372 z "},"I":{"ha":331,"x_min":58,"x_max":274,"o":"m 58 0 l 58 951 l 274 951 l 274 0 l 58 0 z "},"J":{"ha":799,"x_min":35,"x_max":746,"o":"m 250 340 q 287 220 250 257 q 390 183 324 183 q 494 228 457 183 q 531 349 531 274 l 531 951 l 746 951 l 746 349 q 723 199 746 267 q 655 84 700 132 q 544 10 610 36 q 392 -17 478 -17 q 242 7 308 -17 q 130 76 176 31 q 59 188 83 122 q 35 340 35 254 l 250 340 z "},"K":{"ha":871,"x_min":58,"x_max":875,"o":"m 613 951 l 864 951 l 486 476 l 875 0 l 596 0 l 274 406 l 274 0 l 58 0 l 58 951 l 274 951 l 274 508 l 613 951 z "},"L":{"ha":756,"x_min":58,"x_max":715,"o":"m 58 951 l 274 951 l 274 197 l 715 197 l 715 0 l 58 0 l 58 951 z "},"M":{"ha":1192,"x_min":58,"x_max":1133,"o":"m 265 568 l 265 0 l 58 0 l 58 951 l 317 951 l 596 322 l 875 951 l 1133 951 l 1133 0 l 922 0 l 922 571 l 664 0 l 522 0 l 265 568 z "},"N":{"ha":942,"x_min":58,"x_max":883,"o":"m 265 603 l 265 0 l 58 0 l 58 951 l 293 951 l 676 347 l 676 951 l 883 951 l 883 0 l 649 0 l 265 603 z "},"O":{"ha":1081,"x_min":36,"x_max":1044,"o":"m 540 -19 q 344 18 436 -19 q 184 122 253 56 q 76 279 115 189 q 36 475 36 369 q 76 672 36 581 q 184 829 115 763 q 344 933 253 896 q 540 971 436 971 q 740 933 647 971 q 899 829 832 896 q 1006 672 967 763 q 1044 476 1044 582 q 1006 279 1044 369 q 899 122 967 189 q 740 18 832 56 q 540 -19 647 -19 m 540 181 q 652 203 600 181 q 743 266 704 226 q 803 360 782 306 q 825 476 825 414 q 803 592 825 539 q 743 685 782 646 q 652 748 704 725 q 540 771 600 771 q 428 748 479 771 q 338 685 376 725 q 277 592 299 646 q 256 475 256 538 q 277 358 256 413 q 338 265 299 304 q 428 203 376 225 q 540 181 479 181 z "},"P":{"ha":842,"x_min":58,"x_max":807,"o":"m 274 265 l 274 0 l 58 0 l 58 951 l 468 951 q 612 925 549 951 q 719 853 675 899 q 785 746 763 807 q 807 615 807 685 q 783 478 807 542 q 712 367 758 415 q 599 292 665 319 q 449 265 532 265 l 274 265 m 274 754 l 274 463 l 443 463 q 551 503 513 463 q 590 610 590 544 q 551 715 590 675 q 436 754 511 754 l 274 754 z "},"Q":{"ha":1081,"x_min":36,"x_max":1065,"o":"m 790 42 q 672 -3 735 13 q 540 -19 610 -19 q 344 18 436 -19 q 184 122 253 56 q 76 279 115 189 q 36 475 36 369 q 76 672 36 581 q 184 829 115 763 q 344 933 253 896 q 540 971 436 971 q 740 933 647 971 q 899 829 832 896 q 1006 672 967 763 q 1044 476 1044 582 q 1016 304 1044 385 q 935 160 988 224 l 1065 17 l 871 -47 l 790 42 m 540 181 q 646 200 594 181 l 508 350 l 703 414 l 786 322 q 825 476 825 392 q 803 592 825 539 q 743 685 782 646 q 652 748 704 725 q 540 771 600 771 q 428 748 479 771 q 338 685 376 725 q 277 592 299 646 q 256 475 256 538 q 277 358 256 413 q 338 265 299 304 q 428 203 376 225 q 540 181 479 181 z "},"R":{"ha":854,"x_min":58,"x_max":835,"o":"m 274 754 l 274 500 l 425 500 q 535 535 496 500 q 575 626 575 571 q 540 718 575 682 q 432 754 504 754 l 274 754 m 274 0 l 58 0 l 58 951 l 464 951 q 601 928 540 951 q 703 863 661 904 q 769 763 746 821 q 792 635 792 704 q 774 529 792 579 q 722 439 756 479 q 640 371 689 399 q 532 331 592 343 l 835 0 l 554 0 l 274 324 l 274 0 z "},"S":{"ha":817,"x_min":19,"x_max":789,"o":"m 404 -18 q 126 66 222 -18 q 19 297 29 150 l 235 297 q 246 244 236 269 q 276 198 256 218 q 328 165 296 178 q 410 153 361 153 q 533 182 492 153 q 574 256 574 211 q 558 301 574 283 q 514 333 542 319 q 449 355 486 346 q 372 372 413 364 q 256 403 315 386 q 147 454 196 421 q 67 541 99 488 q 36 679 36 594 q 60 795 36 742 q 129 887 83 849 q 241 947 175 925 q 393 969 307 969 q 548 947 481 969 q 662 883 615 924 q 735 784 708 842 q 767 657 761 726 l 550 657 q 511 754 547 714 q 388 794 475 794 q 283 769 322 794 q 244 697 244 744 q 261 647 244 667 q 306 613 278 626 q 370 589 333 599 q 447 569 407 579 q 566 540 506 557 q 676 493 626 524 q 758 413 726 463 q 789 282 789 363 q 764 162 789 217 q 690 67 739 107 q 569 4 640 26 q 404 -18 497 -18 z "},"T":{"ha":824,"x_min":21,"x_max":803,"o":"m 304 0 l 304 754 l 21 754 l 21 951 l 803 951 l 803 754 l 519 754 l 519 0 l 304 0 z "},"U":{"ha":925,"x_min":53,"x_max":872,"o":"m 465 -17 q 288 12 365 -17 q 159 92 211 40 q 80 217 107 144 q 53 378 53 289 l 53 951 l 268 951 l 268 407 q 319 241 268 299 q 464 183 369 183 q 607 241 557 183 q 657 407 657 299 l 657 951 l 872 951 l 872 378 q 846 217 872 289 q 767 92 819 144 q 640 12 715 40 q 465 -17 564 -17 z "},"V":{"ha":940,"x_min":8,"x_max":932,"o":"m 338 0 l 8 951 l 240 951 l 475 232 l 710 951 l 932 951 l 601 0 l 338 0 z "},"W":{"ha":1332,"x_min":13,"x_max":1319,"o":"m 664 588 l 500 0 l 244 0 l 13 951 l 239 951 l 385 268 l 575 951 l 765 951 l 954 261 l 1106 951 l 1319 951 l 1088 0 l 831 0 l 664 588 z "},"X":{"ha":899,"x_min":6,"x_max":892,"o":"m 442 315 l 244 0 l 6 0 l 325 478 l 15 951 l 265 951 l 457 647 l 647 951 l 888 951 l 575 483 l 892 0 l 642 0 l 442 315 z "},"Y":{"ha":932,"x_min":13,"x_max":921,"o":"m 358 0 l 358 356 l 13 951 l 250 951 l 469 551 l 690 951 l 921 951 l 575 354 l 575 0 l 358 0 z "},"Z":{"ha":817,"x_min":38,"x_max":776,"o":"m 307 193 l 776 193 l 776 0 l 38 0 l 38 178 l 497 758 l 39 758 l 39 951 l 768 951 l 768 771 l 307 193 z "},"[":{"ha":444,"x_min":46,"x_max":401,"o":"m 240 778 l 240 -44 l 401 -44 l 401 -222 l 46 -222 l 46 951 l 401 951 l 401 778 l 240 778 z "},"\\":{"ha":474,"x_min":13,"x_max":463,"o":"m 263 0 l 13 951 l 213 951 l 463 0 l 263 0 z "},"]":{"ha":444,"x_min":43,"x_max":399,"o":"m 43 778 l 43 951 l 399 951 l 399 -222 l 43 -222 l 43 -44 l 204 -44 l 204 778 l 43 778 z "},"^":{"ha":611,"x_min":29,"x_max":586,"o":"m 385 113 l 306 389 l 231 113 l 29 113 l 218 672 l 396 672 l 586 113 l 385 113 z "},"_":{"ha":694,"x_min":-1,"x_max":696,"o":"m -1 -243 l -1 -62 l 696 -62 l 696 -243 l -1 -243 z "},"`":{"ha":556,"x_min":107,"x_max":432,"o":"m 432 754 l 107 831 l 107 1004 l 432 925 l 432 754 z "},"a":{"ha":826,"x_min":26,"x_max":788,"o":"m 403 544 q 328 529 363 544 q 269 488 294 514 q 230 427 244 463 q 215 353 215 392 q 230 278 215 313 q 269 217 244 243 q 328 176 294 190 q 403 161 363 161 q 480 176 444 161 q 542 217 515 190 q 583 278 568 243 q 597 353 597 313 q 582 427 597 392 q 540 488 567 463 q 478 529 514 514 q 403 544 443 544 m 594 53 q 502 7 557 24 q 386 -10 447 -10 q 247 18 313 -10 q 133 94 182 46 q 56 209 85 143 q 26 353 26 275 q 56 497 26 429 q 133 613 85 564 q 247 691 182 663 q 386 719 313 719 q 502 702 447 719 q 594 656 557 685 l 594 713 l 788 713 l 788 0 l 594 0 l 594 53 z "},"b":{"ha":826,"x_min":39,"x_max":800,"o":"m 440 -10 q 324 7 379 -10 q 232 53 269 24 l 232 0 l 39 0 l 39 951 l 232 951 l 232 656 q 324 702 269 685 q 440 719 379 719 q 578 691 513 719 q 693 613 644 663 q 771 497 742 564 q 800 353 800 429 q 771 209 800 275 q 693 94 742 143 q 578 18 644 46 q 440 -10 513 -10 m 424 161 q 497 176 463 161 q 557 217 532 190 q 597 278 582 243 q 611 353 611 313 q 597 427 611 392 q 557 488 582 463 q 497 529 532 514 q 424 544 463 544 q 348 529 383 544 q 286 488 313 514 q 244 427 260 463 q 229 353 229 392 q 244 278 229 313 q 285 217 258 243 q 347 176 311 190 q 424 161 382 161 z "},"c":{"ha":754,"x_min":26,"x_max":736,"o":"m 735 165 q 602 33 683 82 q 403 -17 521 -17 q 251 13 319 -17 q 132 92 182 42 q 54 209 82 142 q 26 354 26 276 q 54 500 26 432 q 132 618 82 568 q 251 697 182 668 q 403 726 319 726 q 603 675 521 726 q 736 540 686 624 l 585 446 q 517 520 557 490 q 410 550 476 550 q 273 496 325 550 q 221 354 221 442 q 273 212 221 267 q 410 157 325 157 q 517 187 476 157 q 585 261 557 217 l 735 165 z "},"d":{"ha":826,"x_min":26,"x_max":788,"o":"m 403 161 q 480 176 444 161 q 542 217 515 190 q 583 278 568 243 q 597 353 597 313 q 582 427 597 392 q 540 488 567 463 q 478 529 514 514 q 403 544 443 544 q 328 529 363 544 q 269 488 294 514 q 230 427 244 463 q 215 353 215 392 q 230 278 215 313 q 269 217 244 243 q 328 176 294 190 q 403 161 363 161 m 594 53 q 502 7 557 24 q 386 -10 447 -10 q 247 18 313 -10 q 133 94 182 46 q 56 209 85 143 q 26 353 26 275 q 56 497 26 429 q 133 613 85 564 q 247 691 182 663 q 386 719 313 719 q 502 702 447 719 q 594 656 557 685 l 594 951 l 788 951 l 788 0 l 594 0 l 594 53 z "},"e":{"ha":792,"x_min":26,"x_max":764,"o":"m 739 153 q 603 28 686 74 q 401 -17 521 -17 q 247 12 315 -17 q 128 90 178 40 q 53 207 79 139 q 26 354 26 275 q 53 499 26 431 q 131 617 81 567 q 250 697 181 668 q 403 726 319 726 q 554 699 488 726 q 667 622 621 671 q 739 508 714 574 q 764 364 764 442 q 763 321 764 343 q 761 296 761 299 l 217 296 q 281 188 232 228 q 406 147 331 147 q 517 173 471 147 q 594 242 564 199 l 739 153 m 401 568 q 288 534 333 568 q 224 439 243 500 l 569 439 q 507 536 554 504 q 401 568 460 568 z "},"f":{"ha":521,"x_min":28,"x_max":493,"o":"m 426 803 q 356 783 379 803 q 332 719 332 764 l 332 713 l 493 713 l 493 540 l 332 540 l 332 0 l 139 0 l 139 540 l 28 540 l 28 713 l 139 713 l 139 721 q 209 899 139 836 q 418 961 279 961 l 493 961 l 493 803 l 426 803 z "},"g":{"ha":815,"x_min":26,"x_max":778,"o":"m 397 550 q 326 535 360 550 q 268 495 293 521 q 228 435 243 469 q 214 363 214 401 q 228 288 214 322 q 268 229 243 254 q 326 190 293 204 q 397 175 360 175 q 474 190 439 175 q 534 229 508 204 q 574 288 560 254 q 589 363 589 322 q 574 435 589 401 q 534 495 560 469 q 473 535 508 521 q 397 550 438 550 m 396 -261 q 191 -217 275 -261 q 51 -94 107 -174 l 190 0 q 273 -72 222 -44 q 393 -99 324 -99 q 535 -61 483 -99 q 586 53 586 -24 l 586 72 q 381 7 508 7 q 245 34 310 7 q 132 109 181 61 q 55 222 83 157 q 26 364 26 288 q 55 505 26 439 q 132 619 83 571 q 245 696 181 668 q 381 724 310 724 q 503 704 451 724 q 586 660 554 685 l 586 713 l 778 713 l 778 69 q 753 -60 778 0 q 679 -165 728 -119 q 559 -235 631 -210 q 396 -261 488 -261 z "},"h":{"ha":750,"x_min":39,"x_max":711,"o":"m 232 640 q 261 669 242 654 q 307 696 281 683 q 366 717 333 708 q 436 725 399 725 q 549 704 499 725 q 636 646 600 683 q 692 555 672 608 q 711 438 711 501 l 711 0 l 519 0 l 519 404 q 485 508 519 468 q 389 547 451 547 q 275 506 318 547 q 232 389 232 464 l 232 0 l 39 0 l 39 951 l 232 951 l 232 640 z "},"i":{"ha":271,"x_min":39,"x_max":232,"o":"m 39 774 l 39 951 l 232 951 l 232 774 l 39 774 m 39 0 l 39 713 l 232 713 l 232 0 l 39 0 z "},"j":{"ha":271,"x_min":-75,"x_max":232,"o":"m 39 774 l 39 951 l 232 951 l 232 774 l 39 774 m 232 51 q 215 -85 232 -29 q 160 -178 197 -142 q 65 -231 124 -214 q -75 -247 7 -247 l -75 -76 q 11 -49 -17 -76 q 39 38 39 -22 l 39 713 l 232 713 l 232 51 z "},"k":{"ha":699,"x_min":39,"x_max":700,"o":"m 469 713 l 689 713 l 415 358 l 700 0 l 460 0 l 233 293 l 233 0 l 39 0 l 39 951 l 233 951 l 233 393 l 469 713 z "},"l":{"ha":272,"x_min":39,"x_max":233,"o":"m 39 0 l 39 951 l 233 951 l 233 0 l 39 0 z "},"m":{"ha":1181,"x_min":39,"x_max":1142,"o":"m 229 642 q 262 670 243 656 q 306 697 281 685 q 360 717 331 710 q 426 725 390 725 q 540 702 488 725 q 631 628 592 679 q 729 699 672 672 q 864 725 786 725 q 981 705 929 725 q 1068 647 1032 685 q 1123 558 1104 610 q 1142 442 1142 506 l 1142 0 l 950 0 l 950 410 q 919 510 950 472 q 831 547 888 547 q 726 506 765 547 q 686 393 686 465 l 686 0 l 496 0 l 496 410 q 465 510 496 472 q 376 547 433 547 q 272 506 311 547 q 232 393 232 465 l 232 0 l 39 0 l 39 713 l 229 713 l 229 642 z "},"n":{"ha":750,"x_min":39,"x_max":711,"o":"m 229 640 q 308 698 256 671 q 436 725 361 725 q 549 704 499 725 q 636 646 600 683 q 692 555 672 608 q 711 438 711 501 l 711 0 l 519 0 l 519 404 q 485 508 519 468 q 389 547 451 547 q 275 506 318 547 q 232 389 232 464 l 232 0 l 39 0 l 39 713 l 229 713 l 229 640 z "},"o":{"ha":815,"x_min":26,"x_max":792,"o":"m 408 726 q 560 697 490 726 q 682 618 631 668 q 763 500 733 568 q 792 354 792 432 q 763 209 792 276 q 682 92 733 142 q 560 13 631 42 q 408 -17 490 -17 q 256 12 326 -17 q 135 90 186 40 q 55 208 83 140 q 26 354 26 276 q 56 500 26 432 q 135 618 85 568 q 256 697 186 668 q 408 726 326 726 m 408 551 q 333 537 368 551 q 272 496 297 522 q 231 433 246 469 q 217 354 217 397 q 231 275 217 311 q 269 213 244 239 q 329 171 294 186 q 404 156 364 156 q 481 171 444 156 q 543 213 517 186 q 585 275 569 239 q 600 354 600 311 q 585 433 600 397 q 545 496 571 469 q 484 537 519 522 q 408 551 449 551 z "},"p":{"ha":826,"x_min":39,"x_max":800,"o":"m 424 544 q 347 530 382 544 q 285 489 311 515 q 244 428 258 463 q 229 353 229 393 q 244 278 229 313 q 286 217 260 243 q 348 176 313 192 q 424 161 383 161 q 497 176 463 161 q 557 217 532 192 q 597 278 582 243 q 611 353 611 313 q 597 428 611 393 q 557 489 582 463 q 497 530 532 515 q 424 544 463 544 m 440 -10 q 324 8 379 -10 q 232 54 269 25 l 232 -244 l 39 -244 l 39 713 l 232 713 l 232 657 q 324 703 269 686 q 440 719 379 719 q 578 692 513 719 q 693 615 644 664 q 771 500 742 567 q 800 357 800 433 q 771 213 800 279 q 693 97 742 146 q 578 19 644 47 q 440 -10 513 -10 z "},"q":{"ha":826,"x_min":26,"x_max":788,"o":"m 594 -244 l 594 54 q 502 8 557 25 q 386 -10 447 -10 q 247 19 313 -10 q 133 97 182 47 q 56 213 85 146 q 26 357 26 279 q 56 500 26 433 q 133 615 85 567 q 247 692 182 664 q 386 719 313 719 q 502 703 447 719 q 594 657 557 686 l 594 713 l 788 713 l 788 -244 l 594 -244 m 403 544 q 328 530 363 544 q 269 489 294 515 q 230 428 244 463 q 215 353 215 393 q 230 278 215 313 q 269 217 244 243 q 328 176 294 192 q 403 161 363 161 q 478 176 443 161 q 540 217 514 192 q 582 278 567 243 q 597 353 597 313 q 583 428 597 393 q 542 489 568 463 q 480 530 515 515 q 403 544 444 544 z "},"r":{"ha":469,"x_min":39,"x_max":439,"o":"m 39 0 l 39 713 l 232 713 l 232 615 q 320 693 268 664 q 439 722 372 722 l 439 528 q 283 473 332 528 q 233 325 233 418 l 233 0 l 39 0 z "},"s":{"ha":690,"x_min":28,"x_max":667,"o":"m 224 224 q 230 190 224 207 q 251 160 236 174 q 292 136 267 146 q 356 126 317 126 q 435 147 410 126 q 461 193 461 168 q 451 222 461 210 q 425 240 442 233 q 385 252 408 247 q 336 261 363 257 q 237 279 289 269 q 141 312 185 289 q 69 376 97 335 q 40 490 40 418 q 61 581 40 539 q 120 653 82 622 q 213 703 158 685 q 335 721 267 721 q 551 657 471 721 q 640 485 632 593 l 447 485 q 441 521 446 504 q 424 549 436 538 q 390 568 411 561 q 338 575 369 575 q 266 560 296 575 q 236 513 236 546 q 249 480 236 493 q 283 458 261 467 q 335 444 306 450 q 396 433 364 439 q 490 415 442 425 q 577 382 538 404 q 642 323 617 360 q 667 226 667 286 q 642 117 667 163 q 574 43 617 72 q 472 0 531 14 q 346 -14 413 -14 q 215 4 272 -14 q 116 54 157 22 q 52 129 75 86 q 28 224 29 172 l 224 224 z "},"t":{"ha":532,"x_min":28,"x_max":499,"o":"m 499 713 l 499 540 l 324 540 l 324 254 q 347 185 324 206 q 418 165 369 165 l 499 165 l 499 0 l 404 0 q 196 62 261 0 q 131 244 131 124 l 131 540 l 28 540 l 28 713 l 131 713 l 131 896 l 324 896 l 324 713 l 499 713 z "},"u":{"ha":750,"x_min":39,"x_max":711,"o":"m 521 0 l 521 71 q 432 10 485 32 q 314 -12 379 -12 q 201 8 251 -12 q 114 67 150 29 q 58 157 78 104 q 39 275 39 210 l 39 713 l 231 713 l 231 308 q 265 205 231 244 q 363 165 300 165 q 476 207 433 165 q 519 324 519 249 l 519 713 l 711 713 l 711 0 l 521 0 z "},"v":{"ha":750,"x_min":14,"x_max":736,"o":"m 246 0 l 14 713 l 225 713 l 379 183 l 532 713 l 736 713 l 504 0 l 246 0 z "},"w":{"ha":1079,"x_min":14,"x_max":1065,"o":"m 538 407 l 440 0 l 196 0 l 14 713 l 208 713 l 325 222 l 446 713 l 640 713 l 760 219 l 878 713 l 1065 713 l 882 0 l 635 0 l 538 407 z "},"x":{"ha":732,"x_min":13,"x_max":719,"o":"m 719 0 l 489 0 l 364 215 l 238 0 l 13 0 l 242 363 l 18 713 l 247 713 l 367 510 l 485 713 l 710 713 l 488 365 l 719 0 z "},"y":{"ha":736,"x_min":13,"x_max":724,"o":"m 485 25 q 430 -97 460 -46 q 361 -182 400 -149 q 272 -231 322 -215 q 157 -246 222 -246 l 88 -246 l 88 -72 l 146 -72 q 226 -47 194 -72 q 278 19 258 -22 l 13 713 l 233 713 l 379 274 l 524 713 l 724 713 l 485 25 z "},"z":{"ha":663,"x_min":31,"x_max":629,"o":"m 297 168 l 629 168 l 629 0 l 33 0 l 33 150 l 364 542 l 31 542 l 31 713 l 628 713 l 628 560 l 297 168 z "},"{":{"ha":483,"x_min":42,"x_max":440,"o":"m 386 776 q 320 757 346 776 q 294 701 294 738 q 303 655 294 676 q 324 610 313 633 q 344 562 335 588 q 353 503 353 536 q 344 451 353 474 q 321 410 335 428 q 292 381 307 393 q 264 365 276 369 q 292 349 276 361 q 322 320 308 338 q 344 279 335 303 q 353 228 353 256 q 344 169 353 194 q 324 120 335 143 q 303 76 313 97 q 294 29 294 54 q 320 -26 294 -7 q 386 -44 346 -44 l 440 -44 l 440 -221 l 318 -221 q 228 -206 269 -221 q 158 -166 188 -192 q 113 -103 129 -140 q 96 -22 96 -67 q 106 48 96 19 q 129 99 117 76 q 152 144 142 122 q 163 193 163 165 q 138 263 163 235 q 50 290 113 290 l 42 290 l 42 443 l 50 443 q 138 469 113 443 q 163 538 163 496 q 152 587 163 565 q 129 631 142 608 q 106 683 117 654 q 96 753 96 711 q 113 834 96 797 q 158 897 129 871 q 228 938 188 924 q 318 953 269 953 l 440 953 l 440 776 l 386 776 z "},"|":{"ha":271,"x_min":39,"x_max":233,"o":"m 39 -199 l 39 951 l 233 951 l 233 -199 l 39 -199 z "},"}":{"ha":483,"x_min":44,"x_max":443,"o":"m 99 -44 q 165 -25 139 -44 q 190 31 190 -6 q 181 77 190 56 q 161 122 172 99 q 141 170 150 144 q 132 229 132 196 q 141 281 132 258 q 164 322 150 304 q 193 351 178 339 q 221 367 208 363 q 192 383 208 371 q 163 412 176 394 q 141 453 150 429 q 132 504 132 476 q 141 563 132 538 q 161 612 150 589 q 181 656 172 635 q 190 703 190 678 q 165 758 190 739 q 99 776 139 776 l 44 776 l 44 953 l 167 953 q 256 938 215 953 q 326 898 297 924 q 372 835 356 872 q 389 754 389 799 q 378 683 389 713 q 356 631 368 654 q 333 588 343 608 q 322 539 322 567 q 347 469 322 497 q 435 442 372 442 l 443 442 l 443 289 l 435 289 q 347 263 372 289 q 322 194 322 236 q 333 145 322 167 q 356 101 343 124 q 378 49 368 78 q 389 -21 389 21 q 372 -102 389 -65 q 326 -165 356 -139 q 256 -206 297 -192 q 167 -221 215 -221 l 44 -221 l 44 -44 l 99 -44 z "},"~":{"ha":611,"x_min":25,"x_max":586,"o":"m 418 275 q 345 285 378 275 q 282 306 313 294 q 222 326 251 317 q 158 336 192 336 q 85 321 122 336 q 25 286 49 306 l 25 450 q 92 503 50 476 q 193 529 133 529 q 267 519 233 529 q 331 499 300 510 q 390 478 361 488 q 453 468 419 468 q 526 483 489 468 q 586 518 563 499 l 586 354 q 519 301 561 328 q 418 275 478 275 z "}," ":{"ha":264,"x_min":0,"x_max":0,"o":""},"¡":{"ha":303,"x_min":50,"x_max":243,"o":"m 243 951 l 243 758 l 50 758 l 50 951 l 243 951 m 50 700 l 243 700 l 243 0 l 50 0 l 50 700 z "},"¢":{"ha":814,"x_min":29,"x_max":803,"o":"m 518 179 q 590 219 561 192 q 640 283 618 247 l 801 181 q 685 54 756 106 q 518 -12 614 3 l 518 -129 l 365 -129 l 365 -12 q 228 35 290 0 q 122 124 165 71 q 53 244 78 176 q 29 386 29 311 q 53 528 29 461 q 122 649 78 596 q 228 738 165 703 q 365 786 290 774 l 365 907 l 518 907 l 518 786 q 687 717 617 769 q 803 589 757 665 l 640 486 q 590 551 618 522 q 518 592 561 579 l 518 179 m 365 586 q 274 512 307 564 q 240 386 240 460 q 274 259 240 311 q 365 185 307 207 l 365 586 z "},"£":{"ha":808,"x_min":44,"x_max":779,"o":"m 349 242 q 415 222 383 233 q 478 201 447 211 q 540 183 510 190 q 603 175 571 175 q 667 185 636 175 q 722 207 699 194 q 776 239 750 221 l 776 50 q 719 17 751 32 q 652 -6 692 4 q 561 -17 613 -17 q 465 -4 508 -17 q 380 23 421 8 q 300 50 339 38 q 218 63 261 63 q 153 52 185 63 q 97 29 121 42 q 44 -4 69 14 l 44 186 q 72 204 57 194 q 105 221 86 211 q 150 238 124 231 l 150 346 l 44 346 l 44 535 l 150 535 l 150 658 q 172 782 150 725 q 234 881 193 839 q 333 946 275 922 q 465 969 392 969 q 663 915 588 969 q 779 778 738 861 l 604 686 q 556 752 585 724 q 471 781 526 781 q 382 746 415 781 q 349 651 349 711 l 349 535 l 599 535 l 599 346 l 349 346 l 349 242 z "},"¥":{"ha":785,"x_min":6,"x_max":778,"o":"m 743 544 l 743 383 l 497 383 l 497 333 l 743 333 l 743 171 l 497 171 l 497 0 l 286 0 l 286 171 l 40 171 l 40 333 l 286 333 l 286 383 l 40 383 l 40 544 l 224 544 l 6 951 l 233 951 l 393 621 l 554 951 l 778 951 l 560 544 l 743 544 z "},"¦":{"ha":271,"x_min":39,"x_max":233,"o":"m 39 501 l 39 951 l 233 951 l 233 501 l 39 501 m 39 -199 l 39 250 l 233 250 l 233 -199 l 39 -199 z "},"§":{"ha":678,"x_min":26,"x_max":654,"o":"m 203 418 q 223 373 203 389 q 276 348 243 357 q 349 333 308 339 q 431 319 389 328 q 475 382 475 339 q 454 428 475 411 q 401 454 433 444 q 327 470 368 464 q 244 485 286 476 q 203 418 203 461 m 444 663 q 439 692 443 678 q 424 719 435 707 q 393 738 413 731 q 340 746 374 746 q 269 726 296 746 q 242 679 242 707 q 272 635 242 649 q 349 613 303 621 q 448 598 394 606 q 547 572 501 590 q 624 517 593 553 q 654 417 654 481 q 632 326 654 365 q 571 261 610 288 q 608 212 594 242 q 622 140 622 182 q 545 -18 622 40 q 336 -76 468 -76 q 214 -60 267 -76 q 124 -14 161 -43 q 68 56 88 15 q 47 143 49 96 l 229 143 q 235 113 231 128 q 251 87 239 99 q 283 67 263 75 q 338 60 304 60 q 410 78 383 60 q 436 124 436 96 q 406 169 436 156 q 330 192 375 183 q 231 208 285 200 q 133 235 178 215 q 57 291 88 254 q 26 393 26 328 q 48 481 26 443 q 110 546 69 519 q 72 596 86 567 q 58 667 58 625 q 78 753 58 714 q 133 822 97 793 q 222 867 169 851 q 342 883 275 883 q 549 823 476 883 q 628 663 621 763 l 444 663 z "},"¨":{"ha":556,"x_min":65,"x_max":490,"o":"m 65 772 l 65 951 l 251 951 l 251 772 l 65 772 m 304 772 l 304 951 l 490 951 l 490 772 l 304 772 z "},"©":{"ha":871,"x_min":28,"x_max":843,"o":"m 436 965 q 598 934 524 965 q 726 849 672 903 q 812 720 781 794 q 843 560 843 646 q 812 399 843 474 q 726 271 781 325 q 598 185 672 217 q 436 154 524 154 q 274 185 349 154 q 144 271 199 217 q 59 399 90 325 q 28 560 28 474 q 59 720 28 646 q 144 849 90 794 q 274 934 199 903 q 436 965 349 965 m 436 863 q 318 839 372 863 q 225 774 264 815 q 164 677 186 732 q 142 560 142 622 q 164 442 142 497 q 225 346 186 388 q 318 281 264 304 q 436 257 372 257 q 553 281 500 257 q 647 346 607 304 q 708 442 686 388 q 731 560 731 497 q 708 677 731 622 q 647 774 686 732 q 553 839 607 815 q 436 863 500 863 m 639 461 q 565 378 614 410 q 440 346 515 346 q 354 363 394 346 q 284 408 314 379 q 238 476 254 438 q 221 560 221 515 q 238 643 221 604 q 284 711 254 682 q 354 757 314 740 q 440 774 394 774 q 565 742 515 774 q 639 658 614 710 l 519 593 q 491 630 508 613 q 438 647 474 647 q 376 621 399 647 q 354 560 354 594 q 376 499 354 525 q 438 472 399 472 q 491 490 474 472 q 519 526 508 507 l 639 461 z "},"ª":{"ha":536,"x_min":28,"x_max":507,"o":"m 268 839 q 190 808 222 839 q 158 728 158 776 q 190 647 158 679 q 268 615 221 615 q 347 647 315 615 q 378 728 378 679 q 347 808 378 776 q 268 839 315 839 m 375 540 q 323 513 356 525 q 254 500 290 500 q 165 517 206 500 q 93 565 124 535 q 45 638 63 596 q 28 728 28 679 q 45 819 28 776 q 93 892 63 861 q 165 940 124 922 q 254 957 206 957 q 324 944 292 957 q 375 915 356 932 l 375 953 l 507 953 l 507 504 l 375 504 l 375 540 z "},"«":{"ha":735,"x_min":24,"x_max":669,"o":"m 389 86 l 206 86 l 24 397 l 206 714 l 389 714 l 206 397 l 389 86 m 669 86 l 485 86 l 299 397 l 485 714 l 669 714 l 482 397 l 669 86 z "},"®":{"ha":871,"x_min":28,"x_max":843,"o":"m 436 965 q 598 934 524 965 q 726 849 672 903 q 812 720 781 794 q 843 560 843 646 q 812 399 843 474 q 726 271 781 325 q 598 185 672 217 q 436 154 524 154 q 274 185 349 154 q 144 271 199 217 q 58 399 89 325 q 28 560 28 474 q 58 720 28 646 q 144 849 89 794 q 274 934 199 903 q 436 965 349 965 m 436 863 q 318 839 372 863 q 225 774 264 815 q 164 677 186 732 q 142 560 142 622 q 164 442 142 497 q 225 346 186 388 q 318 281 264 304 q 436 257 372 257 q 553 281 500 257 q 647 346 607 304 q 708 442 686 388 q 731 560 731 497 q 708 677 731 622 q 647 774 686 732 q 553 839 607 815 q 436 863 500 863 m 571 628 q 478 601 504 628 q 453 529 453 575 l 453 363 l 319 363 l 319 757 l 451 757 l 451 710 q 497 745 467 728 q 571 763 528 763 l 571 628 z "},"¯":{"ha":556,"x_min":86,"x_max":469,"o":"m 86 793 l 86 964 l 469 964 l 469 793 l 86 793 z "},"°":{"ha":533,"x_min":22,"x_max":511,"o":"m 267 960 q 366 941 321 960 q 443 890 411 922 q 493 813 475 857 q 511 719 511 769 q 493 626 511 669 q 443 551 475 583 q 366 499 411 518 q 267 481 321 481 q 168 499 213 481 q 91 551 124 518 q 40 626 58 583 q 22 719 22 669 q 40 813 22 769 q 91 890 58 857 q 168 941 124 922 q 267 960 213 960 m 267 819 q 197 792 224 819 q 171 719 171 764 q 197 647 171 676 q 264 618 222 618 q 334 647 307 618 q 361 719 361 676 q 335 792 361 764 q 267 819 308 819 z "},"±":{"ha":611,"x_min":25,"x_max":586,"o":"m 586 585 l 586 410 l 396 410 l 396 215 l 215 215 l 215 410 l 25 410 l 25 585 l 215 585 l 215 781 l 396 781 l 396 585 l 586 585 m 25 0 l 25 171 l 586 171 l 586 0 l 25 0 z "},"²":{"ha":444,"x_min":14,"x_max":425,"o":"m 14 839 q 97 926 46 892 q 225 960 149 960 q 372 910 319 960 q 424 789 424 861 q 417 733 424 758 q 393 682 410 707 q 351 631 376 657 q 288 572 325 604 l 219 519 l 425 519 l 425 408 l 36 408 l 36 515 l 219 669 q 275 724 256 700 q 294 779 294 747 q 275 826 294 808 q 222 843 256 843 q 162 824 186 843 q 118 776 138 806 l 14 839 z "},"³":{"ha":460,"x_min":22,"x_max":438,"o":"m 308 764 q 403 706 368 750 q 438 599 438 663 q 422 520 438 557 q 379 456 407 483 q 313 414 351 429 q 225 399 274 399 q 100 431 150 399 q 22 518 50 464 l 129 581 q 167 532 144 550 q 226 514 190 514 q 288 537 265 514 q 310 596 310 560 q 287 651 310 631 q 226 671 264 671 q 165 653 192 671 l 108 740 l 247 838 l 57 838 l 57 951 l 403 951 l 403 832 l 308 764 z "},"´":{"ha":556,"x_min":121,"x_max":446,"o":"m 121 760 l 121 931 l 446 1010 l 446 835 l 121 760 z "},"¶":{"ha":692,"x_min":28,"x_max":651,"o":"m 339 0 l 339 343 q 217 365 274 343 q 118 428 160 388 q 52 524 76 468 q 28 649 28 581 q 52 769 28 714 q 118 865 76 825 q 217 928 160 906 q 339 951 274 951 l 458 951 l 458 0 l 339 0 m 531 0 l 531 951 l 651 951 l 651 0 l 531 0 z "},"·":{"ha":279,"x_min":39,"x_max":239,"o":"m 39 293 l 39 494 l 239 494 l 239 293 l 39 293 z "},"¸":{"ha":556,"x_min":129,"x_max":401,"o":"m 278 -58 q 367 -91 333 -58 q 401 -176 401 -124 q 365 -265 401 -228 q 265 -301 328 -301 q 169 -265 206 -301 q 129 -176 132 -229 l 228 -176 q 241 -202 231 -192 q 267 -212 251 -212 q 293 -202 282 -212 q 304 -176 304 -192 q 294 -149 304 -160 q 267 -139 283 -139 l 161 -139 l 229 13 l 313 13 l 278 -58 z "},"¹":{"ha":242,"x_min":19,"x_max":217,"o":"m 83 408 l 83 829 l 19 829 l 19 951 l 217 951 l 217 408 l 83 408 z "},"º":{"ha":517,"x_min":24,"x_max":503,"o":"m 263 961 q 357 943 313 961 q 433 894 401 925 q 484 819 465 863 q 503 728 503 776 q 484 635 503 678 q 433 561 465 593 q 357 511 401 529 q 263 493 313 493 q 169 511 213 493 q 93 561 125 529 q 42 635 61 593 q 24 728 24 678 q 42 819 24 776 q 93 894 61 863 q 169 943 125 925 q 263 961 213 961 m 263 836 q 185 805 217 836 q 154 725 154 774 q 185 647 154 679 q 263 615 217 615 q 341 647 310 615 q 372 725 372 679 q 341 805 372 774 q 263 836 310 836 z "},"»":{"ha":692,"x_min":24,"x_max":669,"o":"m 303 714 l 486 714 l 669 397 l 486 86 l 303 86 l 485 397 l 303 714 m 24 714 l 206 714 l 393 397 l 206 86 l 24 86 l 210 397 l 24 714 z "},"¼":{"ha":1006,"x_min":19,"x_max":964,"o":"m 83 408 l 83 829 l 19 829 l 19 951 l 217 951 l 217 408 l 83 408 m 964 217 l 964 104 l 911 104 l 911 0 l 782 0 l 782 104 l 529 104 l 529 217 l 765 546 l 911 546 l 911 217 l 964 217 m 782 217 l 782 375 l 668 217 l 782 217 m 144 0 l 569 951 l 753 951 l 328 0 l 144 0 z "},"½":{"ha":1025,"x_min":19,"x_max":994,"o":"m 83 408 l 83 829 l 19 829 l 19 951 l 217 951 l 217 408 l 83 408 m 583 431 q 667 517 615 483 q 794 551 718 551 q 941 502 889 551 q 993 381 993 453 q 986 324 993 350 q 963 274 979 299 q 920 222 946 249 q 857 164 894 196 l 789 111 l 994 111 l 994 0 l 606 0 l 606 107 l 789 261 q 844 315 825 292 q 864 371 864 339 q 844 417 864 400 q 792 435 825 435 q 731 416 756 435 q 688 368 707 397 l 583 431 m 144 0 l 569 951 l 753 951 l 328 0 l 144 0 z "},"¾":{"ha":1172,"x_min":22,"x_max":1131,"o":"m 308 764 q 403 706 368 750 q 438 599 438 663 q 422 520 438 557 q 379 456 407 483 q 313 414 351 429 q 225 399 274 399 q 100 431 150 399 q 22 518 50 464 l 129 581 q 167 532 144 550 q 226 514 190 514 q 288 537 265 514 q 310 596 310 560 q 287 651 310 631 q 226 671 264 671 q 165 653 192 671 l 108 740 l 247 838 l 57 838 l 57 951 l 403 951 l 403 832 l 308 764 m 1131 217 l 1131 104 l 1078 104 l 1078 0 l 949 0 l 949 104 l 696 104 l 696 217 l 932 546 l 1078 546 l 1078 217 l 1131 217 m 949 217 l 949 375 l 835 217 l 949 217 m 311 0 l 736 951 l 919 951 l 494 0 l 311 0 z "},"¿":{"ha":674,"x_min":26,"x_max":664,"o":"m 461 951 l 461 758 l 268 758 l 268 951 l 461 951 m 664 269 q 565 66 649 143 q 340 -11 482 -11 q 207 13 265 -11 q 108 78 149 38 q 47 174 68 119 q 26 290 26 229 q 93 484 26 407 q 268 586 160 561 l 268 700 l 461 700 l 461 446 q 369 441 414 446 q 289 419 324 436 q 233 373 254 403 q 213 293 213 343 q 249 199 213 235 q 344 163 286 163 q 438 193 407 163 q 481 269 469 224 l 664 269 z "},"À":{"ha":951,"x_min":8,"x_max":943,"o":"m 469 726 l 346 354 l 593 354 l 469 726 m 657 164 l 283 164 l 229 0 l 8 0 l 344 951 l 608 951 l 943 0 l 711 0 l 657 164 m 631 993 l 306 1069 l 306 1243 l 631 1164 l 631 993 z "},"Á":{"ha":951,"x_min":8,"x_max":943,"o":"m 469 726 l 346 354 l 593 354 l 469 726 m 657 164 l 283 164 l 229 0 l 8 0 l 344 951 l 608 951 l 943 0 l 711 0 l 657 164 m 319 999 l 319 1169 l 644 1249 l 644 1074 l 319 999 z "},"Â":{"ha":951,"x_min":8,"x_max":943,"o":"m 469 726 l 346 354 l 593 354 l 469 726 m 657 164 l 283 164 l 229 0 l 8 0 l 344 951 l 608 951 l 943 0 l 711 0 l 657 164 m 681 1001 l 476 1054 l 272 1001 l 272 1143 l 476 1218 l 681 1143 l 681 1001 z "},"Ã":{"ha":951,"x_min":8,"x_max":943,"o":"m 469 726 l 346 354 l 593 354 l 469 726 m 657 164 l 283 164 l 229 0 l 8 0 l 344 951 l 608 951 l 943 0 l 711 0 l 657 164 m 588 1150 q 646 1163 618 1150 q 688 1188 674 1176 l 688 1060 q 638 1019 672 1040 q 561 999 603 999 q 506 1006 531 999 q 459 1021 482 1013 q 414 1036 436 1029 q 367 1043 392 1043 q 308 1030 336 1043 q 267 1006 281 1017 l 267 1133 q 317 1174 282 1153 q 393 1194 351 1194 q 448 1188 424 1194 q 495 1172 472 1181 q 540 1157 518 1164 q 588 1150 563 1150 z "},"Ä":{"ha":951,"x_min":8,"x_max":943,"o":"m 469 726 l 346 354 l 593 354 l 469 726 m 657 164 l 283 164 l 229 0 l 8 0 l 344 951 l 608 951 l 943 0 l 711 0 l 657 164 m 264 1011 l 264 1190 l 450 1190 l 450 1011 l 264 1011 m 503 1011 l 503 1190 l 689 1190 l 689 1011 l 503 1011 z "},"Å":{"ha":951,"x_min":8,"x_max":943,"o":"m 469 726 l 346 354 l 593 354 l 469 726 m 657 164 l 283 164 l 229 0 l 8 0 l 344 951 l 608 951 l 943 0 l 711 0 l 657 164 m 476 1290 q 533 1279 506 1290 q 579 1249 560 1268 q 610 1204 599 1231 q 622 1147 622 1178 q 610 1089 622 1115 q 579 1044 599 1063 q 533 1014 560 1025 q 476 1003 507 1003 q 420 1014 447 1003 q 374 1044 393 1025 q 342 1089 354 1063 q 331 1147 331 1115 q 342 1204 331 1178 q 374 1249 354 1231 q 420 1279 393 1268 q 476 1290 447 1290 m 476 1201 q 440 1186 454 1201 q 425 1147 425 1171 q 440 1108 425 1124 q 476 1093 454 1093 q 513 1108 499 1093 q 528 1147 528 1124 q 513 1186 528 1171 q 476 1201 499 1201 z "},"Æ":{"ha":1311,"x_min":10,"x_max":1274,"o":"m 483 740 l 350 351 l 608 351 l 483 740 m 669 163 l 285 163 l 229 0 l 10 0 l 356 951 l 1272 951 l 1272 757 l 693 757 l 754 578 l 1236 578 l 1236 389 l 818 389 l 885 194 l 1274 194 l 1274 0 l 722 0 l 669 163 z "},"Ç":{"ha":999,"x_min":36,"x_max":974,"o":"m 540 -301 q 444 -265 481 -301 q 404 -176 407 -229 l 503 -176 q 516 -202 506 -192 q 542 -212 526 -212 q 568 -202 557 -212 q 579 -176 579 -192 q 569 -149 579 -160 q 542 -139 558 -139 l 436 -139 l 492 -17 q 309 35 393 -7 q 165 142 225 76 q 70 294 104 208 q 36 478 36 379 q 75 672 36 582 q 181 828 114 761 q 342 933 249 894 q 543 971 435 971 q 793 913 685 971 q 969 733 901 854 l 799 615 q 694 728 757 685 q 539 771 631 771 q 426 748 478 771 q 337 685 375 725 q 277 592 299 646 q 256 478 256 539 q 277 361 256 415 q 338 267 299 307 q 430 205 376 228 q 546 182 483 182 q 699 224 633 182 q 806 336 765 265 l 974 219 q 808 49 907 111 q 572 -19 708 -14 l 553 -58 q 642 -91 608 -58 q 676 -176 676 -124 q 640 -265 676 -228 q 540 -301 603 -301 z "},"È":{"ha":793,"x_min":58,"x_max":756,"o":"m 58 951 l 754 951 l 754 757 l 274 757 l 274 578 l 718 578 l 718 389 l 274 389 l 274 194 l 756 194 l 756 0 l 58 0 l 58 951 m 558 993 l 233 1069 l 233 1243 l 558 1164 l 558 993 z "},"É":{"ha":793,"x_min":58,"x_max":756,"o":"m 58 951 l 754 951 l 754 757 l 274 757 l 274 578 l 718 578 l 718 389 l 274 389 l 274 194 l 756 194 l 756 0 l 58 0 l 58 951 m 247 999 l 247 1169 l 572 1249 l 572 1074 l 247 999 z "},"Ê":{"ha":793,"x_min":58,"x_max":756,"o":"m 58 951 l 754 951 l 754 757 l 274 757 l 274 578 l 718 578 l 718 389 l 274 389 l 274 194 l 756 194 l 756 0 l 58 0 l 58 951 m 608 1001 l 404 1054 l 200 1001 l 200 1143 l 404 1218 l 608 1143 l 608 1001 z "},"Ë":{"ha":793,"x_min":58,"x_max":756,"o":"m 58 951 l 754 951 l 754 757 l 274 757 l 274 578 l 718 578 l 718 389 l 274 389 l 274 194 l 756 194 l 756 0 l 58 0 l 58 951 m 192 1011 l 192 1190 l 378 1190 l 378 1011 l 192 1011 m 431 1011 l 431 1190 l 617 1190 l 617 1011 l 431 1011 z "},"Ì":{"ha":331,"x_min":-4,"x_max":321,"o":"m 58 0 l 58 951 l 274 951 l 274 0 l 58 0 m 321 993 l -4 1069 l -4 1243 l 321 1164 l 321 993 z "},"Í":{"ha":331,"x_min":10,"x_max":335,"o":"m 58 0 l 58 951 l 274 951 l 274 0 l 58 0 m 10 999 l 10 1169 l 335 1249 l 335 1074 l 10 999 z "},"Î":{"ha":331,"x_min":-37,"x_max":371,"o":"m 58 0 l 58 951 l 274 951 l 274 0 l 58 0 m 371 1001 l 167 1054 l -37 1001 l -37 1143 l 167 1218 l 371 1143 l 371 1001 z "},"Ï":{"ha":331,"x_min":-46,"x_max":379,"o":"m 58 0 l 58 951 l 274 951 l 274 0 l 58 0 m -46 1011 l -46 1190 l 140 1190 l 140 1011 l -46 1011 m 193 1011 l 193 1190 l 379 1190 l 379 1011 l 193 1011 z "},"Ð":{"ha":982,"x_min":3,"x_max":946,"o":"m 72 0 l 72 386 l 3 386 l 3 568 l 72 568 l 72 951 l 461 951 q 660 915 571 951 q 813 815 750 878 q 911 665 876 751 q 946 481 946 579 q 910 292 946 381 q 808 140 874 204 q 652 38 743 75 q 450 0 561 0 l 72 0 m 457 197 q 565 218 515 197 q 651 276 614 239 q 708 365 688 314 q 729 478 729 417 q 708 588 729 538 q 650 676 688 639 q 561 733 613 713 q 450 754 510 754 l 288 754 l 288 568 l 467 568 l 467 386 l 288 386 l 288 197 l 457 197 z "},"Ñ":{"ha":942,"x_min":58,"x_max":883,"o":"m 265 603 l 265 0 l 58 0 l 58 951 l 293 951 l 676 347 l 676 951 l 883 951 l 883 0 l 649 0 l 265 603 m 582 1150 q 640 1163 613 1150 q 682 1188 668 1176 l 682 1060 q 632 1019 667 1040 q 556 999 597 999 q 501 1006 525 999 q 453 1021 476 1013 q 408 1036 431 1029 q 361 1043 386 1043 q 303 1030 331 1043 q 261 1006 275 1017 l 261 1133 q 311 1174 276 1153 q 388 1194 346 1194 q 442 1188 418 1194 q 490 1172 467 1181 q 535 1157 513 1164 q 582 1150 557 1150 z "},"Ò":{"ha":1081,"x_min":36,"x_max":1044,"o":"m 540 -19 q 344 18 436 -19 q 184 122 253 56 q 76 279 115 189 q 36 475 36 369 q 76 672 36 581 q 184 829 115 763 q 344 933 253 896 q 540 971 436 971 q 740 933 647 971 q 899 829 832 896 q 1006 672 967 763 q 1044 476 1044 582 q 1006 279 1044 369 q 899 122 967 189 q 740 18 832 56 q 540 -19 647 -19 m 540 181 q 652 203 600 181 q 743 266 704 226 q 803 360 782 306 q 825 476 825 414 q 803 592 825 539 q 743 685 782 646 q 652 748 704 725 q 540 771 600 771 q 428 748 479 771 q 338 685 376 725 q 277 592 299 646 q 256 475 256 538 q 277 358 256 413 q 338 265 299 304 q 428 203 376 225 q 540 181 479 181 m 694 993 l 369 1069 l 369 1243 l 694 1164 l 694 993 z "},"Ó":{"ha":1081,"x_min":36,"x_max":1044,"o":"m 540 -19 q 344 18 436 -19 q 184 122 253 56 q 76 279 115 189 q 36 475 36 369 q 76 672 36 581 q 184 829 115 763 q 344 933 253 896 q 540 971 436 971 q 740 933 647 971 q 899 829 832 896 q 1006 672 967 763 q 1044 476 1044 582 q 1006 279 1044 369 q 899 122 967 189 q 740 18 832 56 q 540 -19 647 -19 m 540 181 q 652 203 600 181 q 743 266 704 226 q 803 360 782 306 q 825 476 825 414 q 803 592 825 539 q 743 685 782 646 q 652 748 704 725 q 540 771 600 771 q 428 748 479 771 q 338 685 376 725 q 277 592 299 646 q 256 475 256 538 q 277 358 256 413 q 338 265 299 304 q 428 203 376 225 q 540 181 479 181 m 383 999 l 383 1169 l 708 1249 l 708 1074 l 383 999 z "},"Ô":{"ha":1081,"x_min":36,"x_max":1044,"o":"m 540 -19 q 344 18 436 -19 q 184 122 253 56 q 76 279 115 189 q 36 475 36 369 q 76 672 36 581 q 184 829 115 763 q 344 933 253 896 q 540 971 436 971 q 740 933 647 971 q 899 829 832 896 q 1006 672 967 763 q 1044 476 1044 582 q 1006 279 1044 369 q 899 122 967 189 q 740 18 832 56 q 540 -19 647 -19 m 540 181 q 652 203 600 181 q 743 266 704 226 q 803 360 782 306 q 825 476 825 414 q 803 592 825 539 q 743 685 782 646 q 652 748 704 725 q 540 771 600 771 q 428 748 479 771 q 338 685 376 725 q 277 592 299 646 q 256 475 256 538 q 277 358 256 413 q 338 265 299 304 q 428 203 376 225 q 540 181 479 181 m 744 1001 l 540 1054 l 336 1001 l 336 1143 l 540 1218 l 744 1143 l 744 1001 z "},"Õ":{"ha":1081,"x_min":36,"x_max":1044,"o":"m 540 -19 q 344 18 436 -19 q 184 122 253 56 q 76 279 115 189 q 36 475 36 369 q 76 672 36 581 q 184 829 115 763 q 344 933 253 896 q 540 971 436 971 q 740 933 647 971 q 899 829 832 896 q 1006 672 967 763 q 1044 476 1044 582 q 1006 279 1044 369 q 899 122 967 189 q 740 18 832 56 q 540 -19 647 -19 m 540 181 q 652 203 600 181 q 743 266 704 226 q 803 360 782 306 q 825 476 825 414 q 803 592 825 539 q 743 685 782 646 q 652 748 704 725 q 540 771 600 771 q 428 748 479 771 q 338 685 376 725 q 277 592 299 646 q 256 475 256 538 q 277 358 256 413 q 338 265 299 304 q 428 203 376 225 q 540 181 479 181 m 651 1150 q 710 1163 682 1150 q 751 1188 738 1176 l 751 1060 q 701 1019 736 1040 q 625 999 667 999 q 570 1006 594 999 q 523 1021 546 1013 q 478 1036 500 1029 q 431 1043 456 1043 q 372 1030 400 1043 q 331 1006 344 1017 l 331 1133 q 381 1174 346 1153 q 457 1194 415 1194 q 512 1188 488 1194 q 559 1172 536 1181 q 604 1157 582 1164 q 651 1150 626 1150 z "},"Ö":{"ha":1081,"x_min":36,"x_max":1044,"o":"m 540 -19 q 344 18 436 -19 q 184 122 253 56 q 76 279 115 189 q 36 475 36 369 q 76 672 36 581 q 184 829 115 763 q 344 933 253 896 q 540 971 436 971 q 740 933 647 971 q 899 829 832 896 q 1006 672 967 763 q 1044 476 1044 582 q 1006 279 1044 369 q 899 122 967 189 q 740 18 832 56 q 540 -19 647 -19 m 540 181 q 652 203 600 181 q 743 266 704 226 q 803 360 782 306 q 825 476 825 414 q 803 592 825 539 q 743 685 782 646 q 652 748 704 725 q 540 771 600 771 q 428 748 479 771 q 338 685 376 725 q 277 592 299 646 q 256 475 256 538 q 277 358 256 413 q 338 265 299 304 q 428 203 376 225 q 540 181 479 181 m 328 1011 l 328 1190 l 514 1190 l 514 1011 l 328 1011 m 567 1011 l 567 1190 l 753 1190 l 753 1011 l 567 1011 z "},"×":{"ha":579,"x_min":15,"x_max":563,"o":"m 421 396 l 563 247 l 425 108 l 289 251 l 154 108 l 15 247 l 154 396 l 15 544 l 156 681 l 289 540 l 424 681 l 563 544 l 421 396 z "},"Ø":{"ha":1081,"x_min":36,"x_max":1044,"o":"m 256 475 q 274 366 256 417 q 328 276 293 315 l 646 751 q 540 771 596 771 q 428 748 479 771 q 338 685 376 725 q 277 592 299 646 q 256 475 256 538 m 540 181 q 652 203 600 181 q 743 266 704 226 q 803 360 782 306 q 825 476 825 414 q 806 585 825 535 q 753 675 788 636 l 433 201 q 540 181 483 181 m 540 -19 q 424 -7 481 -19 q 318 29 368 6 l 261 -56 l 106 -56 l 210 99 q 83 263 129 167 q 36 475 36 358 q 76 672 36 581 q 184 829 115 763 q 344 933 253 896 q 540 971 436 971 q 763 924 660 971 l 818 1007 l 976 1007 l 872 853 q 999 690 953 786 q 1044 476 1044 593 q 1006 279 1044 369 q 899 122 967 189 q 740 18 832 56 q 540 -19 647 -19 z "},"Ù":{"ha":925,"x_min":53,"x_max":872,"o":"m 465 -17 q 288 12 365 -17 q 159 92 211 40 q 80 217 107 144 q 53 378 53 289 l 53 951 l 268 951 l 268 407 q 319 241 268 299 q 464 183 369 183 q 607 241 557 183 q 657 407 657 299 l 657 951 l 872 951 l 872 378 q 846 217 872 289 q 767 92 819 144 q 640 12 715 40 q 465 -17 564 -17 m 618 993 l 293 1069 l 293 1243 l 618 1164 l 618 993 z "},"Ú":{"ha":925,"x_min":53,"x_max":872,"o":"m 465 -17 q 288 12 365 -17 q 159 92 211 40 q 80 217 107 144 q 53 378 53 289 l 53 951 l 268 951 l 268 407 q 319 241 268 299 q 464 183 369 183 q 607 241 557 183 q 657 407 657 299 l 657 951 l 872 951 l 872 378 q 846 217 872 289 q 767 92 819 144 q 640 12 715 40 q 465 -17 564 -17 m 307 999 l 307 1169 l 632 1249 l 632 1074 l 307 999 z "},"Û":{"ha":925,"x_min":53,"x_max":872,"o":"m 465 -17 q 288 12 365 -17 q 159 92 211 40 q 80 217 107 144 q 53 378 53 289 l 53 951 l 268 951 l 268 407 q 319 241 268 299 q 464 183 369 183 q 607 241 557 183 q 657 407 657 299 l 657 951 l 872 951 l 872 378 q 846 217 872 289 q 767 92 819 144 q 640 12 715 40 q 465 -17 564 -17 m 668 1001 l 464 1054 l 260 1001 l 260 1143 l 464 1218 l 668 1143 l 668 1001 z "},"Ü":{"ha":925,"x_min":53,"x_max":872,"o":"m 465 -17 q 288 12 365 -17 q 159 92 211 40 q 80 217 107 144 q 53 378 53 289 l 53 951 l 268 951 l 268 407 q 319 241 268 299 q 464 183 369 183 q 607 241 557 183 q 657 407 657 299 l 657 951 l 872 951 l 872 378 q 846 217 872 289 q 767 92 819 144 q 640 12 715 40 q 465 -17 564 -17 m 251 1011 l 251 1190 l 438 1190 l 438 1011 l 251 1011 m 490 1011 l 490 1190 l 676 1190 l 676 1011 l 490 1011 z "},"Ý":{"ha":932,"x_min":13,"x_max":921,"o":"m 358 0 l 358 356 l 13 951 l 250 951 l 469 551 l 690 951 l 921 951 l 575 354 l 575 0 l 358 0 m 310 999 l 310 1169 l 635 1249 l 635 1074 l 310 999 z "},"Þ":{"ha":842,"x_min":58,"x_max":807,"o":"m 274 133 l 274 0 l 58 0 l 58 951 l 274 951 l 274 819 l 468 819 q 612 793 549 819 q 719 721 675 767 q 785 614 763 675 q 807 483 807 553 q 783 347 807 410 q 712 235 758 283 q 599 160 665 188 q 449 133 532 133 l 274 133 m 274 622 l 274 331 l 443 331 q 551 372 513 331 q 590 478 590 413 q 551 583 590 543 q 436 622 511 622 l 274 622 z "},"ß":{"ha":689,"x_min":39,"x_max":657,"o":"m 39 679 q 62 789 39 739 q 125 875 85 839 q 220 932 165 911 q 339 953 275 953 q 455 934 401 953 q 548 881 508 915 q 610 799 588 847 q 633 692 633 751 q 605 578 633 626 q 539 506 576 531 q 581 472 560 492 q 619 425 603 451 q 647 365 636 399 q 657 290 657 332 q 634 172 657 225 q 569 81 611 119 q 471 21 528 42 q 347 0 414 0 l 288 0 l 288 172 l 344 172 q 431 208 399 172 q 464 294 464 244 q 434 378 464 344 q 350 413 404 413 l 288 413 l 288 585 l 350 585 q 422 614 397 585 q 447 683 447 643 q 419 753 447 725 q 342 782 390 782 q 260 752 289 782 q 231 674 231 722 l 231 0 l 39 0 l 39 679 z "},"à":{"ha":826,"x_min":26,"x_max":788,"o":"m 403 544 q 328 529 363 544 q 269 488 294 514 q 230 427 244 463 q 215 353 215 392 q 230 278 215 313 q 269 217 244 243 q 328 176 294 190 q 403 161 363 161 q 480 176 444 161 q 542 217 515 190 q 583 278 568 243 q 597 353 597 313 q 582 427 597 392 q 540 488 567 463 q 478 529 514 514 q 403 544 443 544 m 594 53 q 502 7 557 24 q 386 -10 447 -10 q 247 18 313 -10 q 133 94 182 46 q 56 209 85 143 q 26 353 26 275 q 56 497 26 429 q 133 613 85 564 q 247 691 182 663 q 386 719 313 719 q 502 702 447 719 q 594 656 557 685 l 594 713 l 788 713 l 788 0 l 594 0 l 594 53 m 556 754 l 231 831 l 231 1004 l 556 925 l 556 754 z "},"á":{"ha":826,"x_min":26,"x_max":788,"o":"m 403 544 q 328 529 363 544 q 269 488 294 514 q 230 427 244 463 q 215 353 215 392 q 230 278 215 313 q 269 217 244 243 q 328 176 294 190 q 403 161 363 161 q 480 176 444 161 q 542 217 515 190 q 583 278 568 243 q 597 353 597 313 q 582 427 597 392 q 540 488 567 463 q 478 529 514 514 q 403 544 443 544 m 594 53 q 502 7 557 24 q 386 -10 447 -10 q 247 18 313 -10 q 133 94 182 46 q 56 209 85 143 q 26 353 26 275 q 56 497 26 429 q 133 613 85 564 q 247 691 182 663 q 386 719 313 719 q 502 702 447 719 q 594 656 557 685 l 594 713 l 788 713 l 788 0 l 594 0 l 594 53 m 244 760 l 244 931 l 569 1010 l 569 835 l 244 760 z "},"â":{"ha":826,"x_min":26,"x_max":788,"o":"m 403 544 q 328 529 363 544 q 269 488 294 514 q 230 427 244 463 q 215 353 215 392 q 230 278 215 313 q 269 217 244 243 q 328 176 294 190 q 403 161 363 161 q 480 176 444 161 q 542 217 515 190 q 583 278 568 243 q 597 353 597 313 q 582 427 597 392 q 540 488 567 463 q 478 529 514 514 q 403 544 443 544 m 594 53 q 502 7 557 24 q 386 -10 447 -10 q 247 18 313 -10 q 133 94 182 46 q 56 209 85 143 q 26 353 26 275 q 56 497 26 429 q 133 613 85 564 q 247 691 182 663 q 386 719 313 719 q 502 702 447 719 q 594 656 557 685 l 594 713 l 788 713 l 788 0 l 594 0 l 594 53 m 606 763 l 401 815 l 197 763 l 197 904 l 401 979 l 606 904 l 606 763 z "},"ã":{"ha":826,"x_min":26,"x_max":788,"o":"m 403 544 q 328 529 363 544 q 269 488 294 514 q 230 427 244 463 q 215 353 215 392 q 230 278 215 313 q 269 217 244 243 q 328 176 294 190 q 403 161 363 161 q 480 176 444 161 q 542 217 515 190 q 583 278 568 243 q 597 353 597 313 q 582 427 597 392 q 540 488 567 463 q 478 529 514 514 q 403 544 443 544 m 594 53 q 502 7 557 24 q 386 -10 447 -10 q 247 18 313 -10 q 133 94 182 46 q 56 209 85 143 q 26 353 26 275 q 56 497 26 429 q 133 613 85 564 q 247 691 182 663 q 386 719 313 719 q 502 702 447 719 q 594 656 557 685 l 594 713 l 788 713 l 788 0 l 594 0 l 594 53 m 513 911 q 571 924 543 911 q 613 949 599 938 l 613 821 q 563 781 597 801 q 486 760 528 760 q 431 767 456 760 q 384 782 407 774 q 339 797 361 790 q 292 804 317 804 q 233 791 261 804 q 192 767 206 778 l 192 894 q 242 935 207 914 q 318 956 276 956 q 373 949 349 956 q 420 933 397 942 q 465 918 443 925 q 513 911 488 911 z "},"ä":{"ha":826,"x_min":26,"x_max":788,"o":"m 403 544 q 328 529 363 544 q 269 488 294 514 q 230 427 244 463 q 215 353 215 392 q 230 278 215 313 q 269 217 244 243 q 328 176 294 190 q 403 161 363 161 q 480 176 444 161 q 542 217 515 190 q 583 278 568 243 q 597 353 597 313 q 582 427 597 392 q 540 488 567 463 q 478 529 514 514 q 403 544 443 544 m 594 53 q 502 7 557 24 q 386 -10 447 -10 q 247 18 313 -10 q 133 94 182 46 q 56 209 85 143 q 26 353 26 275 q 56 497 26 429 q 133 613 85 564 q 247 691 182 663 q 386 719 313 719 q 502 702 447 719 q 594 656 557 685 l 594 713 l 788 713 l 788 0 l 594 0 l 594 53 m 189 772 l 189 951 l 375 951 l 375 772 l 189 772 m 428 772 l 428 951 l 614 951 l 614 772 l 428 772 z "},"å":{"ha":826,"x_min":26,"x_max":788,"o":"m 403 544 q 328 529 363 544 q 269 488 294 514 q 230 427 244 463 q 215 353 215 392 q 230 278 215 313 q 269 217 244 243 q 328 176 294 190 q 403 161 363 161 q 480 176 444 161 q 542 217 515 190 q 583 278 568 243 q 597 353 597 313 q 582 427 597 392 q 540 488 567 463 q 478 529 514 514 q 403 544 443 544 m 594 53 q 502 7 557 24 q 386 -10 447 -10 q 247 18 313 -10 q 133 94 182 46 q 56 209 85 143 q 26 353 26 275 q 56 497 26 429 q 133 613 85 564 q 247 691 182 663 q 386 719 313 719 q 502 702 447 719 q 594 656 557 685 l 594 713 l 788 713 l 788 0 l 594 0 l 594 53 m 401 1051 q 458 1040 431 1051 q 504 1010 485 1029 q 535 965 524 992 q 547 908 547 939 q 535 850 547 876 q 504 805 524 824 q 458 775 485 786 q 401 764 432 764 q 345 775 372 764 q 299 805 318 786 q 267 850 279 824 q 256 908 256 876 q 267 965 256 939 q 299 1010 279 992 q 345 1040 318 1029 q 401 1051 372 1051 m 401 963 q 365 947 379 963 q 350 908 350 932 q 365 869 350 885 q 401 854 379 854 q 438 869 424 854 q 453 908 453 885 q 438 947 453 932 q 401 963 424 963 z "},"æ":{"ha":1374,"x_min":26,"x_max":1347,"o":"m 789 651 q 808 667 793 656 q 847 692 822 679 q 908 714 872 704 q 992 724 944 724 q 1141 697 1075 724 q 1253 622 1207 669 q 1323 508 1299 574 q 1347 364 1347 442 q 1347 341 1347 353 q 1344 319 1346 329 q 1343 297 1343 307 l 800 297 q 865 188 815 229 q 990 147 915 147 q 1101 173 1056 147 q 1178 242 1147 199 l 1324 154 q 1190 30 1271 75 q 990 -15 1110 -15 q 908 -5 944 -15 q 847 19 872 6 q 808 44 822 32 q 789 58 793 56 l 789 0 l 596 0 l 596 63 q 576 47 592 58 q 535 22 561 35 q 472 -1 508 8 q 388 -11 435 -11 q 244 16 310 -11 q 129 92 178 43 q 53 207 81 140 q 26 353 26 274 q 53 499 26 432 q 129 617 81 567 q 244 695 178 667 q 388 724 310 724 q 472 713 435 724 q 535 690 508 703 q 576 665 561 678 q 596 649 592 653 l 596 713 l 789 713 l 789 651 m 1150 439 q 1095 530 1139 493 q 985 567 1051 567 q 871 534 918 567 q 804 439 824 501 l 1150 439 m 404 157 q 482 172 446 157 q 544 212 518 186 q 585 274 571 238 q 600 353 600 310 q 586 431 600 396 q 547 493 572 467 q 485 534 521 519 q 408 549 450 549 q 331 534 367 549 q 270 493 296 519 q 231 431 244 467 q 217 353 217 396 q 268 212 217 267 q 404 157 319 157 z "},"ç":{"ha":754,"x_min":26,"x_max":736,"o":"m 403 -301 q 306 -265 343 -301 q 267 -176 269 -229 l 365 -176 q 378 -202 368 -192 q 404 -212 389 -212 q 431 -202 419 -212 q 442 -176 442 -192 q 431 -149 442 -160 q 404 -139 421 -139 l 299 -139 l 354 -14 q 221 26 281 -6 q 117 106 161 57 q 50 219 74 156 q 26 354 26 282 q 54 500 26 432 q 132 618 82 568 q 251 697 182 668 q 403 726 319 726 q 603 675 521 726 q 736 540 686 624 l 585 446 q 517 520 557 490 q 410 550 476 550 q 273 496 325 550 q 221 354 221 442 q 273 212 221 267 q 410 157 325 157 q 517 187 476 157 q 585 261 557 217 l 735 165 q 614 40 688 89 q 436 -15 540 -8 l 415 -58 q 505 -91 471 -58 q 539 -176 539 -124 q 502 -265 539 -228 q 403 -301 465 -301 z "},"è":{"ha":792,"x_min":26,"x_max":764,"o":"m 739 153 q 603 28 686 74 q 401 -17 521 -17 q 247 12 315 -17 q 128 90 178 40 q 53 207 79 139 q 26 354 26 275 q 53 499 26 431 q 131 617 81 567 q 250 697 181 668 q 403 726 319 726 q 554 699 488 726 q 667 622 621 671 q 739 508 714 574 q 764 364 764 442 q 763 321 764 343 q 761 296 761 299 l 217 296 q 281 188 232 228 q 406 147 331 147 q 517 173 471 147 q 594 242 564 199 l 739 153 m 401 568 q 288 534 333 568 q 224 439 243 500 l 569 439 q 507 536 554 504 q 401 568 460 568 m 556 754 l 231 831 l 231 1004 l 556 925 l 556 754 z "},"é":{"ha":792,"x_min":26,"x_max":764,"o":"m 739 153 q 603 28 686 74 q 401 -17 521 -17 q 247 12 315 -17 q 128 90 178 40 q 53 207 79 139 q 26 354 26 275 q 53 499 26 431 q 131 617 81 567 q 250 697 181 668 q 403 726 319 726 q 554 699 488 726 q 667 622 621 671 q 739 508 714 574 q 764 364 764 442 q 763 321 764 343 q 761 296 761 299 l 217 296 q 281 188 232 228 q 406 147 331 147 q 517 173 471 147 q 594 242 564 199 l 739 153 m 401 568 q 288 534 333 568 q 224 439 243 500 l 569 439 q 507 536 554 504 q 401 568 460 568 m 244 760 l 244 931 l 569 1010 l 569 835 l 244 760 z "},"ê":{"ha":792,"x_min":26,"x_max":764,"o":"m 739 153 q 603 28 686 74 q 401 -17 521 -17 q 247 12 315 -17 q 128 90 178 40 q 53 207 79 139 q 26 354 26 275 q 53 499 26 431 q 131 617 81 567 q 250 697 181 668 q 403 726 319 726 q 554 699 488 726 q 667 622 621 671 q 739 508 714 574 q 764 364 764 442 q 763 321 764 343 q 761 296 761 299 l 217 296 q 281 188 232 228 q 406 147 331 147 q 517 173 471 147 q 594 242 564 199 l 739 153 m 401 568 q 288 534 333 568 q 224 439 243 500 l 569 439 q 507 536 554 504 q 401 568 460 568 m 606 763 l 401 815 l 197 763 l 197 904 l 401 979 l 606 904 l 606 763 z "},"ë":{"ha":792,"x_min":26,"x_max":764,"o":"m 739 153 q 603 28 686 74 q 401 -17 521 -17 q 247 12 315 -17 q 128 90 178 40 q 53 207 79 139 q 26 354 26 275 q 53 499 26 431 q 131 617 81 567 q 250 697 181 668 q 403 726 319 726 q 554 699 488 726 q 667 622 621 671 q 739 508 714 574 q 764 364 764 442 q 763 321 764 343 q 761 296 761 299 l 217 296 q 281 188 232 228 q 406 147 331 147 q 517 173 471 147 q 594 242 564 199 l 739 153 m 401 568 q 288 534 333 568 q 224 439 243 500 l 569 439 q 507 536 554 504 q 401 568 460 568 m 189 772 l 189 951 l 375 951 l 375 772 l 189 772 m 428 772 l 428 951 l 614 951 l 614 772 l 428 772 z "},"ì":{"ha":271,"x_min":-33,"x_max":292,"o":"m 39 0 l 39 713 l 232 713 l 232 0 l 39 0 m 292 754 l -33 831 l -33 1004 l 292 925 l 292 754 z "},"í":{"ha":271,"x_min":-19,"x_max":306,"o":"m 39 0 l 39 713 l 232 713 l 232 0 l 39 0 m -19 760 l -19 931 l 306 1010 l 306 835 l -19 760 z "},"î":{"ha":271,"x_min":-67,"x_max":342,"o":"m 39 0 l 39 713 l 232 713 l 232 0 l 39 0 m 342 763 l 138 815 l -67 763 l -67 904 l 138 979 l 342 904 l 342 763 z "},"ï":{"ha":271,"x_min":-75,"x_max":350,"o":"m 39 0 l 39 713 l 232 713 l 232 0 l 39 0 m -75 772 l -75 951 l 111 951 l 111 772 l -75 772 m 164 772 l 164 951 l 350 951 l 350 772 l 164 772 z "},"ð":{"ha":806,"x_min":26,"x_max":776,"o":"m 731 538 q 766 444 756 489 q 776 351 776 399 q 747 208 776 275 q 665 92 717 142 q 545 13 614 42 q 399 -15 476 -15 q 249 12 317 -15 q 131 88 181 39 q 54 204 82 138 q 26 350 26 271 q 53 495 26 429 q 130 610 81 561 q 247 685 179 658 q 393 713 314 713 q 425 710 410 713 q 442 707 440 707 l 418 754 l 311 739 l 311 863 l 360 869 l 319 951 l 519 951 l 549 896 l 668 913 l 668 789 l 607 781 l 731 538 m 400 156 q 536 209 485 156 q 588 349 588 263 q 537 488 588 435 q 401 540 486 540 q 265 488 317 540 q 214 349 214 435 q 265 209 214 263 q 400 156 315 156 z "},"ñ":{"ha":750,"x_min":39,"x_max":711,"o":"m 229 640 q 308 698 256 671 q 436 725 361 725 q 549 704 499 725 q 636 646 600 683 q 692 555 672 608 q 711 438 711 501 l 711 0 l 519 0 l 519 404 q 485 508 519 468 q 389 547 451 547 q 275 506 318 547 q 232 389 232 464 l 232 0 l 39 0 l 39 713 l 229 713 l 229 640 m 486 911 q 544 924 517 911 q 586 949 572 938 l 586 821 q 536 781 571 801 q 460 760 501 760 q 405 767 429 760 q 358 782 381 774 q 313 797 335 790 q 265 804 290 804 q 207 791 235 804 q 165 767 179 778 l 165 894 q 215 935 181 914 q 292 956 250 956 q 347 949 322 956 q 394 933 371 942 q 439 918 417 925 q 486 911 461 911 z "},"ò":{"ha":815,"x_min":26,"x_max":792,"o":"m 408 726 q 560 697 490 726 q 682 618 631 668 q 763 500 733 568 q 792 354 792 432 q 763 209 792 276 q 682 92 733 142 q 560 13 631 42 q 408 -17 490 -17 q 256 12 326 -17 q 135 90 186 40 q 55 208 83 140 q 26 354 26 276 q 56 500 26 432 q 135 618 85 568 q 256 697 186 668 q 408 726 326 726 m 408 551 q 333 537 368 551 q 272 496 297 522 q 231 433 246 469 q 217 354 217 397 q 231 275 217 311 q 269 213 244 239 q 329 171 294 186 q 404 156 364 156 q 481 171 444 156 q 543 213 517 186 q 585 275 569 239 q 600 354 600 311 q 585 433 600 397 q 545 496 571 469 q 484 537 519 522 q 408 551 449 551 m 563 754 l 238 831 l 238 1004 l 563 925 l 563 754 z "},"ó":{"ha":815,"x_min":26,"x_max":792,"o":"m 408 726 q 560 697 490 726 q 682 618 631 668 q 763 500 733 568 q 792 354 792 432 q 763 209 792 276 q 682 92 733 142 q 560 13 631 42 q 408 -17 490 -17 q 256 12 326 -17 q 135 90 186 40 q 55 208 83 140 q 26 354 26 276 q 56 500 26 432 q 135 618 85 568 q 256 697 186 668 q 408 726 326 726 m 408 551 q 333 537 368 551 q 272 496 297 522 q 231 433 246 469 q 217 354 217 397 q 231 275 217 311 q 269 213 244 239 q 329 171 294 186 q 404 156 364 156 q 481 171 444 156 q 543 213 517 186 q 585 275 569 239 q 600 354 600 311 q 585 433 600 397 q 545 496 571 469 q 484 537 519 522 q 408 551 449 551 m 251 760 l 251 931 l 576 1010 l 576 835 l 251 760 z "},"ô":{"ha":815,"x_min":26,"x_max":792,"o":"m 408 726 q 560 697 490 726 q 682 618 631 668 q 763 500 733 568 q 792 354 792 432 q 763 209 792 276 q 682 92 733 142 q 560 13 631 42 q 408 -17 490 -17 q 256 12 326 -17 q 135 90 186 40 q 55 208 83 140 q 26 354 26 276 q 56 500 26 432 q 135 618 85 568 q 256 697 186 668 q 408 726 326 726 m 408 551 q 333 537 368 551 q 272 496 297 522 q 231 433 246 469 q 217 354 217 397 q 231 275 217 311 q 269 213 244 239 q 329 171 294 186 q 404 156 364 156 q 481 171 444 156 q 543 213 517 186 q 585 275 569 239 q 600 354 600 311 q 585 433 600 397 q 545 496 571 469 q 484 537 519 522 q 408 551 449 551 m 613 763 l 408 815 l 204 763 l 204 904 l 408 979 l 613 904 l 613 763 z "},"õ":{"ha":815,"x_min":26,"x_max":792,"o":"m 408 726 q 560 697 490 726 q 682 618 631 668 q 763 500 733 568 q 792 354 792 432 q 763 209 792 276 q 682 92 733 142 q 560 13 631 42 q 408 -17 490 -17 q 256 12 326 -17 q 135 90 186 40 q 55 208 83 140 q 26 354 26 276 q 56 500 26 432 q 135 618 85 568 q 256 697 186 668 q 408 726 326 726 m 408 551 q 333 537 368 551 q 272 496 297 522 q 231 433 246 469 q 217 354 217 397 q 231 275 217 311 q 269 213 244 239 q 329 171 294 186 q 404 156 364 156 q 481 171 444 156 q 543 213 517 186 q 585 275 569 239 q 600 354 600 311 q 585 433 600 397 q 545 496 571 469 q 484 537 519 522 q 408 551 449 551 m 519 911 q 578 924 550 911 q 619 949 606 938 l 619 821 q 569 781 604 801 q 493 760 535 760 q 438 767 463 760 q 391 782 414 774 q 346 797 368 790 q 299 804 324 804 q 240 791 268 804 q 199 767 213 778 l 199 894 q 249 935 214 914 q 325 956 283 956 q 380 949 356 956 q 427 933 404 942 q 472 918 450 925 q 519 911 494 911 z "},"ö":{"ha":815,"x_min":26,"x_max":792,"o":"m 408 726 q 560 697 490 726 q 682 618 631 668 q 763 500 733 568 q 792 354 792 432 q 763 209 792 276 q 682 92 733 142 q 560 13 631 42 q 408 -17 490 -17 q 256 12 326 -17 q 135 90 186 40 q 55 208 83 140 q 26 354 26 276 q 56 500 26 432 q 135 618 85 568 q 256 697 186 668 q 408 726 326 726 m 408 551 q 333 537 368 551 q 272 496 297 522 q 231 433 246 469 q 217 354 217 397 q 231 275 217 311 q 269 213 244 239 q 329 171 294 186 q 404 156 364 156 q 481 171 444 156 q 543 213 517 186 q 585 275 569 239 q 600 354 600 311 q 585 433 600 397 q 545 496 571 469 q 484 537 519 522 q 408 551 449 551 m 196 772 l 196 951 l 382 951 l 382 772 l 196 772 m 435 772 l 435 951 l 621 951 l 621 772 l 435 772 z "},"÷":{"ha":611,"x_min":25,"x_max":586,"o":"m 208 519 l 208 701 l 403 701 l 403 519 l 208 519 m 25 304 l 25 486 l 586 486 l 586 304 l 25 304 m 208 90 l 208 272 l 403 272 l 403 90 l 208 90 z "},"ø":{"ha":815,"x_min":26,"x_max":789,"o":"m 463 540 q 407 550 439 550 q 332 535 367 550 q 272 494 297 521 q 231 433 246 468 q 217 354 217 397 q 228 281 217 314 q 261 225 240 249 l 463 540 m 369 160 q 403 156 386 156 q 479 171 443 156 q 542 213 515 186 q 583 275 568 239 q 599 354 599 311 q 590 414 599 386 q 567 465 582 442 l 369 160 m 669 628 q 758 508 726 578 q 789 354 789 438 q 760 209 789 276 q 680 92 731 142 q 559 13 629 42 q 407 -17 489 -17 q 338 -11 371 -17 q 272 6 304 -6 l 233 -56 l 82 -56 l 161 67 q 62 192 97 118 q 26 354 26 267 q 56 500 26 432 q 135 618 85 568 q 256 697 186 668 q 407 726 325 726 q 563 696 489 726 l 608 768 l 758 768 l 669 628 z "},"ù":{"ha":750,"x_min":39,"x_max":711,"o":"m 521 0 l 521 71 q 432 10 485 32 q 314 -12 379 -12 q 201 8 251 -12 q 114 67 150 29 q 58 157 78 104 q 39 275 39 210 l 39 713 l 231 713 l 231 308 q 265 205 231 244 q 363 165 300 165 q 476 207 433 165 q 519 324 519 249 l 519 713 l 711 713 l 711 0 l 521 0 m 529 754 l 204 831 l 204 1004 l 529 925 l 529 754 z "},"ú":{"ha":750,"x_min":39,"x_max":711,"o":"m 521 0 l 521 71 q 432 10 485 32 q 314 -12 379 -12 q 201 8 251 -12 q 114 67 150 29 q 58 157 78 104 q 39 275 39 210 l 39 713 l 231 713 l 231 308 q 265 205 231 244 q 363 165 300 165 q 476 207 433 165 q 519 324 519 249 l 519 713 l 711 713 l 711 0 l 521 0 m 218 760 l 218 931 l 543 1010 l 543 835 l 218 760 z "},"û":{"ha":750,"x_min":39,"x_max":711,"o":"m 521 0 l 521 71 q 432 10 485 32 q 314 -12 379 -12 q 201 8 251 -12 q 114 67 150 29 q 58 157 78 104 q 39 275 39 210 l 39 713 l 231 713 l 231 308 q 265 205 231 244 q 363 165 300 165 q 476 207 433 165 q 519 324 519 249 l 519 713 l 711 713 l 711 0 l 521 0 m 579 763 l 375 815 l 171 763 l 171 904 l 375 979 l 579 904 l 579 763 z "},"ü":{"ha":750,"x_min":39,"x_max":711,"o":"m 521 0 l 521 71 q 432 10 485 32 q 314 -12 379 -12 q 201 8 251 -12 q 114 67 150 29 q 58 157 78 104 q 39 275 39 210 l 39 713 l 231 713 l 231 308 q 265 205 231 244 q 363 165 300 165 q 476 207 433 165 q 519 324 519 249 l 519 713 l 711 713 l 711 0 l 521 0 m 163 772 l 163 951 l 349 951 l 349 772 l 163 772 m 401 772 l 401 951 l 588 951 l 588 772 l 401 772 z "},"ý":{"ha":736,"x_min":13,"x_max":724,"o":"m 485 25 q 430 -97 460 -46 q 361 -182 400 -149 q 272 -231 322 -215 q 157 -246 222 -246 l 88 -246 l 88 -72 l 146 -72 q 226 -47 194 -72 q 278 19 258 -22 l 13 713 l 233 713 l 379 274 l 524 713 l 724 713 l 485 25 m 211 760 l 211 931 l 536 1010 l 536 835 l 211 760 z "},"þ":{"ha":826,"x_min":39,"x_max":800,"o":"m 424 544 q 347 530 382 544 q 285 489 311 515 q 244 428 258 463 q 229 353 229 393 q 244 278 229 313 q 286 217 260 243 q 348 176 313 192 q 424 161 383 161 q 497 176 463 161 q 557 217 532 192 q 597 278 582 243 q 611 353 611 313 q 597 428 611 393 q 557 489 582 463 q 497 530 532 515 q 424 544 463 544 m 440 -10 q 324 8 379 -10 q 232 54 269 25 l 232 -244 l 39 -244 l 39 951 l 232 951 l 232 657 q 324 703 269 686 q 440 719 379 719 q 578 692 513 719 q 693 615 644 664 q 771 500 742 567 q 800 357 800 433 q 771 213 800 279 q 693 97 742 146 q 578 19 644 47 q 440 -10 513 -10 z "},"ÿ":{"ha":736,"x_min":13,"x_max":724,"o":"m 485 25 q 430 -97 460 -46 q 361 -182 400 -149 q 272 -231 322 -215 q 157 -246 222 -246 l 88 -246 l 88 -72 l 146 -72 q 226 -47 194 -72 q 278 19 258 -22 l 13 713 l 233 713 l 379 274 l 524 713 l 724 713 l 485 25 m 156 772 l 156 951 l 342 951 l 342 772 l 156 772 m 394 772 l 394 951 l 581 951 l 581 772 l 394 772 z "},"Ā":{"ha":951,"x_min":8,"x_max":943,"o":"m 469 726 l 346 354 l 593 354 l 469 726 m 657 164 l 283 164 l 229 0 l 8 0 l 344 951 l 608 951 l 943 0 l 711 0 l 657 164 m 285 1032 l 285 1203 l 668 1203 l 668 1032 l 285 1032 z "},"ā":{"ha":826,"x_min":26,"x_max":788,"o":"m 403 544 q 328 529 363 544 q 269 488 294 514 q 230 427 244 463 q 215 353 215 392 q 230 278 215 313 q 269 217 244 243 q 328 176 294 190 q 403 161 363 161 q 480 176 444 161 q 542 217 515 190 q 583 278 568 243 q 597 353 597 313 q 582 427 597 392 q 540 488 567 463 q 478 529 514 514 q 403 544 443 544 m 594 53 q 502 7 557 24 q 386 -10 447 -10 q 247 18 313 -10 q 133 94 182 46 q 56 209 85 143 q 26 353 26 275 q 56 497 26 429 q 133 613 85 564 q 247 691 182 663 q 386 719 313 719 q 502 702 447 719 q 594 656 557 685 l 594 713 l 788 713 l 788 0 l 594 0 l 594 53 m 210 793 l 210 964 l 593 964 l 593 793 l 210 793 z "},"Ă":{"ha":951,"x_min":8,"x_max":943,"o":"m 469 726 l 346 354 l 593 354 l 469 726 m 657 164 l 283 164 l 229 0 l 8 0 l 344 951 l 608 951 l 943 0 l 711 0 l 657 164 m 476 1157 q 545 1163 513 1157 q 604 1179 578 1169 q 649 1199 631 1189 q 679 1217 668 1208 l 679 1079 q 653 1054 671 1068 q 610 1028 636 1040 q 551 1007 585 1015 q 476 999 518 999 q 401 1007 435 999 q 342 1028 368 1015 q 299 1054 317 1040 q 274 1079 282 1068 l 274 1217 q 303 1199 283 1208 q 349 1179 322 1189 q 408 1163 375 1169 q 476 1157 440 1157 z "},"ă":{"ha":826,"x_min":26,"x_max":788,"o":"m 403 544 q 328 529 363 544 q 269 488 294 514 q 230 427 244 463 q 215 353 215 392 q 230 278 215 313 q 269 217 244 243 q 328 176 294 190 q 403 161 363 161 q 480 176 444 161 q 542 217 515 190 q 583 278 568 243 q 597 353 597 313 q 582 427 597 392 q 540 488 567 463 q 478 529 514 514 q 403 544 443 544 m 594 53 q 502 7 557 24 q 386 -10 447 -10 q 247 18 313 -10 q 133 94 182 46 q 56 209 85 143 q 26 353 26 275 q 56 497 26 429 q 133 613 85 564 q 247 691 182 663 q 386 719 313 719 q 502 702 447 719 q 594 656 557 685 l 594 713 l 788 713 l 788 0 l 594 0 l 594 53 m 401 918 q 470 924 438 918 q 529 940 503 931 q 574 960 556 950 q 604 978 593 969 l 604 840 q 578 815 596 829 q 535 789 561 801 q 476 768 510 776 q 401 760 443 760 q 326 768 360 760 q 267 789 293 776 q 224 815 242 801 q 199 840 207 829 l 199 978 q 228 960 208 969 q 274 940 247 950 q 333 924 300 931 q 401 918 365 918 z "},"Ą":{"ha":951,"x_min":8,"x_max":943,"o":"m 469 726 l 346 354 l 593 354 l 469 726 m 913 -229 q 889 -242 903 -236 q 860 -251 878 -247 q 819 -254 842 -254 q 716 -221 754 -254 q 678 -135 678 -187 q 705 -53 678 -89 q 774 0 732 -17 l 711 0 l 657 164 l 283 164 l 229 0 l 8 0 l 344 951 l 608 951 l 943 0 l 868 0 q 811 -48 829 -19 q 793 -106 793 -76 q 849 -156 793 -156 q 875 -154 864 -156 q 894 -150 886 -153 q 913 -143 904 -147 l 913 -229 z "},"ą":{"ha":826,"x_min":26,"x_max":788,"o":"m 403 544 q 328 529 363 544 q 269 488 294 514 q 230 427 244 463 q 215 353 215 392 q 230 278 215 313 q 269 217 244 243 q 328 176 294 190 q 403 161 363 161 q 480 176 444 161 q 542 217 515 190 q 583 278 568 243 q 597 353 597 313 q 582 427 597 392 q 540 488 567 463 q 478 529 514 514 q 403 544 443 544 m 788 -229 q 764 -242 778 -236 q 735 -251 753 -247 q 694 -254 717 -254 q 591 -221 629 -254 q 553 -135 553 -187 q 580 -53 553 -89 q 649 0 607 -17 l 594 0 l 594 53 q 502 7 557 24 q 386 -10 447 -10 q 247 18 313 -10 q 133 94 182 46 q 56 209 85 143 q 26 353 26 275 q 56 497 26 429 q 133 613 85 564 q 247 691 182 663 q 386 719 313 719 q 502 702 447 719 q 594 656 557 685 l 594 713 l 788 713 l 788 0 l 743 0 q 686 -48 704 -19 q 668 -106 668 -76 q 724 -156 668 -156 q 750 -154 739 -156 q 769 -150 761 -153 q 788 -143 779 -147 l 788 -229 z "},"Ć":{"ha":999,"x_min":36,"x_max":974,"o":"m 539 771 q 426 748 478 771 q 337 685 375 725 q 277 592 299 646 q 256 478 256 539 q 277 361 256 415 q 338 267 299 307 q 430 205 376 228 q 546 182 483 182 q 699 224 633 182 q 806 336 765 265 l 974 219 q 799 44 904 107 q 549 -19 694 -19 q 345 19 439 -19 q 183 124 251 57 q 75 283 114 192 q 36 478 36 374 q 75 672 36 582 q 181 828 114 761 q 342 933 249 894 q 543 971 435 971 q 793 913 685 971 q 969 733 901 854 l 799 615 q 694 728 757 685 q 539 771 631 771 m 383 999 l 383 1169 l 708 1249 l 708 1074 l 383 999 z "},"ć":{"ha":754,"x_min":26,"x_max":736,"o":"m 735 165 q 602 33 683 82 q 403 -17 521 -17 q 251 13 319 -17 q 132 92 182 42 q 54 209 82 142 q 26 354 26 276 q 54 500 26 432 q 132 618 82 568 q 251 697 182 668 q 403 726 319 726 q 603 675 521 726 q 736 540 686 624 l 585 446 q 517 520 557 490 q 410 550 476 550 q 273 496 325 550 q 221 354 221 442 q 273 212 221 267 q 410 157 325 157 q 517 187 476 157 q 585 261 557 217 l 735 165 m 243 760 l 243 931 l 568 1010 l 568 835 l 243 760 z "},"Ĉ":{"ha":999,"x_min":36,"x_max":974,"o":"m 539 771 q 426 748 478 771 q 337 685 375 725 q 277 592 299 646 q 256 478 256 539 q 277 361 256 415 q 338 267 299 307 q 430 205 376 228 q 546 182 483 182 q 699 224 633 182 q 806 336 765 265 l 974 219 q 799 44 904 107 q 549 -19 694 -19 q 345 19 439 -19 q 183 124 251 57 q 75 283 114 192 q 36 478 36 374 q 75 672 36 582 q 181 828 114 761 q 342 933 249 894 q 543 971 435 971 q 793 913 685 971 q 969 733 901 854 l 799 615 q 694 728 757 685 q 539 771 631 771 m 744 1001 l 540 1054 l 336 1001 l 336 1143 l 540 1218 l 744 1143 l 744 1001 z "},"ĉ":{"ha":754,"x_min":26,"x_max":736,"o":"m 735 165 q 602 33 683 82 q 403 -17 521 -17 q 251 13 319 -17 q 132 92 182 42 q 54 209 82 142 q 26 354 26 276 q 54 500 26 432 q 132 618 82 568 q 251 697 182 668 q 403 726 319 726 q 603 675 521 726 q 736 540 686 624 l 585 446 q 517 520 557 490 q 410 550 476 550 q 273 496 325 550 q 221 354 221 442 q 273 212 221 267 q 410 157 325 157 q 517 187 476 157 q 585 261 557 217 l 735 165 m 604 763 l 400 815 l 196 763 l 196 904 l 400 979 l 604 904 l 604 763 z "},"Ċ":{"ha":999,"x_min":36,"x_max":974,"o":"m 539 771 q 426 748 478 771 q 337 685 375 725 q 277 592 299 646 q 256 478 256 539 q 277 361 256 415 q 338 267 299 307 q 430 205 376 228 q 546 182 483 182 q 699 224 633 182 q 806 336 765 265 l 974 219 q 799 44 904 107 q 549 -19 694 -19 q 345 19 439 -19 q 183 124 251 57 q 75 283 114 192 q 36 478 36 374 q 75 672 36 582 q 181 828 114 761 q 342 933 249 894 q 543 971 435 971 q 793 913 685 971 q 969 733 901 854 l 799 615 q 694 728 757 685 q 539 771 631 771 m 443 1013 l 443 1190 l 638 1190 l 638 1013 l 443 1013 z "},"ċ":{"ha":754,"x_min":26,"x_max":736,"o":"m 735 165 q 602 33 683 82 q 403 -17 521 -17 q 251 13 319 -17 q 132 92 182 42 q 54 209 82 142 q 26 354 26 276 q 54 500 26 432 q 132 618 82 568 q 251 697 182 668 q 403 726 319 726 q 603 675 521 726 q 736 540 686 624 l 585 446 q 517 520 557 490 q 410 550 476 550 q 273 496 325 550 q 221 354 221 442 q 273 212 221 267 q 410 157 325 157 q 517 187 476 157 q 585 261 557 217 l 735 165 m 303 774 l 303 951 l 497 951 l 497 774 l 303 774 z "},"Č":{"ha":999,"x_min":36,"x_max":974,"o":"m 539 771 q 426 748 478 771 q 337 685 375 725 q 277 592 299 646 q 256 478 256 539 q 277 361 256 415 q 338 267 299 307 q 430 205 376 228 q 546 182 483 182 q 699 224 633 182 q 806 336 765 265 l 974 219 q 799 44 904 107 q 549 -19 694 -19 q 345 19 439 -19 q 183 124 251 57 q 75 283 114 192 q 36 478 36 374 q 75 672 36 582 q 181 828 114 761 q 342 933 249 894 q 543 971 435 971 q 793 913 685 971 q 969 733 901 854 l 799 615 q 694 728 757 685 q 539 771 631 771 m 540 994 l 336 1069 l 336 1213 l 540 1158 l 744 1213 l 744 1069 l 540 994 z "},"č":{"ha":754,"x_min":26,"x_max":736,"o":"m 735 165 q 602 33 683 82 q 403 -17 521 -17 q 251 13 319 -17 q 132 92 182 42 q 54 209 82 142 q 26 354 26 276 q 54 500 26 432 q 132 618 82 568 q 251 697 182 668 q 403 726 319 726 q 603 675 521 726 q 736 540 686 624 l 585 446 q 517 520 557 490 q 410 550 476 550 q 273 496 325 550 q 221 354 221 442 q 273 212 221 267 q 410 157 325 157 q 517 187 476 157 q 585 261 557 217 l 735 165 m 400 756 l 196 831 l 196 974 l 400 919 l 604 974 l 604 831 l 400 756 z "},"Ď":{"ha":968,"x_min":58,"x_max":932,"o":"m 58 951 l 447 951 q 647 915 557 951 q 799 815 736 878 q 897 665 863 751 q 932 481 932 579 q 896 292 932 381 q 794 140 860 204 q 638 38 729 75 q 436 0 547 0 l 58 0 l 58 951 m 274 754 l 274 197 l 443 197 q 551 218 501 197 q 637 276 600 239 q 694 365 674 314 q 715 478 715 417 q 694 588 715 538 q 636 676 674 639 q 547 733 599 713 q 436 754 496 754 l 274 754 m 485 994 l 281 1069 l 281 1213 l 485 1158 l 689 1213 l 689 1069 l 485 994 z "},"ď":{"ha":1113,"x_min":26,"x_max":1074,"o":"m 1074 789 l 1011 617 l 876 617 l 928 750 l 875 750 l 875 951 l 1074 951 l 1074 789 l 1074 789 m 403 161 q 480 176 444 161 q 542 217 515 190 q 583 278 568 243 q 597 353 597 313 q 582 427 597 392 q 540 488 567 463 q 478 529 514 514 q 403 544 443 544 q 328 529 363 544 q 269 488 294 514 q 230 427 244 463 q 215 353 215 392 q 230 278 215 313 q 269 217 244 243 q 328 176 294 190 q 403 161 363 161 m 594 53 q 502 7 557 24 q 386 -10 447 -10 q 247 18 313 -10 q 133 94 182 46 q 56 209 85 143 q 26 353 26 275 q 56 497 26 429 q 133 613 85 564 q 247 691 182 663 q 386 719 313 719 q 502 702 447 719 q 594 656 557 685 l 594 951 l 788 951 l 788 0 l 594 0 l 594 53 z "},"Đ":{"ha":982,"x_min":3,"x_max":946,"o":"m 72 0 l 72 386 l 3 386 l 3 568 l 72 568 l 72 951 l 461 951 q 660 915 571 951 q 813 815 750 878 q 911 665 876 751 q 946 481 946 579 q 910 292 946 381 q 808 140 874 204 q 652 38 743 75 q 450 0 561 0 l 72 0 m 457 197 q 565 218 515 197 q 651 276 614 239 q 708 365 688 314 q 729 478 729 417 q 708 588 729 538 q 650 676 688 639 q 561 733 613 713 q 450 754 510 754 l 288 754 l 288 568 l 467 568 l 467 386 l 288 386 l 288 197 l 457 197 z "},"đ":{"ha":826,"x_min":26,"x_max":819,"o":"m 396 147 q 480 163 442 147 q 546 207 518 179 q 589 272 574 235 q 604 351 604 308 q 588 431 604 393 q 544 496 572 468 q 478 540 517 524 q 396 556 440 556 q 318 540 354 556 q 255 496 282 524 q 213 431 228 468 q 197 351 197 393 q 213 272 197 308 q 255 207 228 235 q 318 163 282 179 q 396 147 354 147 m 776 746 l 776 0 l 601 0 l 601 51 q 544 19 576 33 q 477 -1 517 8 q 388 -11 438 -11 q 249 17 314 -11 q 134 94 183 44 q 56 209 85 143 q 26 351 26 275 q 56 494 26 428 q 134 611 85 561 q 249 690 183 661 q 388 718 314 718 q 476 708 436 718 q 544 686 517 697 q 601 656 578 672 l 601 746 l 442 746 l 442 894 l 601 894 l 601 951 l 776 951 l 776 894 l 819 894 l 819 746 l 776 746 z "},"Ē":{"ha":793,"x_min":58,"x_max":756,"o":"m 58 951 l 754 951 l 754 757 l 274 757 l 274 578 l 718 578 l 718 389 l 274 389 l 274 194 l 756 194 l 756 0 l 58 0 l 58 951 m 213 1032 l 213 1203 l 596 1203 l 596 1032 l 213 1032 z "},"ē":{"ha":792,"x_min":26,"x_max":764,"o":"m 739 153 q 603 28 686 74 q 401 -17 521 -17 q 247 12 315 -17 q 128 90 178 40 q 53 207 79 139 q 26 354 26 275 q 53 499 26 431 q 131 617 81 567 q 250 697 181 668 q 403 726 319 726 q 554 699 488 726 q 667 622 621 671 q 739 508 714 574 q 764 364 764 442 q 763 321 764 343 q 761 296 761 299 l 217 296 q 281 188 232 228 q 406 147 331 147 q 517 173 471 147 q 594 242 564 199 l 739 153 m 401 568 q 288 534 333 568 q 224 439 243 500 l 569 439 q 507 536 554 504 q 401 568 460 568 m 210 793 l 210 964 l 593 964 l 593 793 l 210 793 z "},"Ĕ":{"ha":793,"x_min":58,"x_max":756,"o":"m 58 951 l 754 951 l 754 757 l 274 757 l 274 578 l 718 578 l 718 389 l 274 389 l 274 194 l 756 194 l 756 0 l 58 0 l 58 951 m 404 1157 q 473 1163 440 1157 q 532 1179 506 1169 q 577 1199 558 1189 q 607 1217 596 1208 l 607 1079 q 581 1054 599 1068 q 538 1028 564 1040 q 479 1007 513 1015 q 404 999 446 999 q 329 1007 363 999 q 270 1028 296 1015 q 227 1054 244 1040 q 201 1079 210 1068 l 201 1217 q 231 1199 211 1208 q 276 1179 250 1189 q 335 1163 303 1169 q 404 1157 368 1157 z "},"ĕ":{"ha":792,"x_min":26,"x_max":764,"o":"m 739 153 q 603 28 686 74 q 401 -17 521 -17 q 247 12 315 -17 q 128 90 178 40 q 53 207 79 139 q 26 354 26 275 q 53 499 26 431 q 131 617 81 567 q 250 697 181 668 q 403 726 319 726 q 554 699 488 726 q 667 622 621 671 q 739 508 714 574 q 764 364 764 442 q 763 321 764 343 q 761 296 761 299 l 217 296 q 281 188 232 228 q 406 147 331 147 q 517 173 471 147 q 594 242 564 199 l 739 153 m 401 568 q 288 534 333 568 q 224 439 243 500 l 569 439 q 507 536 554 504 q 401 568 460 568 m 401 918 q 470 924 438 918 q 529 940 503 931 q 574 960 556 950 q 604 978 593 969 l 604 840 q 578 815 596 829 q 535 789 561 801 q 476 768 510 776 q 401 760 443 760 q 326 768 360 760 q 267 789 293 776 q 224 815 242 801 q 199 840 207 829 l 199 978 q 228 960 208 969 q 274 940 247 950 q 333 924 300 931 q 401 918 365 918 z "},"Ė":{"ha":793,"x_min":58,"x_max":756,"o":"m 58 951 l 754 951 l 754 757 l 274 757 l 274 578 l 718 578 l 718 389 l 274 389 l 274 194 l 756 194 l 756 0 l 58 0 l 58 951 m 307 1013 l 307 1190 l 501 1190 l 501 1013 l 307 1013 z "},"ė":{"ha":792,"x_min":26,"x_max":764,"o":"m 739 153 q 603 28 686 74 q 401 -17 521 -17 q 247 12 315 -17 q 128 90 178 40 q 53 207 79 139 q 26 354 26 275 q 53 499 26 431 q 131 617 81 567 q 250 697 181 668 q 403 726 319 726 q 554 699 488 726 q 667 622 621 671 q 739 508 714 574 q 764 364 764 442 q 763 321 764 343 q 761 296 761 299 l 217 296 q 281 188 232 228 q 406 147 331 147 q 517 173 471 147 q 594 242 564 199 l 739 153 m 401 568 q 288 534 333 568 q 224 439 243 500 l 569 439 q 507 536 554 504 q 401 568 460 568 m 304 774 l 304 951 l 499 951 l 499 774 l 304 774 z "},"Ę":{"ha":793,"x_min":58,"x_max":756,"o":"m 750 -229 q 726 -242 740 -236 q 697 -251 715 -247 q 657 -254 679 -254 q 553 -221 592 -254 q 515 -135 515 -187 q 542 -53 515 -89 q 611 0 569 -17 l 58 0 l 58 951 l 754 951 l 754 757 l 274 757 l 274 578 l 718 578 l 718 389 l 274 389 l 274 194 l 756 194 l 756 0 l 706 0 q 649 -48 667 -19 q 631 -106 631 -76 q 686 -156 631 -156 q 713 -154 701 -156 q 732 -150 724 -153 q 750 -143 742 -147 l 750 -229 l 750 -229 z "},"ę":{"ha":792,"x_min":26,"x_max":764,"o":"m 488 -254 q 384 -221 422 -254 q 346 -135 346 -187 q 364 -67 346 -99 q 410 -17 382 -36 l 401 -17 q 247 12 315 -17 q 128 90 178 40 q 53 207 79 139 q 26 354 26 275 q 53 499 26 431 q 131 617 81 567 q 250 697 181 668 q 403 726 319 726 q 554 699 488 726 q 667 622 621 671 q 739 508 714 574 q 764 364 764 442 q 763 321 764 343 q 761 296 761 299 l 217 296 q 281 188 232 228 q 406 147 331 147 q 517 173 471 147 q 594 242 564 199 l 739 153 q 652 60 703 99 q 535 1 601 21 l 536 0 q 479 -48 497 -19 q 461 -106 461 -76 q 517 -156 461 -156 q 543 -154 532 -156 q 563 -150 554 -153 q 581 -143 572 -147 l 581 -229 q 557 -242 571 -236 q 528 -251 546 -247 q 488 -254 510 -254 m 401 568 q 288 534 333 568 q 224 439 243 500 l 569 439 q 507 536 554 504 q 401 568 460 568 z "},"Ě":{"ha":793,"x_min":58,"x_max":756,"o":"m 58 951 l 754 951 l 754 757 l 274 757 l 274 578 l 718 578 l 718 389 l 274 389 l 274 194 l 756 194 l 756 0 l 58 0 l 58 951 m 404 994 l 200 1069 l 200 1213 l 404 1158 l 608 1213 l 608 1069 l 404 994 z "},"ě":{"ha":792,"x_min":26,"x_max":764,"o":"m 739 153 q 603 28 686 74 q 401 -17 521 -17 q 247 12 315 -17 q 128 90 178 40 q 53 207 79 139 q 26 354 26 275 q 53 499 26 431 q 131 617 81 567 q 250 697 181 668 q 403 726 319 726 q 554 699 488 726 q 667 622 621 671 q 739 508 714 574 q 764 364 764 442 q 763 321 764 343 q 761 296 761 299 l 217 296 q 281 188 232 228 q 406 147 331 147 q 517 173 471 147 q 594 242 564 199 l 739 153 m 401 568 q 288 534 333 568 q 224 439 243 500 l 569 439 q 507 536 554 504 q 401 568 460 568 m 401 756 l 197 831 l 197 974 l 401 919 l 606 974 l 606 831 l 401 756 z "},"Ĝ":{"ha":1064,"x_min":36,"x_max":1031,"o":"m 1031 478 q 995 280 1031 371 q 897 122 960 189 q 744 18 833 56 q 549 -19 656 -19 q 342 19 436 -19 q 179 126 247 58 q 74 283 111 193 q 36 476 36 374 q 73 668 36 578 q 177 826 110 758 q 339 932 244 893 q 549 971 433 971 q 784 919 683 971 q 950 775 885 868 l 792 640 q 683 735 743 701 q 549 769 624 769 q 433 748 486 769 q 340 687 379 726 q 278 592 300 647 q 256 471 256 538 q 277 355 256 408 q 337 263 299 301 q 428 203 375 225 q 543 181 481 181 q 701 225 639 181 q 790 346 763 269 l 538 346 l 538 533 l 1031 533 l 1031 478 l 1031 478 m 747 1001 l 543 1054 l 339 1001 l 339 1143 l 543 1218 l 747 1143 l 747 1001 z "},"ĝ":{"ha":815,"x_min":26,"x_max":778,"o":"m 397 550 q 326 535 360 550 q 268 495 293 521 q 228 435 243 469 q 214 363 214 401 q 228 288 214 322 q 268 229 243 254 q 326 190 293 204 q 397 175 360 175 q 474 190 439 175 q 534 229 508 204 q 574 288 560 254 q 589 363 589 322 q 574 435 589 401 q 534 495 560 469 q 473 535 508 521 q 397 550 438 550 m 396 -261 q 191 -217 275 -261 q 51 -94 107 -174 l 190 0 q 273 -72 222 -44 q 393 -99 324 -99 q 535 -61 483 -99 q 586 53 586 -24 l 586 72 q 381 7 508 7 q 245 34 310 7 q 132 109 181 61 q 55 222 83 157 q 26 364 26 288 q 55 505 26 439 q 132 619 83 571 q 245 696 181 668 q 381 724 310 724 q 503 704 451 724 q 586 660 554 685 l 586 713 l 778 713 l 778 69 q 753 -60 778 0 q 679 -165 728 -119 q 559 -235 631 -210 q 396 -261 488 -261 m 600 763 l 396 815 l 192 763 l 192 904 l 396 979 l 600 904 l 600 763 z "},"Ğ":{"ha":1064,"x_min":36,"x_max":1031,"o":"m 1031 478 q 995 280 1031 371 q 897 122 960 189 q 744 18 833 56 q 549 -19 656 -19 q 342 19 436 -19 q 179 126 247 58 q 74 283 111 193 q 36 476 36 374 q 73 668 36 578 q 177 826 110 758 q 339 932 244 893 q 549 971 433 971 q 784 919 683 971 q 950 775 885 868 l 792 640 q 683 735 743 701 q 549 769 624 769 q 433 748 486 769 q 340 687 379 726 q 278 592 300 647 q 256 471 256 538 q 277 355 256 408 q 337 263 299 301 q 428 203 375 225 q 543 181 481 181 q 701 225 639 181 q 790 346 763 269 l 538 346 l 538 533 l 1031 533 l 1031 478 l 1031 478 m 543 1157 q 612 1163 579 1157 q 671 1179 644 1169 q 716 1199 697 1189 q 746 1217 735 1208 l 746 1079 q 720 1054 738 1068 q 677 1028 703 1040 q 618 1007 651 1015 q 543 999 585 999 q 468 1007 501 999 q 409 1028 435 1015 q 366 1054 383 1040 q 340 1079 349 1068 l 340 1217 q 369 1199 350 1208 q 415 1179 389 1189 q 474 1163 442 1169 q 543 1157 507 1157 z "},"ğ":{"ha":815,"x_min":26,"x_max":778,"o":"m 397 550 q 326 535 360 550 q 268 495 293 521 q 228 435 243 469 q 214 363 214 401 q 228 288 214 322 q 268 229 243 254 q 326 190 293 204 q 397 175 360 175 q 474 190 439 175 q 534 229 508 204 q 574 288 560 254 q 589 363 589 322 q 574 435 589 401 q 534 495 560 469 q 473 535 508 521 q 397 550 438 550 m 396 -261 q 191 -217 275 -261 q 51 -94 107 -174 l 190 0 q 273 -72 222 -44 q 393 -99 324 -99 q 535 -61 483 -99 q 586 53 586 -24 l 586 72 q 381 7 508 7 q 245 34 310 7 q 132 109 181 61 q 55 222 83 157 q 26 364 26 288 q 55 505 26 439 q 132 619 83 571 q 245 696 181 668 q 381 724 310 724 q 503 704 451 724 q 586 660 554 685 l 586 713 l 778 713 l 778 69 q 753 -60 778 0 q 679 -165 728 -119 q 559 -235 631 -210 q 396 -261 488 -261 m 396 918 q 465 924 432 918 q 524 940 497 931 q 569 960 550 950 q 599 978 588 969 l 599 840 q 573 815 590 829 q 530 789 556 801 q 471 768 504 776 q 396 760 438 760 q 321 768 354 760 q 262 789 288 776 q 219 815 236 801 q 193 840 201 829 l 193 978 q 222 960 203 969 q 268 940 242 950 q 327 924 294 931 q 396 918 360 918 z "},"Ġ":{"ha":1064,"x_min":36,"x_max":1031,"o":"m 1031 478 q 995 280 1031 371 q 897 122 960 189 q 744 18 833 56 q 549 -19 656 -19 q 342 19 436 -19 q 179 126 247 58 q 74 283 111 193 q 36 476 36 374 q 73 668 36 578 q 177 826 110 758 q 339 932 244 893 q 549 971 433 971 q 784 919 683 971 q 950 775 885 868 l 792 640 q 683 735 743 701 q 549 769 624 769 q 433 748 486 769 q 340 687 379 726 q 278 592 300 647 q 256 471 256 538 q 277 355 256 408 q 337 263 299 301 q 428 203 375 225 q 543 181 481 181 q 701 225 639 181 q 790 346 763 269 l 538 346 l 538 533 l 1031 533 l 1031 478 l 1031 478 m 446 1013 l 446 1190 l 640 1190 l 640 1013 l 446 1013 z "},"ġ":{"ha":815,"x_min":26,"x_max":778,"o":"m 397 550 q 326 535 360 550 q 268 495 293 521 q 228 435 243 469 q 214 363 214 401 q 228 288 214 322 q 268 229 243 254 q 326 190 293 204 q 397 175 360 175 q 474 190 439 175 q 534 229 508 204 q 574 288 560 254 q 589 363 589 322 q 574 435 589 401 q 534 495 560 469 q 473 535 508 521 q 397 550 438 550 m 396 -261 q 191 -217 275 -261 q 51 -94 107 -174 l 190 0 q 273 -72 222 -44 q 393 -99 324 -99 q 535 -61 483 -99 q 586 53 586 -24 l 586 72 q 381 7 508 7 q 245 34 310 7 q 132 109 181 61 q 55 222 83 157 q 26 364 26 288 q 55 505 26 439 q 132 619 83 571 q 245 696 181 668 q 381 724 310 724 q 503 704 451 724 q 586 660 554 685 l 586 713 l 778 713 l 778 69 q 753 -60 778 0 q 679 -165 728 -119 q 559 -235 631 -210 q 396 -261 488 -261 m 299 774 l 299 951 l 493 951 l 493 774 l 299 774 z "},"Ģ":{"ha":1064,"x_min":36,"x_max":1031,"o":"m 1031 478 q 995 280 1031 371 q 897 122 960 189 q 744 18 833 56 q 549 -19 656 -19 q 342 19 436 -19 q 179 126 247 58 q 74 283 111 193 q 36 476 36 374 q 73 668 36 578 q 177 826 110 758 q 339 932 244 893 q 549 971 433 971 q 784 919 683 971 q 950 775 885 868 l 792 640 q 683 735 743 701 q 549 769 624 769 q 433 748 486 769 q 340 687 379 726 q 278 592 300 647 q 256 471 256 538 q 277 355 256 408 q 337 263 299 301 q 428 203 375 225 q 543 181 481 181 q 701 225 639 181 q 790 346 763 269 l 538 346 l 538 533 l 1031 533 l 1031 478 l 1031 478 m 563 -304 l 439 -304 l 482 -207 l 438 -207 l 438 -58 l 615 -58 l 615 -174 l 563 -304 z "},"ģ":{"ha":815,"x_min":26,"x_max":778,"o":"m 363 1019 l 486 1019 l 443 922 l 488 922 l 488 774 l 310 774 l 310 889 l 363 1019 m 397 550 q 326 535 360 550 q 268 495 293 521 q 228 435 243 469 q 214 363 214 401 q 228 288 214 322 q 268 229 243 254 q 326 190 293 204 q 397 175 360 175 q 474 190 439 175 q 534 229 508 204 q 574 288 560 254 q 589 363 589 322 q 574 435 589 401 q 534 495 560 469 q 473 535 508 521 q 397 550 438 550 m 396 -261 q 191 -217 275 -261 q 51 -94 107 -174 l 190 0 q 273 -72 222 -44 q 393 -99 324 -99 q 535 -61 483 -99 q 586 53 586 -24 l 586 72 q 381 7 508 7 q 245 34 310 7 q 132 109 181 61 q 55 222 83 157 q 26 364 26 288 q 55 505 26 439 q 132 619 83 571 q 245 696 181 668 q 381 724 310 724 q 503 704 451 724 q 586 660 554 685 l 586 713 l 778 713 l 778 69 q 753 -60 778 0 q 679 -165 728 -119 q 559 -235 631 -210 q 396 -261 488 -261 z "},"Ĥ":{"ha":950,"x_min":58,"x_max":892,"o":"m 676 372 l 274 372 l 274 0 l 58 0 l 58 951 l 274 951 l 274 569 l 676 569 l 676 951 l 892 951 l 892 0 l 676 0 l 676 372 m 679 1001 l 475 1054 l 271 1001 l 271 1143 l 475 1218 l 679 1143 l 679 1001 z "},"ĥ":{"ha":750,"x_min":-62,"x_max":711,"o":"m 232 640 q 261 669 242 654 q 307 696 281 683 q 366 717 333 708 q 436 725 399 725 q 549 704 499 725 q 636 646 600 683 q 692 555 672 608 q 711 438 711 501 l 711 0 l 519 0 l 519 404 q 485 508 519 468 q 389 547 451 547 q 275 506 318 547 q 232 389 232 464 l 232 0 l 39 0 l 39 951 l 232 951 l 232 640 m 346 1001 l 142 1054 l -62 1001 l -62 1143 l 142 1218 l 346 1143 l 346 1001 z "},"Ħ":{"ha":950,"x_min":-8,"x_max":958,"o":"m 676 569 l 676 678 l 274 678 l 274 569 l 676 569 m 274 0 l 58 0 l 58 678 l -8 678 l -8 860 l 58 860 l 58 951 l 274 951 l 274 860 l 676 860 l 676 951 l 892 951 l 892 860 l 958 860 l 958 678 l 892 678 l 892 0 l 676 0 l 676 372 l 274 372 l 274 0 z "},"ħ":{"ha":750,"x_min":13,"x_max":711,"o":"m 228 638 q 278 679 247 661 q 343 708 304 694 q 436 722 382 722 q 549 701 499 722 q 636 643 600 681 q 692 553 672 606 q 711 436 711 500 l 711 0 l 538 0 l 538 411 q 501 520 538 479 q 399 561 464 561 q 274 517 321 561 q 228 393 228 472 l 228 0 l 54 0 l 54 746 l 13 746 l 13 894 l 54 894 l 54 951 l 228 951 l 228 894 l 390 894 l 390 746 l 228 746 l 228 638 z "},"Ĩ":{"ha":331,"x_min":-43,"x_max":378,"o":"m 58 0 l 58 951 l 274 951 l 274 0 l 58 0 m 278 1150 q 336 1163 308 1150 q 378 1188 364 1176 l 378 1060 q 328 1019 363 1040 q 251 999 293 999 q 197 1006 221 999 q 149 1021 172 1013 q 104 1036 126 1029 q 57 1043 82 1043 q -1 1030 26 1043 q -43 1006 -29 1017 l -43 1133 q 7 1174 -28 1153 q 83 1194 42 1194 q 138 1188 114 1194 q 185 1172 163 1181 q 231 1157 208 1164 q 278 1150 253 1150 z "},"ĩ":{"ha":271,"x_min":-72,"x_max":349,"o":"m 39 0 l 39 713 l 232 713 l 232 0 l 39 0 m 249 911 q 307 924 279 911 q 349 949 335 938 l 349 821 q 299 781 333 801 q 222 760 264 760 q 167 767 192 760 q 120 782 143 774 q 75 797 97 790 q 28 804 53 804 q -31 791 -3 804 q -72 767 -58 778 l -72 894 q -22 935 -57 914 q 54 956 13 956 q 109 949 85 956 q 156 933 133 942 q 201 918 179 925 q 249 911 224 911 z "},"Ī":{"ha":331,"x_min":-25,"x_max":358,"o":"m 58 0 l 58 951 l 274 951 l 274 0 l 58 0 m -25 1032 l -25 1203 l 358 1203 l 358 1032 l -25 1032 z "},"ī":{"ha":271,"x_min":-54,"x_max":329,"o":"m 39 0 l 39 713 l 232 713 l 232 0 l 39 0 m -54 793 l -54 964 l 329 964 l 329 793 l -54 793 z "},"Ĭ":{"ha":331,"x_min":-36,"x_max":369,"o":"m 58 0 l 58 951 l 274 951 l 274 0 l 58 0 m 167 1157 q 235 1163 203 1157 q 294 1179 268 1169 q 340 1199 321 1189 q 369 1217 358 1208 l 369 1079 q 344 1054 361 1068 q 301 1028 326 1040 q 242 1007 275 1015 q 167 999 208 999 q 92 1007 125 999 q 33 1028 58 1015 q -10 1054 7 1040 q -36 1079 -28 1068 l -36 1217 q -7 1199 -26 1208 q 39 1179 13 1189 q 98 1163 65 1169 q 167 1157 131 1157 z "},"ĭ":{"ha":271,"x_min":-65,"x_max":340,"o":"m 39 0 l 39 713 l 232 713 l 232 0 l 39 0 m 138 918 q 206 924 174 918 q 265 940 239 931 q 310 960 292 950 q 340 978 329 969 l 340 840 q 315 815 332 829 q 272 789 297 801 q 213 768 246 776 q 138 760 179 760 q 63 768 96 760 q 3 789 29 776 q -40 815 -22 801 q -65 840 -57 829 l -65 978 q -36 960 -56 969 q 10 940 -17 950 q 69 924 36 931 q 138 918 101 918 z "},"Į":{"ha":331,"x_min":26,"x_max":274,"o":"m 261 -229 q 238 -242 251 -236 q 208 -251 226 -247 q 168 -254 190 -254 q 65 -221 103 -254 q 26 -135 26 -187 q 53 -53 26 -89 q 122 0 81 -17 l 58 0 l 58 951 l 274 951 l 274 0 l 217 0 q 160 -48 178 -19 q 142 -106 142 -76 q 197 -156 142 -156 q 224 -154 213 -156 q 243 -150 235 -153 q 261 -143 253 -147 l 261 -229 l 261 -229 z "},"į":{"ha":271,"x_min":-3,"x_max":232,"o":"m 39 774 l 39 951 l 232 951 l 232 774 l 39 774 m 232 -229 q 208 -242 222 -236 q 179 -251 197 -247 q 139 -254 161 -254 q 35 -221 74 -254 q -3 -135 -3 -187 q 24 -53 -3 -89 q 93 0 51 -17 l 39 0 l 39 713 l 232 713 l 232 0 l 188 0 q 131 -48 149 -19 q 113 -106 113 -76 q 168 -156 113 -156 q 194 -154 183 -156 q 214 -150 206 -153 q 232 -143 224 -147 l 232 -229 z "},"İ":{"ha":331,"x_min":58,"x_max":274,"o":"m 58 0 l 58 951 l 274 951 l 274 0 l 58 0 m 69 1013 l 69 1190 l 264 1190 l 264 1013 l 69 1013 z "},"ı":{"ha":271,"x_min":39,"x_max":232,"o":"m 39 0 l 39 713 l 232 713 l 232 0 l 39 0 z "},"Ĳ":{"ha":1129,"x_min":58,"x_max":1076,"o":"m 58 0 l 58 951 l 274 951 l 274 0 l 58 0 m 581 340 q 617 220 581 257 q 721 183 654 183 q 824 228 788 183 q 861 349 861 274 l 861 951 l 1076 951 l 1076 349 q 1053 199 1076 267 q 985 84 1031 132 q 874 10 940 36 q 722 -17 808 -17 q 573 7 639 -17 q 460 76 507 31 q 390 188 414 122 q 365 340 365 254 l 581 340 z "},"ĳ":{"ha":542,"x_min":39,"x_max":503,"o":"m 39 774 l 39 951 l 232 951 l 232 774 l 39 774 m 39 0 l 39 713 l 232 713 l 232 0 l 39 0 m 310 774 l 310 951 l 503 951 l 503 774 l 310 774 m 503 51 q 485 -85 503 -29 q 431 -178 468 -142 q 336 -231 394 -214 q 196 -247 278 -247 l 196 -76 q 282 -49 254 -76 q 310 38 310 -22 l 310 713 l 503 713 l 503 51 z "},"Ĵ":{"ha":799,"x_min":35,"x_max":835,"o":"m 250 340 q 287 220 250 257 q 390 183 324 183 q 494 228 457 183 q 531 349 531 274 l 531 951 l 746 951 l 746 349 q 723 199 746 267 q 655 84 700 132 q 544 10 610 36 q 392 -17 478 -17 q 242 7 308 -17 q 130 76 176 31 q 59 188 83 122 q 35 340 35 254 l 250 340 m 835 1001 l 631 1054 l 426 1001 l 426 1143 l 631 1218 l 835 1143 l 835 1001 z "},"ĵ":{"ha":271,"x_min":-75,"x_max":342,"o":"m 232 51 q 215 -85 232 -29 q 160 -178 197 -142 q 65 -231 124 -214 q -75 -247 7 -247 l -75 -76 q 11 -49 -17 -76 q 39 38 39 -22 l 39 713 l 232 713 l 232 51 m 342 763 l 138 815 l -67 763 l -67 904 l 138 979 l 342 904 l 342 763 z "},"Ķ":{"ha":871,"x_min":58,"x_max":875,"o":"m 613 951 l 864 951 l 486 476 l 875 0 l 596 0 l 274 406 l 274 0 l 58 0 l 58 951 l 274 951 l 274 508 l 613 951 m 472 -304 l 349 -304 l 392 -207 l 347 -207 l 347 -58 l 525 -58 l 525 -174 l 472 -304 z "},"ķ":{"ha":699,"x_min":39,"x_max":700,"o":"m 469 713 l 689 713 l 415 358 l 700 0 l 460 0 l 233 293 l 233 0 l 39 0 l 39 951 l 233 951 l 233 393 l 469 713 m 386 -304 l 263 -304 l 306 -207 l 261 -207 l 261 -58 l 439 -58 l 439 -174 l 386 -304 z "},"ĸ":{"ha":699,"x_min":39,"x_max":700,"o":"m 469 713 l 689 713 l 415 358 l 700 0 l 460 0 l 233 293 l 233 0 l 39 0 l 39 713 l 233 713 l 233 393 l 469 713 z "},"Ĺ":{"ha":756,"x_min":7,"x_max":715,"o":"m 58 951 l 274 951 l 274 197 l 715 197 l 715 0 l 58 0 l 58 951 m 7 999 l 7 1169 l 332 1249 l 332 1074 l 7 999 z "},"ĺ":{"ha":272,"x_min":-19,"x_max":306,"o":"m 39 0 l 39 951 l 233 951 l 233 0 l 39 0 m -19 999 l -19 1169 l 306 1249 l 306 1074 l -19 999 z "},"Ļ":{"ha":756,"x_min":58,"x_max":715,"o":"m 58 951 l 274 951 l 274 197 l 715 197 l 715 0 l 58 0 l 58 951 m 414 -304 l 290 -304 l 333 -207 l 289 -207 l 289 -58 l 467 -58 l 467 -174 l 414 -304 z "},"ļ":{"ha":272,"x_min":39,"x_max":233,"o":"m 39 0 l 39 951 l 233 951 l 233 0 l 39 0 m 174 -304 l 50 -304 l 93 -207 l 49 -207 l 49 -58 l 226 -58 l 226 -174 l 174 -304 z "},"Ľ":{"ha":756,"x_min":58,"x_max":715,"o":"m 649 789 l 586 617 l 451 617 l 503 750 l 450 750 l 450 951 l 649 951 l 649 789 l 649 789 m 58 951 l 274 951 l 274 197 l 715 197 l 715 0 l 58 0 l 58 951 z "},"ľ":{"ha":557,"x_min":39,"x_max":518,"o":"m 518 789 l 456 617 l 321 617 l 372 750 l 319 750 l 319 951 l 518 951 l 518 789 l 518 789 m 39 0 l 39 951 l 233 951 l 233 0 l 39 0 z "},"Ŀ":{"ha":756,"x_min":58,"x_max":715,"o":"m 58 951 l 274 951 l 274 197 l 715 197 l 715 0 l 58 0 l 58 951 m 431 431 l 431 608 l 625 608 l 625 431 l 431 431 z "},"ŀ":{"ha":533,"x_min":39,"x_max":499,"o":"m 39 0 l 39 951 l 233 951 l 233 0 l 39 0 m 304 358 l 304 536 l 499 536 l 499 358 l 304 358 z "},"Ł":{"ha":769,"x_min":11,"x_max":729,"o":"m 72 0 l 72 404 l 11 372 l 11 514 l 72 547 l 72 951 l 288 951 l 288 663 l 403 724 l 403 581 l 288 519 l 288 197 l 729 197 l 729 0 l 72 0 z "},"ł":{"ha":272,"x_min":-12,"x_max":290,"o":"m 233 507 l 233 0 l 39 0 l 39 400 l -12 371 l -12 513 l 39 542 l 39 951 l 233 951 l 233 650 l 290 682 l 290 539 l 233 507 z "},"Ń":{"ha":942,"x_min":58,"x_max":883,"o":"m 265 603 l 265 0 l 58 0 l 58 951 l 293 951 l 676 347 l 676 951 l 883 951 l 883 0 l 649 0 l 265 603 m 314 999 l 314 1169 l 639 1249 l 639 1074 l 314 999 z "},"ń":{"ha":750,"x_min":39,"x_max":711,"o":"m 229 640 q 308 698 256 671 q 436 725 361 725 q 549 704 499 725 q 636 646 600 683 q 692 555 672 608 q 711 438 711 501 l 711 0 l 519 0 l 519 404 q 485 508 519 468 q 389 547 451 547 q 275 506 318 547 q 232 389 232 464 l 232 0 l 39 0 l 39 713 l 229 713 l 229 640 m 218 760 l 218 931 l 543 1010 l 543 835 l 218 760 z "},"Ņ":{"ha":942,"x_min":58,"x_max":883,"o":"m 265 603 l 265 0 l 58 0 l 58 951 l 293 951 l 676 347 l 676 951 l 883 951 l 883 0 l 649 0 l 265 603 m 507 -304 l 383 -304 l 426 -207 l 382 -207 l 382 -58 l 560 -58 l 560 -174 l 507 -304 z "},"ņ":{"ha":750,"x_min":39,"x_max":711,"o":"m 229 640 q 308 698 256 671 q 436 725 361 725 q 549 704 499 725 q 636 646 600 683 q 692 555 672 608 q 711 438 711 501 l 711 0 l 519 0 l 519 404 q 485 508 519 468 q 389 547 451 547 q 275 506 318 547 q 232 389 232 464 l 232 0 l 39 0 l 39 713 l 229 713 l 229 640 m 411 -304 l 288 -304 l 331 -207 l 286 -207 l 286 -58 l 464 -58 l 464 -174 l 411 -304 z "},"Ň":{"ha":942,"x_min":58,"x_max":883,"o":"m 265 603 l 265 0 l 58 0 l 58 951 l 293 951 l 676 347 l 676 951 l 883 951 l 883 0 l 649 0 l 265 603 m 471 994 l 267 1069 l 267 1213 l 471 1158 l 675 1213 l 675 1069 l 471 994 z "},"ň":{"ha":750,"x_min":39,"x_max":711,"o":"m 229 640 q 308 698 256 671 q 436 725 361 725 q 549 704 499 725 q 636 646 600 683 q 692 555 672 608 q 711 438 711 501 l 711 0 l 519 0 l 519 404 q 485 508 519 468 q 389 547 451 547 q 275 506 318 547 q 232 389 232 464 l 232 0 l 39 0 l 39 713 l 229 713 l 229 640 m 375 756 l 171 831 l 171 974 l 375 919 l 579 974 l 579 831 l 375 756 z "},"ŉ":{"ha":750,"x_min":39,"x_max":711,"o":"m 229 640 q 308 698 256 671 q 436 725 361 725 q 549 704 499 725 q 636 646 600 683 q 692 555 672 608 q 711 438 711 501 l 711 0 l 519 0 l 519 404 q 485 508 519 468 q 389 547 451 547 q 275 506 318 547 q 232 389 232 464 l 232 0 l 39 0 l 39 713 l 229 713 l 229 640 m 165 796 l 42 796 l 85 893 l 40 893 l 40 1042 l 218 1042 l 218 926 l 165 796 z "},"Ŋ":{"ha":942,"x_min":58,"x_max":883,"o":"m 575 -76 q 671 -36 644 -76 l 265 603 l 265 0 l 58 0 l 58 951 l 293 951 l 676 347 l 676 951 l 883 951 l 883 51 q 866 -85 883 -29 q 811 -178 849 -142 q 715 -231 774 -214 q 575 -247 657 -247 l 575 -76 z "},"ŋ":{"ha":750,"x_min":39,"x_max":711,"o":"m 229 640 q 249 660 233 646 q 290 688 264 674 q 352 714 315 703 q 436 725 389 725 q 549 704 499 725 q 636 646 600 683 q 692 555 672 608 q 711 438 711 501 l 711 51 q 694 -85 711 -29 q 640 -178 676 -142 q 545 -231 603 -214 q 406 -247 488 -247 l 406 -76 q 492 -49 464 -76 q 519 38 519 -22 l 519 404 q 485 508 519 468 q 389 547 451 547 q 275 506 318 547 q 232 389 232 464 l 232 0 l 39 0 l 39 713 l 229 713 l 229 640 z "},"Ō":{"ha":1081,"x_min":36,"x_max":1044,"o":"m 540 -19 q 344 18 436 -19 q 184 122 253 56 q 76 279 115 189 q 36 475 36 369 q 76 672 36 581 q 184 829 115 763 q 344 933 253 896 q 540 971 436 971 q 740 933 647 971 q 899 829 832 896 q 1006 672 967 763 q 1044 476 1044 582 q 1006 279 1044 369 q 899 122 967 189 q 740 18 832 56 q 540 -19 647 -19 m 540 181 q 652 203 600 181 q 743 266 704 226 q 803 360 782 306 q 825 476 825 414 q 803 592 825 539 q 743 685 782 646 q 652 748 704 725 q 540 771 600 771 q 428 748 479 771 q 338 685 376 725 q 277 592 299 646 q 256 475 256 538 q 277 358 256 413 q 338 265 299 304 q 428 203 376 225 q 540 181 479 181 m 349 1032 l 349 1203 l 732 1203 l 732 1032 l 349 1032 z "},"ō":{"ha":815,"x_min":26,"x_max":792,"o":"m 408 726 q 560 697 490 726 q 682 618 631 668 q 763 500 733 568 q 792 354 792 432 q 763 209 792 276 q 682 92 733 142 q 560 13 631 42 q 408 -17 490 -17 q 256 12 326 -17 q 135 90 186 40 q 55 208 83 140 q 26 354 26 276 q 56 500 26 432 q 135 618 85 568 q 256 697 186 668 q 408 726 326 726 m 408 551 q 333 537 368 551 q 272 496 297 522 q 231 433 246 469 q 217 354 217 397 q 231 275 217 311 q 269 213 244 239 q 329 171 294 186 q 404 156 364 156 q 481 171 444 156 q 543 213 517 186 q 585 275 569 239 q 600 354 600 311 q 585 433 600 397 q 545 496 571 469 q 484 537 519 522 q 408 551 449 551 m 217 793 l 217 964 l 600 964 l 600 793 l 217 793 z "},"Ŏ":{"ha":1081,"x_min":36,"x_max":1044,"o":"m 540 -19 q 344 18 436 -19 q 184 122 253 56 q 76 279 115 189 q 36 475 36 369 q 76 672 36 581 q 184 829 115 763 q 344 933 253 896 q 540 971 436 971 q 740 933 647 971 q 899 829 832 896 q 1006 672 967 763 q 1044 476 1044 582 q 1006 279 1044 369 q 899 122 967 189 q 740 18 832 56 q 540 -19 647 -19 m 540 181 q 652 203 600 181 q 743 266 704 226 q 803 360 782 306 q 825 476 825 414 q 803 592 825 539 q 743 685 782 646 q 652 748 704 725 q 540 771 600 771 q 428 748 479 771 q 338 685 376 725 q 277 592 299 646 q 256 475 256 538 q 277 358 256 413 q 338 265 299 304 q 428 203 376 225 q 540 181 479 181 m 540 1157 q 609 1163 576 1157 q 668 1179 642 1169 q 713 1199 694 1189 q 743 1217 732 1208 l 743 1079 q 717 1054 735 1068 q 674 1028 700 1040 q 615 1007 649 1015 q 540 999 582 999 q 465 1007 499 999 q 406 1028 432 1015 q 363 1054 381 1040 q 338 1079 346 1068 l 338 1217 q 367 1199 347 1208 q 413 1179 386 1189 q 472 1163 439 1169 q 540 1157 504 1157 z "},"ŏ":{"ha":815,"x_min":26,"x_max":792,"o":"m 408 726 q 560 697 490 726 q 682 618 631 668 q 763 500 733 568 q 792 354 792 432 q 763 209 792 276 q 682 92 733 142 q 560 13 631 42 q 408 -17 490 -17 q 256 12 326 -17 q 135 90 186 40 q 55 208 83 140 q 26 354 26 276 q 56 500 26 432 q 135 618 85 568 q 256 697 186 668 q 408 726 326 726 m 408 551 q 333 537 368 551 q 272 496 297 522 q 231 433 246 469 q 217 354 217 397 q 231 275 217 311 q 269 213 244 239 q 329 171 294 186 q 404 156 364 156 q 481 171 444 156 q 543 213 517 186 q 585 275 569 239 q 600 354 600 311 q 585 433 600 397 q 545 496 571 469 q 484 537 519 522 q 408 551 449 551 m 408 918 q 477 924 444 918 q 536 940 510 931 q 581 960 563 950 q 611 978 600 969 l 611 840 q 585 815 603 829 q 542 789 568 801 q 483 768 517 776 q 408 760 450 760 q 333 768 367 760 q 274 789 300 776 q 231 815 249 801 q 206 840 214 829 l 206 978 q 235 960 215 969 q 281 940 254 950 q 340 924 307 931 q 408 918 372 918 z "},"Ő":{"ha":1081,"x_min":36,"x_max":1044,"o":"m 540 -19 q 344 18 436 -19 q 184 122 253 56 q 76 279 115 189 q 36 475 36 369 q 76 672 36 581 q 184 829 115 763 q 344 933 253 896 q 540 971 436 971 q 740 933 647 971 q 899 829 832 896 q 1006 672 967 763 q 1044 476 1044 582 q 1006 279 1044 369 q 899 122 967 189 q 740 18 832 56 q 540 -19 647 -19 m 540 181 q 652 203 600 181 q 743 266 704 226 q 803 360 782 306 q 825 476 825 414 q 803 592 825 539 q 743 685 782 646 q 652 748 704 725 q 540 771 600 771 q 428 748 479 771 q 338 685 376 725 q 277 592 299 646 q 256 475 256 538 q 277 358 256 413 q 338 265 299 304 q 428 203 376 225 q 540 181 479 181 m 317 1014 l 385 1218 l 574 1218 l 500 1014 l 317 1014 m 551 1014 l 625 1218 l 814 1218 l 735 1014 l 551 1014 z "},"ő":{"ha":815,"x_min":26,"x_max":792,"o":"m 408 726 q 560 697 490 726 q 682 618 631 668 q 763 500 733 568 q 792 354 792 432 q 763 209 792 276 q 682 92 733 142 q 560 13 631 42 q 408 -17 490 -17 q 256 12 326 -17 q 135 90 186 40 q 55 208 83 140 q 26 354 26 276 q 56 500 26 432 q 135 618 85 568 q 256 697 186 668 q 408 726 326 726 m 408 551 q 333 537 368 551 q 272 496 297 522 q 231 433 246 469 q 217 354 217 397 q 231 275 217 311 q 269 213 244 239 q 329 171 294 186 q 404 156 364 156 q 481 171 444 156 q 543 213 517 186 q 585 275 569 239 q 600 354 600 311 q 585 433 600 397 q 545 496 571 469 q 484 537 519 522 q 408 551 449 551 m 185 775 l 253 979 l 442 979 l 368 775 l 185 775 m 419 775 l 493 979 l 682 979 l 603 775 l 419 775 z "},"Œ":{"ha":1451,"x_min":58,"x_max":1414,"o":"m 543 0 q 344 37 433 0 q 191 137 254 74 q 93 286 128 200 q 58 471 58 372 q 94 659 58 571 q 196 812 131 747 q 352 914 261 876 q 554 951 443 951 l 1413 951 l 1413 757 l 932 757 l 932 578 l 1376 578 l 1376 389 l 932 389 l 932 194 l 1414 194 l 1414 0 l 543 0 m 717 197 l 717 754 l 547 754 q 440 733 489 754 q 353 674 390 711 q 296 585 317 636 q 275 474 275 533 q 296 363 275 414 q 354 276 317 313 q 442 218 392 239 q 554 197 493 197 l 717 197 z "},"œ":{"ha":1364,"x_min":26,"x_max":1339,"o":"m 1314 153 q 1178 28 1261 74 q 975 -17 1094 -17 q 812 16 883 -17 q 692 107 740 49 q 571 16 643 49 q 407 -17 499 -17 q 253 13 324 -17 q 133 92 183 42 q 54 209 82 142 q 26 354 26 276 q 54 500 26 432 q 133 618 82 568 q 253 697 183 668 q 407 726 324 726 q 572 692 499 726 q 694 599 646 657 q 815 692 743 657 q 978 726 886 726 q 1128 699 1061 726 q 1242 622 1196 671 q 1314 508 1289 574 q 1339 364 1339 442 q 1338 342 1339 353 q 1336 319 1338 331 q 1335 296 1335 307 l 792 296 q 856 188 807 228 q 979 147 904 147 q 1092 173 1046 147 q 1169 242 1139 199 l 1314 153 m 1142 439 q 1086 531 1131 493 q 975 568 1042 568 q 863 535 910 568 q 797 439 817 501 l 1142 439 m 403 154 q 481 169 444 154 q 543 210 517 183 q 584 274 569 238 q 599 354 599 310 q 585 433 599 397 q 545 496 571 469 q 484 537 519 522 q 407 551 449 551 q 330 537 365 551 q 269 496 294 522 q 231 433 244 469 q 217 354 217 397 q 267 210 217 267 q 403 154 318 154 z "},"Ŕ":{"ha":854,"x_min":58,"x_max":835,"o":"m 274 754 l 274 500 l 425 500 q 535 535 496 500 q 575 626 575 571 q 540 718 575 682 q 432 754 504 754 l 274 754 m 274 0 l 58 0 l 58 951 l 464 951 q 601 928 540 951 q 703 863 661 904 q 769 763 746 821 q 792 635 792 704 q 774 529 792 579 q 722 439 756 479 q 640 371 689 399 q 532 331 592 343 l 835 0 l 554 0 l 274 324 l 274 0 m 267 999 l 267 1169 l 592 1249 l 592 1074 l 267 999 z "},"ŕ":{"ha":469,"x_min":39,"x_max":439,"o":"m 39 0 l 39 713 l 232 713 l 232 615 q 320 693 268 664 q 439 722 372 722 l 439 528 q 283 473 332 528 q 233 325 233 418 l 233 0 l 39 0 m 86 760 l 86 931 l 411 1010 l 411 835 l 86 760 z "},"Ŗ":{"ha":854,"x_min":58,"x_max":835,"o":"m 274 754 l 274 500 l 425 500 q 535 535 496 500 q 575 626 575 571 q 540 718 575 682 q 432 754 504 754 l 274 754 m 274 0 l 58 0 l 58 951 l 464 951 q 601 928 540 951 q 703 863 661 904 q 769 763 746 821 q 792 635 792 704 q 774 529 792 579 q 722 439 756 479 q 640 371 689 399 q 532 331 592 343 l 835 0 l 554 0 l 274 324 l 274 0 m 460 -304 l 336 -304 l 379 -207 l 335 -207 l 335 -58 l 513 -58 l 513 -174 l 460 -304 z "},"ŗ":{"ha":469,"x_min":39,"x_max":439,"o":"m 39 0 l 39 713 l 232 713 l 232 615 q 320 693 268 664 q 439 722 372 722 l 439 528 q 283 473 332 528 q 233 325 233 418 l 233 0 l 39 0 m 176 -304 l 53 -304 l 96 -207 l 51 -207 l 51 -58 l 229 -58 l 229 -174 l 176 -304 z "},"Ř":{"ha":854,"x_min":58,"x_max":835,"o":"m 274 754 l 274 500 l 425 500 q 535 535 496 500 q 575 626 575 571 q 540 718 575 682 q 432 754 504 754 l 274 754 m 274 0 l 58 0 l 58 951 l 464 951 q 601 928 540 951 q 703 863 661 904 q 769 763 746 821 q 792 635 792 704 q 774 529 792 579 q 722 439 756 479 q 640 371 689 399 q 532 331 592 343 l 835 0 l 554 0 l 274 324 l 274 0 m 424 994 l 219 1069 l 219 1213 l 424 1158 l 628 1213 l 628 1069 l 424 994 z "},"ř":{"ha":469,"x_min":39,"x_max":447,"o":"m 39 0 l 39 713 l 232 713 l 232 615 q 320 693 268 664 q 439 722 372 722 l 439 528 q 283 473 332 528 q 233 325 233 418 l 233 0 l 39 0 m 243 756 l 39 831 l 39 974 l 243 919 l 447 974 l 447 831 l 243 756 z "},"Ś":{"ha":817,"x_min":19,"x_max":789,"o":"m 404 -18 q 126 66 222 -18 q 19 297 29 150 l 235 297 q 246 244 236 269 q 276 198 256 218 q 328 165 296 178 q 410 153 361 153 q 533 182 492 153 q 574 256 574 211 q 558 301 574 283 q 514 333 542 319 q 449 355 486 346 q 372 372 413 364 q 256 403 315 386 q 147 454 196 421 q 67 541 99 488 q 36 679 36 594 q 60 795 36 742 q 129 887 83 849 q 241 947 175 925 q 393 969 307 969 q 548 947 481 969 q 662 883 615 924 q 735 784 708 842 q 767 657 761 726 l 550 657 q 511 754 547 714 q 388 794 475 794 q 283 769 322 794 q 244 697 244 744 q 261 647 244 667 q 306 613 278 626 q 370 589 333 599 q 447 569 407 579 q 566 540 506 557 q 676 493 626 524 q 758 413 726 463 q 789 282 789 363 q 764 162 789 217 q 690 67 739 107 q 569 4 640 26 q 404 -18 497 -18 m 244 994 l 244 1165 l 569 1244 l 569 1069 l 244 994 z "},"ś":{"ha":690,"x_min":28,"x_max":667,"o":"m 224 224 q 230 190 224 207 q 251 160 236 174 q 292 136 267 146 q 356 126 317 126 q 435 147 410 126 q 461 193 461 168 q 451 222 461 210 q 425 240 442 233 q 385 252 408 247 q 336 261 363 257 q 237 279 289 269 q 141 312 185 289 q 69 376 97 335 q 40 490 40 418 q 61 581 40 539 q 120 653 82 622 q 213 703 158 685 q 335 721 267 721 q 551 657 471 721 q 640 485 632 593 l 447 485 q 441 521 446 504 q 424 549 436 538 q 390 568 411 561 q 338 575 369 575 q 266 560 296 575 q 236 513 236 546 q 249 480 236 493 q 283 458 261 467 q 335 444 306 450 q 396 433 364 439 q 490 415 442 425 q 577 382 538 404 q 642 323 617 360 q 667 226 667 286 q 642 117 667 163 q 574 43 617 72 q 472 0 531 14 q 346 -14 413 -14 q 215 4 272 -14 q 116 54 157 22 q 52 129 75 86 q 28 224 29 172 l 224 224 m 176 760 l 176 931 l 501 1010 l 501 835 l 176 760 z "},"Ŝ":{"ha":817,"x_min":19,"x_max":789,"o":"m 404 -18 q 126 66 222 -18 q 19 297 29 150 l 235 297 q 246 244 236 269 q 276 198 256 218 q 328 165 296 178 q 410 153 361 153 q 533 182 492 153 q 574 256 574 211 q 558 301 574 283 q 514 333 542 319 q 449 355 486 346 q 372 372 413 364 q 256 403 315 386 q 147 454 196 421 q 67 541 99 488 q 36 679 36 594 q 60 795 36 742 q 129 887 83 849 q 241 947 175 925 q 393 969 307 969 q 548 947 481 969 q 662 883 615 924 q 735 784 708 842 q 767 657 761 726 l 550 657 q 511 754 547 714 q 388 794 475 794 q 283 769 322 794 q 244 697 244 744 q 261 647 244 667 q 306 613 278 626 q 370 589 333 599 q 447 569 407 579 q 566 540 506 557 q 676 493 626 524 q 758 413 726 463 q 789 282 789 363 q 764 162 789 217 q 690 67 739 107 q 569 4 640 26 q 404 -18 497 -18 m 606 997 l 401 1050 l 197 997 l 197 1139 l 401 1214 l 606 1139 l 606 997 z "},"ŝ":{"ha":690,"x_min":28,"x_max":667,"o":"m 224 224 q 230 190 224 207 q 251 160 236 174 q 292 136 267 146 q 356 126 317 126 q 435 147 410 126 q 461 193 461 168 q 451 222 461 210 q 425 240 442 233 q 385 252 408 247 q 336 261 363 257 q 237 279 289 269 q 141 312 185 289 q 69 376 97 335 q 40 490 40 418 q 61 581 40 539 q 120 653 82 622 q 213 703 158 685 q 335 721 267 721 q 551 657 471 721 q 640 485 632 593 l 447 485 q 441 521 446 504 q 424 549 436 538 q 390 568 411 561 q 338 575 369 575 q 266 560 296 575 q 236 513 236 546 q 249 480 236 493 q 283 458 261 467 q 335 444 306 450 q 396 433 364 439 q 490 415 442 425 q 577 382 538 404 q 642 323 617 360 q 667 226 667 286 q 642 117 667 163 q 574 43 617 72 q 472 0 531 14 q 346 -14 413 -14 q 215 4 272 -14 q 116 54 157 22 q 52 129 75 86 q 28 224 29 172 l 224 224 m 538 763 l 333 815 l 129 763 l 129 904 l 333 979 l 538 904 l 538 763 z "},"Ş":{"ha":817,"x_min":19,"x_max":789,"o":"m 397 -301 q 301 -265 338 -301 q 261 -176 264 -229 l 360 -176 q 373 -202 363 -192 q 399 -212 383 -212 q 425 -202 414 -212 q 436 -176 436 -192 q 426 -149 436 -160 q 399 -139 415 -139 l 293 -139 l 349 -15 q 110 79 193 -3 q 19 297 28 161 l 235 297 q 246 244 236 269 q 276 198 256 218 q 328 165 296 178 q 410 153 361 153 q 533 182 492 153 q 574 256 574 211 q 558 301 574 283 q 514 333 542 319 q 449 355 486 346 q 372 372 413 364 q 256 403 315 386 q 147 454 196 421 q 67 541 99 488 q 36 679 36 594 q 60 795 36 742 q 129 887 83 849 q 241 947 175 925 q 393 969 307 969 q 548 947 481 969 q 662 883 615 924 q 735 784 708 842 q 767 657 761 726 l 550 657 q 511 754 547 714 q 388 794 475 794 q 283 769 322 794 q 244 697 244 744 q 261 647 244 667 q 306 613 278 626 q 370 589 333 599 q 447 569 407 579 q 566 540 506 557 q 676 493 626 524 q 758 413 726 463 q 789 282 789 363 q 765 165 789 219 q 697 72 742 111 q 584 8 651 32 q 429 -18 517 -15 l 410 -58 q 499 -91 465 -58 q 533 -176 533 -124 q 497 -265 533 -228 q 397 -301 460 -301 z "},"ş":{"ha":690,"x_min":28,"x_max":667,"o":"m 224 224 q 230 190 224 207 q 251 160 236 174 q 292 136 267 146 q 356 126 317 126 q 435 147 410 126 q 461 193 461 168 q 451 222 461 210 q 425 240 442 233 q 385 252 408 247 q 336 261 363 257 q 237 279 289 269 q 141 312 185 289 q 69 376 97 335 q 40 490 40 418 q 61 581 40 539 q 120 653 82 622 q 213 703 158 685 q 335 721 267 721 q 551 657 471 721 q 640 485 632 593 l 447 485 q 441 521 446 504 q 424 549 436 538 q 390 568 411 561 q 338 575 369 575 q 266 560 296 575 q 236 513 236 546 q 249 480 236 493 q 283 458 261 467 q 335 444 306 450 q 396 433 364 439 q 490 415 442 425 q 577 382 538 404 q 642 323 617 360 q 667 226 667 286 q 642 117 667 163 q 574 43 617 72 q 471 0 531 14 q 403 -11 439 -7 q 386 -12 403 -11 l 364 -58 q 453 -91 419 -58 q 488 -176 488 -124 q 451 -265 488 -228 q 351 -301 414 -301 q 255 -265 292 -301 q 215 -176 218 -229 l 314 -176 q 327 -202 317 -192 q 353 -212 338 -212 q 379 -202 368 -212 q 390 -176 390 -192 q 380 -149 390 -160 q 353 -139 369 -139 l 247 -139 l 304 -12 q 214 4 256 -8 q 116 54 157 22 q 52 129 75 86 q 28 224 29 172 l 224 224 z "},"Š":{"ha":817,"x_min":19,"x_max":789,"o":"m 404 -18 q 126 66 222 -18 q 19 297 29 150 l 235 297 q 246 244 236 269 q 276 198 256 218 q 328 165 296 178 q 410 153 361 153 q 533 182 492 153 q 574 256 574 211 q 558 301 574 283 q 514 333 542 319 q 449 355 486 346 q 372 372 413 364 q 256 403 315 386 q 147 454 196 421 q 67 541 99 488 q 36 679 36 594 q 60 795 36 742 q 129 887 83 849 q 241 947 175 925 q 393 969 307 969 q 548 947 481 969 q 662 883 615 924 q 735 784 708 842 q 767 657 761 726 l 550 657 q 511 754 547 714 q 388 794 475 794 q 283 769 322 794 q 244 697 244 744 q 261 647 244 667 q 306 613 278 626 q 370 589 333 599 q 447 569 407 579 q 566 540 506 557 q 676 493 626 524 q 758 413 726 463 q 789 282 789 363 q 764 162 789 217 q 690 67 739 107 q 569 4 640 26 q 404 -18 497 -18 m 401 990 l 197 1065 l 197 1208 l 401 1154 l 606 1208 l 606 1065 l 401 990 z "},"š":{"ha":690,"x_min":28,"x_max":667,"o":"m 224 224 q 230 190 224 207 q 251 160 236 174 q 292 136 267 146 q 356 126 317 126 q 435 147 410 126 q 461 193 461 168 q 451 222 461 210 q 425 240 442 233 q 385 252 408 247 q 336 261 363 257 q 237 279 289 269 q 141 312 185 289 q 69 376 97 335 q 40 490 40 418 q 61 581 40 539 q 120 653 82 622 q 213 703 158 685 q 335 721 267 721 q 551 657 471 721 q 640 485 632 593 l 447 485 q 441 521 446 504 q 424 549 436 538 q 390 568 411 561 q 338 575 369 575 q 266 560 296 575 q 236 513 236 546 q 249 480 236 493 q 283 458 261 467 q 335 444 306 450 q 396 433 364 439 q 490 415 442 425 q 577 382 538 404 q 642 323 617 360 q 667 226 667 286 q 642 117 667 163 q 574 43 617 72 q 472 0 531 14 q 346 -14 413 -14 q 215 4 272 -14 q 116 54 157 22 q 52 129 75 86 q 28 224 29 172 l 224 224 m 333 756 l 129 831 l 129 974 l 333 919 l 538 974 l 538 831 l 333 756 z "},"Ţ":{"ha":824,"x_min":21,"x_max":803,"o":"m 418 -301 q 322 -265 358 -301 q 282 -176 285 -229 l 381 -176 q 394 -202 383 -192 q 419 -212 404 -212 q 446 -202 435 -212 q 457 -176 457 -192 q 447 -149 457 -160 q 419 -139 436 -139 l 314 -139 l 376 0 l 304 0 l 304 754 l 21 754 l 21 951 l 803 951 l 803 754 l 519 754 l 519 0 l 460 0 l 431 -58 q 520 -91 486 -58 q 554 -176 554 -124 q 517 -265 554 -228 q 418 -301 481 -301 z "},"ţ":{"ha":532,"x_min":28,"x_max":499,"o":"m 335 -301 q 238 -265 275 -301 q 199 -176 201 -229 l 297 -176 q 310 -202 300 -192 q 336 -212 321 -212 q 363 -202 351 -212 q 374 -176 374 -192 q 363 -149 374 -160 q 336 -139 353 -139 l 231 -139 l 299 11 q 171 90 211 32 q 131 244 131 149 l 131 540 l 28 540 l 28 713 l 131 713 l 131 896 l 324 896 l 324 713 l 499 713 l 499 540 l 324 540 l 324 254 q 347 185 324 206 q 418 165 369 165 l 499 165 l 499 0 l 404 0 l 376 0 l 347 -58 q 437 -91 403 -58 q 471 -176 471 -124 q 434 -265 471 -228 q 335 -301 397 -301 z "},"Ť":{"ha":824,"x_min":21,"x_max":803,"o":"m 304 0 l 304 754 l 21 754 l 21 951 l 803 951 l 803 754 l 519 754 l 519 0 l 304 0 m 413 994 l 208 1069 l 208 1213 l 413 1158 l 617 1213 l 617 1069 l 413 994 z "},"ť":{"ha":532,"x_min":28,"x_max":594,"o":"m 594 958 l 532 786 l 397 786 l 449 919 l 396 919 l 396 1121 l 594 1121 l 594 958 l 594 958 m 499 713 l 499 540 l 324 540 l 324 254 q 347 185 324 206 q 418 165 369 165 l 499 165 l 499 0 l 404 0 q 196 62 261 0 q 131 244 131 124 l 131 540 l 28 540 l 28 713 l 131 713 l 131 896 l 324 896 l 324 713 l 499 713 z "},"Ŧ":{"ha":824,"x_min":21,"x_max":803,"o":"m 519 347 l 519 0 l 304 0 l 304 347 l 110 347 l 110 529 l 304 529 l 304 754 l 21 754 l 21 951 l 803 951 l 803 754 l 519 754 l 519 529 l 714 529 l 714 347 l 519 347 z "},"ŧ":{"ha":532,"x_min":28,"x_max":499,"o":"m 131 540 l 28 540 l 28 713 l 131 713 l 131 896 l 324 896 l 324 713 l 499 713 l 499 540 l 324 540 l 324 456 l 499 456 l 499 283 l 324 283 l 324 254 q 347 185 324 206 q 418 165 369 165 l 499 165 l 499 0 l 404 0 q 196 62 261 0 q 131 244 131 124 l 131 283 l 28 283 l 28 456 l 131 456 l 131 540 z "},"Ũ":{"ha":925,"x_min":53,"x_max":872,"o":"m 465 -17 q 288 12 365 -17 q 159 92 211 40 q 80 217 107 144 q 53 378 53 289 l 53 951 l 268 951 l 268 407 q 319 241 268 299 q 464 183 369 183 q 607 241 557 183 q 657 407 657 299 l 657 951 l 872 951 l 872 378 q 846 217 872 289 q 767 92 819 144 q 640 12 715 40 q 465 -17 564 -17 m 575 1150 q 633 1163 606 1150 q 675 1188 661 1176 l 675 1060 q 625 1019 660 1040 q 549 999 590 999 q 494 1006 518 999 q 447 1021 469 1013 q 401 1036 424 1029 q 354 1043 379 1043 q 296 1030 324 1043 q 254 1006 268 1017 l 254 1133 q 304 1174 269 1153 q 381 1194 339 1194 q 435 1188 411 1194 q 483 1172 460 1181 q 528 1157 506 1164 q 575 1150 550 1150 z "},"ũ":{"ha":750,"x_min":39,"x_max":711,"o":"m 521 0 l 521 71 q 432 10 485 32 q 314 -12 379 -12 q 201 8 251 -12 q 114 67 150 29 q 58 157 78 104 q 39 275 39 210 l 39 713 l 231 713 l 231 308 q 265 205 231 244 q 363 165 300 165 q 476 207 433 165 q 519 324 519 249 l 519 713 l 711 713 l 711 0 l 521 0 m 486 911 q 544 924 517 911 q 586 949 572 938 l 586 821 q 536 781 571 801 q 460 760 501 760 q 405 767 429 760 q 358 782 381 774 q 313 797 335 790 q 265 804 290 804 q 207 791 235 804 q 165 767 179 778 l 165 894 q 215 935 181 914 q 292 956 250 956 q 347 949 322 956 q 394 933 371 942 q 439 918 417 925 q 486 911 461 911 z "},"Ū":{"ha":925,"x_min":53,"x_max":872,"o":"m 465 -17 q 288 12 365 -17 q 159 92 211 40 q 80 217 107 144 q 53 378 53 289 l 53 951 l 268 951 l 268 407 q 319 241 268 299 q 464 183 369 183 q 607 241 557 183 q 657 407 657 299 l 657 951 l 872 951 l 872 378 q 846 217 872 289 q 767 92 819 144 q 640 12 715 40 q 465 -17 564 -17 m 272 1032 l 272 1203 l 656 1203 l 656 1032 l 272 1032 z "},"ū":{"ha":750,"x_min":39,"x_max":711,"o":"m 521 0 l 521 71 q 432 10 485 32 q 314 -12 379 -12 q 201 8 251 -12 q 114 67 150 29 q 58 157 78 104 q 39 275 39 210 l 39 713 l 231 713 l 231 308 q 265 205 231 244 q 363 165 300 165 q 476 207 433 165 q 519 324 519 249 l 519 713 l 711 713 l 711 0 l 521 0 m 183 793 l 183 964 l 567 964 l 567 793 l 183 793 z "},"Ŭ":{"ha":925,"x_min":53,"x_max":872,"o":"m 465 -17 q 288 12 365 -17 q 159 92 211 40 q 80 217 107 144 q 53 378 53 289 l 53 951 l 268 951 l 268 407 q 319 241 268 299 q 464 183 369 183 q 607 241 557 183 q 657 407 657 299 l 657 951 l 872 951 l 872 378 q 846 217 872 289 q 767 92 819 144 q 640 12 715 40 q 465 -17 564 -17 m 464 1157 q 533 1163 500 1157 q 592 1179 565 1169 q 637 1199 618 1189 q 667 1217 656 1208 l 667 1079 q 641 1054 658 1068 q 598 1028 624 1040 q 539 1007 572 1015 q 464 999 506 999 q 389 1007 422 999 q 330 1028 356 1015 q 287 1054 304 1040 q 261 1079 269 1068 l 261 1217 q 290 1199 271 1208 q 336 1179 310 1189 q 395 1163 363 1169 q 464 1157 428 1157 z "},"ŭ":{"ha":750,"x_min":39,"x_max":711,"o":"m 521 0 l 521 71 q 432 10 485 32 q 314 -12 379 -12 q 201 8 251 -12 q 114 67 150 29 q 58 157 78 104 q 39 275 39 210 l 39 713 l 231 713 l 231 308 q 265 205 231 244 q 363 165 300 165 q 476 207 433 165 q 519 324 519 249 l 519 713 l 711 713 l 711 0 l 521 0 m 375 918 q 444 924 411 918 q 503 940 476 931 q 548 960 529 950 q 578 978 567 969 l 578 840 q 552 815 569 829 q 509 789 535 801 q 450 768 483 776 q 375 760 417 760 q 300 768 333 760 q 241 789 267 776 q 198 815 215 801 q 172 840 181 829 l 172 978 q 201 960 182 969 q 247 940 221 950 q 306 924 274 931 q 375 918 339 918 z "},"Ů":{"ha":925,"x_min":53,"x_max":872,"o":"m 465 -17 q 288 12 365 -17 q 159 92 211 40 q 80 217 107 144 q 53 378 53 289 l 53 951 l 268 951 l 268 407 q 319 241 268 299 q 464 183 369 183 q 607 241 557 183 q 657 407 657 299 l 657 951 l 872 951 l 872 378 q 846 217 872 289 q 767 92 819 144 q 640 12 715 40 q 465 -17 564 -17 m 464 1290 q 520 1279 493 1290 q 567 1249 547 1268 q 598 1204 586 1231 q 610 1147 610 1178 q 598 1089 610 1115 q 567 1044 586 1063 q 521 1014 547 1025 q 464 1003 494 1003 q 408 1014 435 1003 q 361 1044 381 1025 q 330 1089 342 1063 q 318 1147 318 1115 q 330 1204 318 1178 q 361 1249 342 1231 q 408 1279 381 1268 q 464 1290 435 1290 m 464 1201 q 427 1186 442 1201 q 413 1147 413 1171 q 427 1108 413 1124 q 464 1093 442 1093 q 501 1108 486 1093 q 515 1147 515 1124 q 501 1186 515 1171 q 464 1201 486 1201 z "},"ů":{"ha":750,"x_min":39,"x_max":711,"o":"m 521 0 l 521 71 q 432 10 485 32 q 314 -12 379 -12 q 201 8 251 -12 q 114 67 150 29 q 58 157 78 104 q 39 275 39 210 l 39 713 l 231 713 l 231 308 q 265 205 231 244 q 363 165 300 165 q 476 207 433 165 q 519 324 519 249 l 519 713 l 711 713 l 711 0 l 521 0 m 375 1051 q 431 1040 404 1051 q 478 1010 458 1029 q 509 965 497 992 q 521 908 521 939 q 509 850 521 876 q 478 805 497 824 q 432 775 458 786 q 375 764 406 764 q 319 775 346 764 q 272 805 292 786 q 241 850 253 824 q 229 908 229 876 q 241 965 229 939 q 272 1010 253 992 q 319 1040 292 1029 q 375 1051 346 1051 m 375 963 q 338 947 353 963 q 324 908 324 932 q 338 869 324 885 q 375 854 353 854 q 412 869 397 854 q 426 908 426 885 q 412 947 426 932 q 375 963 397 963 z "},"Ű":{"ha":925,"x_min":53,"x_max":872,"o":"m 465 -17 q 288 12 365 -17 q 159 92 211 40 q 80 217 107 144 q 53 378 53 289 l 53 951 l 268 951 l 268 407 q 319 241 268 299 q 464 183 369 183 q 607 241 557 183 q 657 407 657 299 l 657 951 l 872 951 l 872 378 q 846 217 872 289 q 767 92 819 144 q 640 12 715 40 q 465 -17 564 -17 m 240 1014 l 308 1218 l 497 1218 l 424 1014 l 240 1014 m 475 1014 l 549 1218 l 738 1218 l 658 1014 l 475 1014 z "},"ű":{"ha":750,"x_min":39,"x_max":711,"o":"m 521 0 l 521 71 q 432 10 485 32 q 314 -12 379 -12 q 201 8 251 -12 q 114 67 150 29 q 58 157 78 104 q 39 275 39 210 l 39 713 l 231 713 l 231 308 q 265 205 231 244 q 363 165 300 165 q 476 207 433 165 q 519 324 519 249 l 519 713 l 711 713 l 711 0 l 521 0 m 151 775 l 219 979 l 408 979 l 335 775 l 151 775 m 386 775 l 460 979 l 649 979 l 569 775 l 386 775 z "},"Ų":{"ha":925,"x_min":53,"x_max":872,"o":"m 564 -254 q 460 -221 499 -254 q 422 -135 422 -187 q 440 -67 422 -99 q 488 -17 458 -36 l 465 -17 q 288 12 365 -17 q 159 92 211 40 q 80 217 107 144 q 53 378 53 289 l 53 951 l 268 951 l 268 407 q 319 241 268 299 q 464 183 369 183 q 607 241 557 183 q 657 407 657 299 l 657 951 l 872 951 l 872 378 q 806 138 872 236 q 611 3 739 39 l 613 0 q 556 -48 574 -19 q 538 -106 538 -76 q 593 -156 538 -156 q 619 -154 608 -156 q 639 -150 631 -153 q 657 -143 649 -147 l 657 -229 q 633 -242 647 -236 q 604 -251 622 -247 q 564 -254 586 -254 z "},"ų":{"ha":750,"x_min":39,"x_max":713,"o":"m 713 -229 q 689 -242 703 -236 q 660 -251 678 -247 q 619 -254 642 -254 q 516 -221 554 -254 q 478 -135 478 -187 q 505 -53 478 -89 q 574 0 532 -17 l 521 0 l 521 71 q 432 10 485 32 q 314 -12 379 -12 q 201 8 251 -12 q 114 67 150 29 q 58 157 78 104 q 39 275 39 210 l 39 713 l 231 713 l 231 308 q 265 205 231 244 q 363 165 300 165 q 476 207 433 165 q 519 324 519 249 l 519 713 l 711 713 l 711 0 l 668 0 q 611 -48 629 -19 q 593 -106 593 -76 q 649 -156 593 -156 q 675 -154 664 -156 q 694 -150 686 -153 q 713 -143 704 -147 l 713 -229 l 713 -229 z "},"Ŵ":{"ha":1332,"x_min":13,"x_max":1319,"o":"m 664 588 l 500 0 l 244 0 l 13 951 l 239 951 l 385 268 l 575 951 l 765 951 l 954 261 l 1106 951 l 1319 951 l 1088 0 l 831 0 l 664 588 m 871 1001 l 667 1054 l 463 1001 l 463 1143 l 667 1218 l 871 1143 l 871 1001 z "},"ŵ":{"ha":1079,"x_min":14,"x_max":1065,"o":"m 538 407 l 440 0 l 196 0 l 14 713 l 208 713 l 325 222 l 446 713 l 640 713 l 760 219 l 878 713 l 1065 713 l 882 0 l 635 0 l 538 407 m 744 763 l 540 815 l 336 763 l 336 904 l 540 979 l 744 904 l 744 763 z "},"Ŷ":{"ha":932,"x_min":13,"x_max":921,"o":"m 358 0 l 358 356 l 13 951 l 250 951 l 469 551 l 690 951 l 921 951 l 575 354 l 575 0 l 358 0 m 671 1001 l 467 1054 l 263 1001 l 263 1143 l 467 1218 l 671 1143 l 671 1001 z "},"ŷ":{"ha":736,"x_min":13,"x_max":724,"o":"m 485 25 q 430 -97 460 -46 q 361 -182 400 -149 q 272 -231 322 -215 q 157 -246 222 -246 l 88 -246 l 88 -72 l 146 -72 q 226 -47 194 -72 q 278 19 258 -22 l 13 713 l 233 713 l 379 274 l 524 713 l 724 713 l 485 25 m 572 763 l 368 815 l 164 763 l 164 904 l 368 979 l 572 904 l 572 763 z "},"Ÿ":{"ha":932,"x_min":13,"x_max":921,"o":"m 358 0 l 358 356 l 13 951 l 250 951 l 469 551 l 690 951 l 921 951 l 575 354 l 575 0 l 358 0 m 254 1011 l 254 1190 l 440 1190 l 440 1011 l 254 1011 m 493 1011 l 493 1190 l 679 1190 l 679 1011 l 493 1011 z "},"Ź":{"ha":817,"x_min":38,"x_max":776,"o":"m 307 193 l 776 193 l 776 0 l 38 0 l 38 178 l 497 758 l 39 758 l 39 951 l 768 951 l 768 771 l 307 193 m 251 999 l 251 1169 l 576 1249 l 576 1074 l 251 999 z "},"ź":{"ha":663,"x_min":31,"x_max":629,"o":"m 297 168 l 629 168 l 629 0 l 33 0 l 33 150 l 364 542 l 31 542 l 31 713 l 628 713 l 628 560 l 297 168 m 175 760 l 175 931 l 500 1010 l 500 835 l 175 760 z "},"Ż":{"ha":817,"x_min":38,"x_max":776,"o":"m 307 193 l 776 193 l 776 0 l 38 0 l 38 178 l 497 758 l 39 758 l 39 951 l 768 951 l 768 771 l 307 193 m 311 1013 l 311 1190 l 506 1190 l 506 1013 l 311 1013 z "},"ż":{"ha":663,"x_min":31,"x_max":629,"o":"m 297 168 l 629 168 l 629 0 l 33 0 l 33 150 l 364 542 l 31 542 l 31 713 l 628 713 l 628 560 l 297 168 m 235 774 l 235 951 l 429 951 l 429 774 l 235 774 z "},"Ž":{"ha":817,"x_min":38,"x_max":776,"o":"m 307 193 l 776 193 l 776 0 l 38 0 l 38 178 l 497 758 l 39 758 l 39 951 l 768 951 l 768 771 l 307 193 m 408 994 l 204 1069 l 204 1213 l 408 1158 l 613 1213 l 613 1069 l 408 994 z "},"ž":{"ha":663,"x_min":31,"x_max":629,"o":"m 297 168 l 629 168 l 629 0 l 33 0 l 33 150 l 364 542 l 31 542 l 31 713 l 628 713 l 628 560 l 297 168 m 332 756 l 128 831 l 128 974 l 332 919 l 536 974 l 536 831 l 332 756 z "},"ƒ":{"ha":519,"x_min":18,"x_max":492,"o":"m 425 801 q 354 783 378 801 q 331 719 331 764 l 331 713 l 492 713 l 492 542 l 331 542 l 331 54 q 249 -174 331 -106 q 18 -243 167 -243 l 18 -74 q 109 -43 79 -74 q 139 54 139 -12 l 139 542 l 28 542 l 28 713 l 139 713 l 139 721 q 208 897 139 836 q 418 958 276 958 l 492 958 l 492 801 l 425 801 z "},"Ș":{"ha":817,"x_min":19,"x_max":789,"o":"m 404 -18 q 126 66 222 -18 q 19 297 29 150 l 235 297 q 246 244 236 269 q 276 198 256 218 q 328 165 296 178 q 410 153 361 153 q 533 182 492 153 q 574 256 574 211 q 558 301 574 283 q 514 333 542 319 q 449 355 486 346 q 372 372 413 364 q 256 403 315 386 q 147 454 196 421 q 67 541 99 488 q 36 679 36 594 q 60 795 36 742 q 129 887 83 849 q 241 947 175 925 q 393 969 307 969 q 548 947 481 969 q 662 883 615 924 q 735 784 708 842 q 767 657 761 726 l 550 657 q 511 754 547 714 q 388 794 475 794 q 283 769 322 794 q 244 697 244 744 q 261 647 244 667 q 306 613 278 626 q 370 589 333 599 q 447 569 407 579 q 566 540 506 557 q 676 493 626 524 q 758 413 726 463 q 789 282 789 363 q 764 162 789 217 q 690 67 739 107 q 569 4 640 26 q 404 -18 497 -18 m 446 -304 l 322 -304 l 365 -207 l 321 -207 l 321 -58 l 499 -58 l 499 -174 l 446 -304 z "},"ș":{"ha":690,"x_min":28,"x_max":667,"o":"m 224 224 q 230 190 224 207 q 251 160 236 174 q 292 136 267 146 q 356 126 317 126 q 435 147 410 126 q 461 193 461 168 q 451 222 461 210 q 425 240 442 233 q 385 252 408 247 q 336 261 363 257 q 237 279 289 269 q 141 312 185 289 q 69 376 97 335 q 40 490 40 418 q 61 581 40 539 q 120 653 82 622 q 213 703 158 685 q 335 721 267 721 q 551 657 471 721 q 640 485 632 593 l 447 485 q 441 521 446 504 q 424 549 436 538 q 390 568 411 561 q 338 575 369 575 q 266 560 296 575 q 236 513 236 546 q 249 480 236 493 q 283 458 261 467 q 335 444 306 450 q 396 433 364 439 q 490 415 442 425 q 577 382 538 404 q 642 323 617 360 q 667 226 667 286 q 642 117 667 163 q 574 43 617 72 q 472 0 531 14 q 346 -14 413 -14 q 215 4 272 -14 q 116 54 157 22 q 52 129 75 86 q 28 224 29 172 l 224 224 m 400 -304 l 276 -304 l 319 -207 l 275 -207 l 275 -58 l 453 -58 l 453 -174 l 400 -304 z "},"Ț":{"ha":824,"x_min":21,"x_max":803,"o":"m 304 0 l 304 754 l 21 754 l 21 951 l 803 951 l 803 754 l 519 754 l 519 0 l 304 0 m 449 -304 l 325 -304 l 368 -207 l 324 -207 l 324 -58 l 501 -58 l 501 -174 l 449 -304 z "},"ț":{"ha":532,"x_min":28,"x_max":499,"o":"m 499 713 l 499 540 l 324 540 l 324 254 q 347 185 324 206 q 418 165 369 165 l 499 165 l 499 0 l 404 0 q 196 62 261 0 q 131 244 131 124 l 131 540 l 28 540 l 28 713 l 131 713 l 131 896 l 324 896 l 324 713 l 499 713 m 368 -304 l 244 -304 l 288 -207 l 243 -207 l 243 -58 l 421 -58 l 421 -174 l 368 -304 z "},"ȷ":{"ha":271,"x_min":-75,"x_max":232,"o":"m 232 51 q 215 -85 232 -29 q 160 -178 197 -142 q 65 -231 124 -214 q -75 -247 7 -247 l -75 -76 q 11 -49 -17 -76 q 39 38 39 -22 l 39 713 l 232 713 l 232 51 z "},"ə":{"ha":792,"x_min":28,"x_max":765,"o":"m 53 557 q 188 681 106 636 q 390 726 271 726 q 544 698 475 726 q 663 620 614 669 q 739 503 713 571 q 765 356 765 435 q 738 210 765 278 q 661 92 711 143 q 542 13 611 42 q 389 -17 472 -17 q 238 11 304 -17 q 124 88 171 39 q 53 202 78 136 q 28 346 28 268 q 29 389 28 367 q 31 414 31 411 l 575 414 q 510 522 560 482 q 386 563 461 563 q 274 537 321 563 q 197 468 228 511 l 53 557 m 390 142 q 503 176 458 142 q 568 271 549 210 l 222 271 q 285 174 238 206 q 390 142 332 142 z "},"ˆ":{"ha":556,"x_min":74,"x_max":482,"o":"m 482 763 l 278 815 l 74 763 l 74 904 l 278 979 l 482 904 l 482 763 z "},"ˇ":{"ha":556,"x_min":74,"x_max":482,"o":"m 278 756 l 74 831 l 74 974 l 278 919 l 482 974 l 482 831 l 278 756 z "},"˘":{"ha":556,"x_min":75,"x_max":481,"o":"m 278 918 q 347 924 314 918 q 406 940 379 931 q 451 960 432 950 q 481 978 469 969 l 481 840 q 455 815 472 829 q 412 789 438 801 q 353 768 386 776 q 278 760 319 760 q 203 768 236 760 q 144 789 169 776 q 101 815 118 801 q 75 840 83 829 l 75 978 q 104 960 85 969 q 150 940 124 950 q 209 924 176 931 q 278 918 242 918 z "},"˙":{"ha":556,"x_min":181,"x_max":375,"o":"m 181 774 l 181 951 l 375 951 l 375 774 l 181 774 z "},"˚":{"ha":556,"x_min":132,"x_max":424,"o":"m 278 1051 q 334 1040 307 1051 q 381 1010 361 1029 q 412 965 400 992 q 424 908 424 939 q 412 850 424 876 q 381 805 400 824 q 335 775 361 786 q 278 764 308 764 q 222 775 249 764 q 175 805 194 786 q 144 850 156 824 q 132 908 132 876 q 144 965 132 939 q 175 1010 156 992 q 222 1040 194 1029 q 278 1051 249 1051 m 278 963 q 241 947 256 963 q 226 908 226 932 q 241 869 226 885 q 278 854 256 854 q 315 869 300 854 q 329 908 329 885 q 315 947 329 932 q 278 963 300 963 z "},"˛":{"ha":556,"x_min":167,"x_max":401,"o":"m 357 0 q 300 -48 318 -19 q 282 -106 282 -76 q 338 -156 282 -156 q 364 -154 353 -156 q 383 -150 375 -153 q 401 -143 393 -147 l 401 -229 q 378 -242 392 -236 q 349 -251 367 -247 q 308 -254 331 -254 q 205 -221 243 -254 q 167 -135 167 -187 q 199 -47 167 -85 q 278 6 231 -8 l 340 24 l 357 0 z "},"˜":{"ha":556,"x_min":68,"x_max":489,"o":"m 389 911 q 447 924 419 911 q 489 949 475 938 l 489 821 q 439 781 474 801 q 363 760 404 760 q 308 767 332 760 q 260 782 283 774 q 215 797 238 790 q 168 804 193 804 q 110 791 138 804 q 68 767 82 778 l 68 894 q 118 935 83 914 q 194 956 153 956 q 249 949 225 956 q 297 933 274 942 q 342 918 319 925 q 389 911 364 911 z "},"˝":{"ha":556,"x_min":54,"x_max":551,"o":"m 54 775 l 122 979 l 311 979 l 238 775 l 54 775 m 289 775 l 363 979 l 551 979 l 472 775 l 289 775 z "},"Ẁ":{"ha":1332,"x_min":13,"x_max":1319,"o":"m 664 588 l 500 0 l 244 0 l 13 951 l 239 951 l 385 268 l 575 951 l 765 951 l 954 261 l 1106 951 l 1319 951 l 1088 0 l 831 0 l 664 588 m 821 993 l 496 1069 l 496 1243 l 821 1164 l 821 993 z "},"ẁ":{"ha":1079,"x_min":14,"x_max":1065,"o":"m 538 407 l 440 0 l 196 0 l 14 713 l 208 713 l 325 222 l 446 713 l 640 713 l 760 219 l 878 713 l 1065 713 l 882 0 l 635 0 l 538 407 m 694 754 l 369 831 l 369 1004 l 694 925 l 694 754 z "},"Ẃ":{"ha":1332,"x_min":13,"x_max":1319,"o":"m 664 588 l 500 0 l 244 0 l 13 951 l 239 951 l 385 268 l 575 951 l 765 951 l 954 261 l 1106 951 l 1319 951 l 1088 0 l 831 0 l 664 588 m 510 999 l 510 1169 l 835 1249 l 835 1074 l 510 999 z "},"ẃ":{"ha":1079,"x_min":14,"x_max":1065,"o":"m 538 407 l 440 0 l 196 0 l 14 713 l 208 713 l 325 222 l 446 713 l 640 713 l 760 219 l 878 713 l 1065 713 l 882 0 l 635 0 l 538 407 m 383 760 l 383 931 l 708 1010 l 708 835 l 383 760 z "},"Ẅ":{"ha":1332,"x_min":13,"x_max":1319,"o":"m 664 588 l 500 0 l 244 0 l 13 951 l 239 951 l 385 268 l 575 951 l 765 951 l 954 261 l 1106 951 l 1319 951 l 1088 0 l 831 0 l 664 588 m 454 1011 l 454 1190 l 640 1190 l 640 1011 l 454 1011 m 693 1011 l 693 1190 l 879 1190 l 879 1011 l 693 1011 z "},"ẅ":{"ha":1079,"x_min":14,"x_max":1065,"o":"m 538 407 l 440 0 l 196 0 l 14 713 l 208 713 l 325 222 l 446 713 l 640 713 l 760 219 l 878 713 l 1065 713 l 882 0 l 635 0 l 538 407 m 328 772 l 328 951 l 514 951 l 514 772 l 328 772 m 567 772 l 567 951 l 753 951 l 753 772 l 567 772 z "},"Ỳ":{"ha":932,"x_min":13,"x_max":921,"o":"m 358 0 l 358 356 l 13 951 l 250 951 l 469 551 l 690 951 l 921 951 l 575 354 l 575 0 l 358 0 m 621 993 l 296 1069 l 296 1243 l 621 1164 l 621 993 z "},"ỳ":{"ha":736,"x_min":13,"x_max":724,"o":"m 485 25 q 430 -97 460 -46 q 361 -182 400 -149 q 272 -231 322 -215 q 157 -246 222 -246 l 88 -246 l 88 -72 l 146 -72 q 226 -47 194 -72 q 278 19 258 -22 l 13 713 l 233 713 l 379 274 l 524 713 l 724 713 l 485 25 m 522 754 l 197 831 l 197 1004 l 522 925 l 522 754 z "},"‒":{"ha":611,"x_min":25,"x_max":586,"o":"m 25 307 l 25 488 l 586 488 l 586 307 l 25 307 z "},"–":{"ha":611,"x_min":25,"x_max":586,"o":"m 25 304 l 25 488 l 586 488 l 586 304 l 25 304 z "},"—":{"ha":1157,"x_min":25,"x_max":1132,"o":"m 25 304 l 25 486 l 1132 486 l 1132 304 l 25 304 z "},"‘":{"ha":279,"x_min":42,"x_max":240,"o":"m 104 951 l 238 951 l 188 818 l 240 818 l 240 617 l 42 617 l 42 779 l 104 951 z "},"’":{"ha":279,"x_min":42,"x_max":240,"o":"m 178 617 l 43 617 l 94 750 l 42 750 l 42 951 l 240 951 l 240 789 l 178 617 z "},"‚":{"ha":279,"x_min":42,"x_max":240,"o":"m 178 -133 l 43 -133 l 94 0 l 42 0 l 42 201 l 240 201 l 240 39 l 178 -133 z "},"“":{"ha":511,"x_min":38,"x_max":468,"o":"m 339 951 l 467 951 l 415 818 l 468 818 l 468 617 l 276 617 l 276 779 l 339 951 m 100 951 l 228 951 l 178 818 l 231 818 l 231 617 l 38 617 l 38 779 l 100 951 z "},"”":{"ha":506,"x_min":38,"x_max":468,"o":"m 168 617 l 40 617 l 90 750 l 38 750 l 38 951 l 231 951 l 231 789 l 168 617 m 406 617 l 279 617 l 329 750 l 276 750 l 276 951 l 468 951 l 468 789 l 406 617 z "},"„":{"ha":508,"x_min":38,"x_max":468,"o":"m 168 -133 l 40 -133 l 90 0 l 38 0 l 38 201 l 231 201 l 231 39 l 168 -133 m 406 -133 l 279 -133 l 329 0 l 276 0 l 276 201 l 468 201 l 468 39 l 406 -133 z "},"†":{"ha":538,"x_min":22,"x_max":515,"o":"m 515 638 l 515 460 l 364 460 l 364 -199 l 174 -199 l 174 460 l 22 460 l 22 638 l 174 638 l 174 875 l 364 875 l 364 638 l 515 638 z "},"‡":{"ha":538,"x_min":22,"x_max":515,"o":"m 515 639 l 515 461 l 364 461 l 364 226 l 515 226 l 515 49 l 364 49 l 364 -199 l 174 -199 l 174 49 l 22 49 l 22 226 l 174 226 l 174 461 l 22 461 l 22 639 l 174 639 l 174 875 l 364 875 l 364 639 l 515 639 z "},"•":{"ha":397,"x_min":42,"x_max":356,"o":"m 199 553 q 260 541 232 553 q 310 508 289 529 q 344 459 332 488 q 356 397 356 431 q 344 335 356 364 q 310 286 332 307 q 260 253 289 265 q 199 242 232 242 q 137 253 165 242 q 87 286 108 265 q 53 335 65 307 q 42 397 42 364 q 53 459 42 431 q 87 508 65 488 q 137 541 108 529 q 199 553 165 553 z "},"…":{"ha":838,"x_min":39,"x_max":797,"o":"m 39 0 l 39 201 l 239 201 l 239 0 l 39 0 m 318 0 l 318 201 l 518 201 l 518 0 l 318 0 m 597 0 l 597 201 l 797 201 l 797 0 l 597 0 z "},"‹":{"ha":428,"x_min":24,"x_max":406,"o":"m 406 86 l 210 86 l 24 397 l 210 714 l 406 714 l 218 397 l 406 86 z "},"›":{"ha":428,"x_min":24,"x_max":406,"o":"m 24 714 l 218 714 l 406 397 l 218 86 l 24 86 l 210 397 l 24 714 z "},"⁄":{"ha":28,"x_min":-272,"x_max":336,"o":"m -272 0 l 153 951 l 336 951 l -89 0 l -272 0 z "},"⁰":{"ha":465,"x_min":24,"x_max":440,"o":"m 24 761 q 81 903 24 849 q 232 958 138 958 q 384 903 328 958 q 440 761 440 849 l 440 596 q 384 454 440 508 q 232 400 328 400 q 147 414 185 400 q 81 454 108 428 q 39 516 54 481 q 24 596 24 551 l 24 761 m 304 756 q 285 813 304 792 q 232 833 265 833 q 179 813 199 833 q 160 756 160 792 l 160 601 q 179 545 160 567 q 232 524 199 524 q 285 545 265 524 q 304 601 304 567 l 304 756 z "},"⁴":{"ha":479,"x_min":22,"x_max":457,"o":"m 457 625 l 457 513 l 404 513 l 404 408 l 275 408 l 275 513 l 22 513 l 22 625 l 258 954 l 404 954 l 404 625 l 457 625 m 275 625 l 275 783 l 161 625 l 275 625 z "},"⁵":{"ha":460,"x_min":25,"x_max":439,"o":"m 178 836 l 164 764 q 199 778 175 771 q 251 785 224 785 q 324 772 290 785 q 384 735 358 758 q 424 677 410 711 q 439 601 439 643 q 424 521 439 558 q 381 456 408 483 q 314 414 353 429 q 228 399 275 399 q 103 431 153 399 q 25 518 53 463 l 132 581 q 167 534 146 554 q 226 514 189 514 q 287 537 263 514 q 311 599 311 560 q 288 657 311 635 q 226 679 264 679 q 173 663 194 679 q 140 626 151 646 l 33 657 l 88 953 l 390 953 l 390 836 l 178 836 z "},"⁶":{"ha":447,"x_min":19,"x_max":433,"o":"m 219 788 q 233 790 226 789 q 247 790 240 790 q 322 776 288 790 q 381 735 356 761 q 419 675 406 710 q 433 600 433 640 q 419 524 433 560 q 377 460 404 488 q 312 415 350 432 q 226 399 274 399 q 141 414 179 399 q 76 457 103 429 q 34 522 49 485 q 19 603 19 558 q 29 671 19 638 q 57 738 39 704 l 178 953 l 314 953 l 219 788 m 226 683 q 165 658 190 683 q 140 597 140 633 q 165 536 140 561 q 226 511 190 511 q 287 536 263 511 q 311 597 311 561 q 287 658 311 633 q 226 683 263 683 z "},"⁷":{"ha":429,"x_min":22,"x_max":406,"o":"m 207 408 l 61 408 l 271 829 l 22 829 l 22 951 l 406 951 l 406 832 l 207 408 z "},"⁸":{"ha":454,"x_min":28,"x_max":424,"o":"m 226 960 q 349 915 304 960 q 393 808 393 871 q 349 710 393 751 q 403 656 382 690 q 424 579 424 621 q 410 508 424 542 q 369 451 396 475 q 307 414 343 428 q 226 400 271 400 q 82 450 136 400 q 28 579 28 500 q 49 655 28 621 q 101 708 69 689 q 60 808 60 753 q 103 916 60 872 q 226 960 147 960 m 226 861 q 186 846 201 861 q 171 806 171 831 q 186 767 171 782 q 226 753 201 753 q 265 767 250 753 q 281 806 281 782 q 265 846 281 831 q 226 861 250 861 m 226 651 q 172 631 193 651 q 150 578 150 610 q 172 524 150 544 q 226 503 193 503 q 281 524 258 503 q 303 578 303 544 q 281 631 303 610 q 226 651 258 651 z "},"⁹":{"ha":447,"x_min":18,"x_max":431,"o":"m 232 571 q 218 569 225 569 q 203 568 211 568 q 128 583 163 568 q 70 622 94 597 q 32 682 46 647 q 18 757 18 717 q 33 833 18 796 q 74 897 47 869 q 139 942 101 925 q 224 958 176 958 q 309 943 271 958 q 374 901 347 928 q 416 836 401 874 q 431 756 431 799 q 421 687 431 719 q 392 619 411 654 l 275 408 l 139 408 l 232 571 m 224 846 q 163 821 188 846 q 139 760 139 796 q 163 699 139 724 q 224 674 188 674 q 285 699 261 674 q 310 760 310 724 q 285 821 310 796 q 224 846 261 846 z "},"€":{"ha":808,"x_min":24,"x_max":786,"o":"m 332 290 q 376 206 339 238 q 469 174 413 174 q 561 201 526 174 q 617 269 596 229 l 786 171 q 663 38 742 89 q 467 -14 585 -14 q 329 9 390 -14 q 225 72 268 32 q 157 169 182 113 q 129 290 132 225 l 24 290 l 24 447 l 128 447 l 128 506 l 24 506 l 24 661 l 129 661 q 156 783 131 726 q 224 880 181 839 q 329 944 268 921 q 467 968 390 968 q 663 917 586 968 q 785 783 740 867 l 613 686 q 558 753 593 726 q 469 779 524 779 q 374 748 411 779 q 332 661 338 717 l 538 661 l 538 506 l 331 506 l 331 447 l 538 447 l 538 290 l 332 290 l 332 290 z "},"™":{"ha":1251,"x_min":28,"x_max":1225,"o":"m 378 829 l 378 679 l 260 679 l 260 531 q 278 474 260 490 q 336 458 296 458 l 378 458 l 378 315 l 322 315 q 151 365 204 315 q 99 517 99 415 l 99 679 l 28 679 l 28 829 l 99 829 l 99 953 l 260 953 l 260 829 l 378 829 m 606 789 q 661 825 633 813 q 724 838 689 838 q 802 822 767 838 q 864 779 838 807 q 923 819 885 800 q 1019 838 961 838 q 1170 780 1115 838 q 1225 629 1225 722 l 1225 315 l 1063 315 l 1063 607 q 1046 663 1063 642 q 997 685 1029 685 q 940 662 961 685 q 917 599 918 639 l 917 315 l 756 315 l 756 607 q 739 663 756 642 q 690 685 722 685 q 632 661 654 685 q 610 597 610 638 l 610 315 l 447 315 l 447 829 l 606 829 l 606 789 z "},"⅓":{"ha":1025,"x_min":19,"x_max":1007,"o":"m 83 408 l 83 829 l 19 829 l 19 951 l 217 951 l 217 408 l 83 408 m 878 356 q 972 298 938 342 q 1007 190 1007 254 q 992 112 1007 149 q 949 48 976 75 q 882 6 921 21 q 794 -10 843 -10 q 669 23 719 -10 q 592 110 619 56 l 699 172 q 737 124 714 142 q 796 106 760 106 q 857 128 835 106 q 879 188 879 151 q 856 242 879 222 q 796 263 833 263 q 735 244 761 263 l 678 332 l 817 429 l 626 429 l 626 543 l 972 543 l 972 424 l 878 356 m 144 0 l 569 951 l 753 951 l 328 0 l 144 0 z "},"⅔":{"ha":1192,"x_min":14,"x_max":1174,"o":"m 14 839 q 97 926 46 892 q 225 960 149 960 q 372 910 319 960 q 424 789 424 861 q 417 733 424 758 q 393 682 410 707 q 351 631 376 657 q 288 572 325 604 l 219 519 l 425 519 l 425 408 l 36 408 l 36 515 l 219 669 q 275 724 256 700 q 294 779 294 747 q 275 826 294 808 q 222 843 256 843 q 162 824 186 843 q 118 776 138 806 l 14 839 m 1044 356 q 1139 298 1104 342 q 1174 190 1174 254 q 1158 112 1174 149 q 1115 48 1143 75 q 1049 6 1088 21 q 961 -10 1010 -10 q 836 23 886 -10 q 758 110 786 56 l 865 172 q 903 124 881 142 q 963 106 926 106 q 1024 128 1001 106 q 1046 188 1046 151 q 1023 242 1046 222 q 963 263 1000 263 q 901 244 928 263 l 844 332 l 983 429 l 793 429 l 793 543 l 1139 543 l 1139 424 l 1044 356 m 311 0 l 736 951 l 919 951 l 494 0 l 311 0 z "},"−":{"ha":611,"x_min":25,"x_max":586,"o":"m 25 307 l 25 488 l 586 488 l 586 307 l 25 307 z "},"≈":{"ha":611,"x_min":25,"x_max":586,"o":"m 418 404 q 345 413 378 404 q 282 433 313 422 q 222 452 251 443 q 158 461 192 461 q 85 445 122 461 q 25 410 49 429 l 25 567 q 92 618 50 593 q 193 643 133 643 q 267 634 233 643 q 331 614 300 625 q 390 594 361 603 q 453 585 419 585 q 526 600 489 585 q 586 635 563 615 l 586 482 q 519 430 561 456 q 418 404 478 404 m 418 144 q 345 153 378 144 q 282 174 313 163 q 222 194 251 185 q 158 203 192 203 q 85 186 122 203 q 25 150 49 169 l 25 307 q 92 358 50 333 q 193 382 133 382 q 267 373 233 382 q 331 353 300 364 q 390 334 361 343 q 453 325 419 325 q 526 340 489 325 q 586 375 563 356 l 586 222 q 519 170 561 196 q 418 144 478 144 z "},"≠":{"ha":611,"x_min":25,"x_max":586,"o":"m 586 621 l 586 429 l 403 429 l 385 360 l 586 360 l 586 168 l 335 168 l 288 -11 l 110 -11 l 157 168 l 25 168 l 25 360 l 207 360 l 225 429 l 25 429 l 25 621 l 275 621 l 322 803 l 500 803 l 453 621 l 586 621 z "},"≤":{"ha":611,"x_min":25,"x_max":586,"o":"m 276 496 l 586 401 l 586 214 l 25 419 l 25 574 l 586 776 l 586 593 l 276 496 m 25 0 l 25 175 l 586 175 l 586 0 l 25 0 z "},"≥":{"ha":611,"x_min":25,"x_max":586,"o":"m 586 418 l 25 214 l 25 399 l 335 494 l 25 590 l 25 776 l 586 574 l 586 418 m 25 0 l 25 175 l 586 175 l 586 0 l 25 0 z "},"":{"ha":694,"x_min":258,"x_max":436,"o":"m 383 -304 l 260 -304 l 303 -207 l 258 -207 l 258 -58 l 436 -58 l 436 -174 l 383 -304 z "},"":{"ha":6944,"x_min":0,"x_max":6900,"o":"m 4567 776 l 4396 776 l 4396 946 l 4567 946 l 4567 776 m 6826 867 q 6876 846 6856 867 q 6897 794 6897 825 q 6876 743 6897 764 q 6826 722 6856 722 q 6776 743 6797 722 q 6756 794 6756 764 q 6776 846 6756 825 q 6826 867 6797 867 m 6826 857 q 6784 839 6801 857 q 6767 794 6767 821 q 6784 750 6767 768 q 6826 732 6801 732 q 6869 750 6851 732 q 6886 794 6886 768 q 6869 839 6886 821 q 6826 857 6851 857 m 6815 819 l 6815 799 l 6829 799 q 6844 810 6844 799 q 6832 819 6844 819 l 6815 819 m 6833 829 q 6856 810 6856 829 q 6838 792 6856 794 l 6857 757 l 6844 757 l 6825 790 l 6815 790 l 6815 757 l 6804 757 l 6804 829 l 6833 829 m 2504 558 l 0 558 l 0 710 l 2504 710 l 2504 558 m 4567 0 l 4396 0 l 4396 710 l 4567 710 l 4567 0 m 3114 554 q 3039 538 3075 554 q 2976 493 3003 521 q 2932 428 2949 465 q 2915 350 2915 392 q 2932 272 2915 308 q 2976 206 2949 235 q 3039 162 3003 178 q 3114 146 3075 146 q 3194 162 3157 146 q 3260 206 3232 178 q 3306 272 3289 235 q 3322 350 3322 308 q 3306 428 3322 392 q 3260 493 3289 465 q 3194 538 3232 521 q 3114 554 3157 554 m 3929 554 q 3849 538 3886 554 q 3785 493 3813 521 q 3743 428 3758 465 q 3728 350 3728 392 q 3743 272 3728 308 q 3785 206 3758 235 q 3849 162 3813 178 q 3929 146 3886 146 q 4008 162 3971 146 q 4072 206 4044 178 q 4117 272 4100 235 q 4133 350 4133 308 q 4117 428 4133 392 q 4072 493 4100 465 q 4008 538 4044 521 q 3929 554 3971 554 m 5013 554 q 4934 538 4971 554 q 4869 493 4897 521 q 4826 428 4842 465 q 4810 350 4810 392 q 4826 272 4810 308 q 4869 206 4842 235 q 4934 162 4897 178 q 5013 146 4971 146 q 5091 162 5054 146 q 5155 206 5128 178 q 5197 272 5182 235 q 5213 350 5213 308 q 5197 428 5213 392 q 5155 493 5182 465 q 5091 538 5128 521 q 5013 554 5054 554 m 5824 554 q 5744 538 5782 554 q 5679 493 5707 521 q 5635 428 5651 465 q 5618 350 5618 392 q 5635 272 5618 308 q 5679 206 5651 235 q 5744 162 5707 178 q 5824 146 5782 146 q 5898 162 5863 146 q 5960 206 5933 178 q 6002 272 5986 235 q 6018 350 6018 308 q 6002 428 6018 392 q 5960 493 5986 465 q 5898 538 5933 521 q 5824 554 5863 554 m 2504 275 l 0 275 l 0 426 l 2504 426 l 2504 275 m 6449 225 q 6455 190 6449 208 q 6477 156 6461 171 q 6521 129 6493 140 q 6592 118 6549 118 q 6681 142 6653 118 q 6708 193 6708 165 q 6676 241 6708 226 q 6597 264 6644 256 q 6494 281 6550 272 q 6390 310 6438 289 q 6311 373 6343 332 q 6279 489 6279 414 q 6299 578 6279 536 q 6358 650 6319 619 q 6449 699 6396 681 q 6569 717 6503 717 q 6783 652 6703 717 q 6871 483 6863 588 l 6693 483 q 6688 515 6692 497 q 6674 547 6685 532 q 6640 571 6663 561 q 6578 581 6617 581 q 6497 567 6529 581 q 6461 517 6465 553 q 6494 471 6461 486 q 6575 446 6526 456 q 6681 425 6624 436 q 6786 392 6738 414 q 6867 331 6835 371 q 6900 225 6900 292 q 6875 116 6900 161 q 6806 42 6850 71 q 6704 1 6763 14 q 6581 -12 6646 -12 q 6452 6 6510 -12 q 6353 55 6394 24 q 6290 130 6313 86 q 6265 225 6267 174 l 6449 225 m 2504 0 l 0 0 l 0 144 l 2504 144 l 2504 0 m 4310 0 l 4133 0 l 4133 50 q 4034 3 4086 19 q 3924 -12 3982 -12 q 3782 15 3849 -12 q 3665 92 3715 43 q 3586 208 3615 142 q 3557 350 3557 274 q 3586 493 3557 426 q 3665 610 3615 560 q 3782 688 3715 660 q 3924 717 3849 717 q 4034 701 3982 717 q 4133 654 4086 685 l 4133 946 l 4310 946 l 4310 0 m 5388 0 l 5213 0 l 5213 50 q 5120 3 5174 19 q 5007 -12 5067 -12 q 4865 15 4932 -12 q 4747 92 4797 43 q 4667 208 4696 142 q 4638 350 4638 274 q 4667 493 4638 426 q 4747 610 4696 560 q 4865 688 4797 660 q 5007 717 4932 717 q 5119 701 5067 717 q 5213 654 5172 685 l 5213 946 l 5388 946 l 5388 0 m 3322 50 q 3224 3 3278 19 q 3108 -12 3171 -12 q 2969 15 3035 -12 q 2855 92 2904 43 q 2776 208 2806 142 q 2747 350 2747 274 q 2776 493 2747 426 q 2855 610 2806 560 q 2969 688 2904 660 q 3108 717 3035 717 q 3322 654 3228 717 l 3322 710 l 3497 710 l 3497 0 l 3322 0 l 3322 50 m 6018 50 q 5923 3 5975 19 q 5817 -12 5871 -12 q 5673 15 5740 -12 q 5555 92 5606 43 q 5475 208 5504 142 q 5446 350 5446 274 q 5475 493 5446 426 q 5555 610 5504 560 q 5673 688 5606 660 q 5817 717 5740 717 q 5922 701 5869 717 q 6018 654 5975 685 l 6018 710 l 6194 710 l 6194 0 l 6018 0 l 6018 50 z "},"ﬁ":{"ha":792,"x_min":28,"x_max":753,"o":"m 426 803 q 356 783 379 803 q 332 719 332 764 l 332 713 l 493 713 l 493 540 l 332 540 l 332 0 l 139 0 l 139 540 l 28 540 l 28 713 l 139 713 l 139 721 q 209 899 139 836 q 418 961 279 961 l 493 961 l 493 803 l 426 803 m 560 774 l 560 951 l 753 951 l 753 774 l 560 774 m 560 0 l 560 713 l 753 713 l 753 0 l 560 0 z "},"ﬂ":{"ha":793,"x_min":28,"x_max":754,"o":"m 426 803 q 356 783 379 803 q 332 719 332 764 l 332 713 l 493 713 l 493 540 l 332 540 l 332 0 l 139 0 l 139 540 l 28 540 l 28 713 l 139 713 l 139 721 q 209 899 139 836 q 418 961 279 961 l 493 961 l 493 803 l 426 803 m 560 0 l 560 951 l 754 951 l 754 0 l 560 0 z "}}}
